<mxfile host="app.diagrams.net" modified="2023-09-02T20:17:31.441Z" agent="Mozilla/5.0 (Windows NT 10.0; Win64; x64) AppleWebKit/537.36 (KHTML, like Gecko) Chrome/116.0.0.0 Safari/537.36" etag="US9jmsu_j9PbyynhR6N-" version="21.7.1" type="github" pages="2">
  <diagram name="Página-1" id="7sbEmTmDWhXD001crU1l">
    <mxGraphModel dx="3034" dy="-418" grid="0" gridSize="10" guides="1" tooltips="1" connect="1" arrows="1" fold="1" page="0" pageScale="1" pageWidth="827" pageHeight="1169" background="#000000" math="0" shadow="0">
      <root>
        <mxCell id="0" />
        <mxCell id="1" parent="0" />
        <mxCell id="XlkSf27Gx7VMvzdyeSQ4-18" value="&lt;font style=&quot;font-size: 38px;&quot;&gt;RZN APPs&lt;/font&gt;" style="text;html=1;strokeColor=none;fillColor=none;align=center;verticalAlign=middle;whiteSpace=wrap;rounded=0;fontSize=38;fontColor=#4A4A4A;" parent="1" vertex="1">
          <mxGeometry x="-578" y="1562" width="206.5" height="40" as="geometry" />
        </mxCell>
        <mxCell id="ehPxeaQofr2Vrx8XBu18-3" value="SAA" style="sketch=0;outlineConnect=0;gradientColor=none;html=1;whiteSpace=wrap;fontSize=12;fontStyle=0;shape=mxgraph.aws4.group;grIcon=mxgraph.aws4.group_aws_cloud;strokeColor=#858B94;fillColor=none;verticalAlign=top;align=left;spacingLeft=30;fontColor=#858B94;dashed=0;comic=0;enumerate=0;backgroundOutline=0;snapToPoint=0;strokeWidth=1;" parent="1" vertex="1">
          <mxGeometry x="-1148.5" y="1243" width="950" height="580" as="geometry" />
        </mxCell>
        <mxCell id="ehPxeaQofr2Vrx8XBu18-4" value="VPC (ex: 10.100.0.0/16)" style="points=[[0,0],[0.25,0],[0.5,0],[0.75,0],[1,0],[1,0.25],[1,0.5],[1,0.75],[1,1],[0.75,1],[0.5,1],[0.25,1],[0,1],[0,0.75],[0,0.5],[0,0.25]];outlineConnect=0;gradientColor=none;html=1;whiteSpace=wrap;fontSize=12;fontStyle=0;container=1;pointerEvents=0;collapsible=0;recursiveResize=0;shape=mxgraph.aws4.group;grIcon=mxgraph.aws4.group_vpc;strokeColor=#248814;fillColor=none;verticalAlign=top;align=left;spacingLeft=30;fontColor=#A0A8B3;dashed=0;comic=0;enumerate=0;backgroundOutline=0;snapToPoint=0;" parent="1" vertex="1">
          <mxGeometry x="-788.5" y="1263" width="440" height="540" as="geometry" />
        </mxCell>
        <mxCell id="ehPxeaQofr2Vrx8XBu18-5" value="EC2 Auto Scaling" style="rounded=1;arcSize=10;dashed=1;fillColor=none;dashPattern=1 1;strokeWidth=2;verticalAlign=top;strokeColor=#d79b00;comic=0;enumerate=0;backgroundOutline=0;snapToPoint=0;labelBackgroundColor=none;gradientColor=default;fillStyle=dots;fontColor=#FF8000;" parent="ehPxeaQofr2Vrx8XBu18-4" vertex="1">
          <mxGeometry x="160.5" y="10" width="270" height="520" as="geometry" />
        </mxCell>
        <mxCell id="ehPxeaQofr2Vrx8XBu18-6" value="AZ-B" style="fillColor=none;strokeColor=#147EBA;dashed=1;verticalAlign=top;fontStyle=0;fontColor=#147EBA;whiteSpace=wrap;html=1;comic=0;enumerate=0;backgroundOutline=0;snapToPoint=0;" parent="ehPxeaQofr2Vrx8XBu18-4" vertex="1">
          <mxGeometry x="10" y="343" width="410" height="177" as="geometry" />
        </mxCell>
        <mxCell id="ehPxeaQofr2Vrx8XBu18-7" value="Private subnet" style="points=[[0,0],[0.25,0],[0.5,0],[0.75,0],[1,0],[1,0.25],[1,0.5],[1,0.75],[1,1],[0.75,1],[0.5,1],[0.25,1],[0,1],[0,0.75],[0,0.5],[0,0.25]];outlineConnect=0;gradientColor=none;html=1;whiteSpace=wrap;fontSize=12;fontStyle=0;container=1;pointerEvents=0;collapsible=0;recursiveResize=0;shape=mxgraph.aws4.group;grIcon=mxgraph.aws4.group_security_group;grStroke=0;strokeColor=#147EBA;fillColor=#102b38;verticalAlign=top;align=left;spacingLeft=30;fontColor=#147EBA;dashed=0;comic=0;enumerate=0;backgroundOutline=0;snapToPoint=0;" parent="ehPxeaQofr2Vrx8XBu18-4" vertex="1">
          <mxGeometry x="181" y="90" width="229" height="140" as="geometry" />
        </mxCell>
        <mxCell id="ehPxeaQofr2Vrx8XBu18-8" value="Public subnet" style="points=[[0,0],[0.25,0],[0.5,0],[0.75,0],[1,0],[1,0.25],[1,0.5],[1,0.75],[1,1],[0.75,1],[0.5,1],[0.25,1],[0,1],[0,0.75],[0,0.5],[0,0.25]];outlineConnect=0;gradientColor=none;html=1;whiteSpace=wrap;fontSize=12;fontStyle=0;container=1;pointerEvents=0;collapsible=0;recursiveResize=0;shape=mxgraph.aws4.group;grIcon=mxgraph.aws4.group_security_group;grStroke=0;strokeColor=#248814;fillColor=#1d3017;verticalAlign=top;align=left;spacingLeft=30;fontColor=#248814;dashed=0;comic=0;enumerate=0;backgroundOutline=0;snapToPoint=0;" parent="ehPxeaQofr2Vrx8XBu18-4" vertex="1">
          <mxGeometry x="20" y="90" width="120" height="140" as="geometry" />
        </mxCell>
        <mxCell id="ehPxeaQofr2Vrx8XBu18-9" value="EC2" style="sketch=0;points=[[0,0,0],[0.25,0,0],[0.5,0,0],[0.75,0,0],[1,0,0],[0,1,0],[0.25,1,0],[0.5,1,0],[0.75,1,0],[1,1,0],[0,0.25,0],[0,0.5,0],[0,0.75,0],[1,0.25,0],[1,0.5,0],[1,0.75,0]];outlineConnect=0;fontColor=#adadad;gradientColor=#F78E04;gradientDirection=north;fillColor=#D05C17;strokeColor=#000000;dashed=0;verticalLabelPosition=top;verticalAlign=bottom;align=center;html=1;fontSize=12;fontStyle=0;aspect=fixed;shape=mxgraph.aws4.resourceIcon;resIcon=mxgraph.aws4.ec2;labelPosition=center;comic=0;enumerate=0;backgroundOutline=0;snapToPoint=0;" parent="ehPxeaQofr2Vrx8XBu18-4" vertex="1">
          <mxGeometry x="224" y="141" width="56" height="56" as="geometry" />
        </mxCell>
        <mxCell id="ehPxeaQofr2Vrx8XBu18-10" value="EC2" style="sketch=0;points=[[0,0,0],[0.25,0,0],[0.5,0,0],[0.75,0,0],[1,0,0],[0,1,0],[0.25,1,0],[0.5,1,0],[0.75,1,0],[1,1,0],[0,0.25,0],[0,0.5,0],[0,0.75,0],[1,0.25,0],[1,0.5,0],[1,0.75,0]];outlineConnect=0;fontColor=#adadad;gradientColor=#F78E04;gradientDirection=north;fillColor=#D05C17;strokeColor=#000000;dashed=0;verticalLabelPosition=top;verticalAlign=bottom;align=center;html=1;fontSize=12;fontStyle=0;aspect=fixed;shape=mxgraph.aws4.resourceIcon;resIcon=mxgraph.aws4.ec2;labelPosition=center;comic=0;enumerate=0;backgroundOutline=0;snapToPoint=0;" parent="ehPxeaQofr2Vrx8XBu18-4" vertex="1">
          <mxGeometry x="320" y="141" width="56" height="56" as="geometry" />
        </mxCell>
        <mxCell id="ehPxeaQofr2Vrx8XBu18-11" value="Private subnet" style="points=[[0,0],[0.25,0],[0.5,0],[0.75,0],[1,0],[1,0.25],[1,0.5],[1,0.75],[1,1],[0.75,1],[0.5,1],[0.25,1],[0,1],[0,0.75],[0,0.5],[0,0.25]];outlineConnect=0;gradientColor=none;html=1;whiteSpace=wrap;fontSize=12;fontStyle=0;container=1;pointerEvents=0;collapsible=0;recursiveResize=0;shape=mxgraph.aws4.group;grIcon=mxgraph.aws4.group_security_group;grStroke=0;strokeColor=#147EBA;fillColor=#102b38;verticalAlign=top;align=left;spacingLeft=30;fontColor=#147EBA;dashed=0;comic=0;enumerate=0;backgroundOutline=0;snapToPoint=0;" parent="ehPxeaQofr2Vrx8XBu18-4" vertex="1">
          <mxGeometry x="181" y="368" width="229" height="140" as="geometry" />
        </mxCell>
        <mxCell id="ehPxeaQofr2Vrx8XBu18-12" value="EC2" style="sketch=0;points=[[0,0,0],[0.25,0,0],[0.5,0,0],[0.75,0,0],[1,0,0],[0,1,0],[0.25,1,0],[0.5,1,0],[0.75,1,0],[1,1,0],[0,0.25,0],[0,0.5,0],[0,0.75,0],[1,0.25,0],[1,0.5,0],[1,0.75,0]];outlineConnect=0;fontColor=#adadad;gradientColor=#F78E04;gradientDirection=north;fillColor=#D05C17;strokeColor=#000000;dashed=0;verticalLabelPosition=bottom;verticalAlign=top;align=center;html=1;fontSize=12;fontStyle=0;aspect=fixed;shape=mxgraph.aws4.resourceIcon;resIcon=mxgraph.aws4.ec2;comic=0;enumerate=0;backgroundOutline=0;snapToPoint=0;" parent="ehPxeaQofr2Vrx8XBu18-4" vertex="1">
          <mxGeometry x="224" y="409" width="56" height="56" as="geometry" />
        </mxCell>
        <mxCell id="ehPxeaQofr2Vrx8XBu18-13" value="EC2" style="sketch=0;points=[[0,0,0],[0.25,0,0],[0.5,0,0],[0.75,0,0],[1,0,0],[0,1,0],[0.25,1,0],[0.5,1,0],[0.75,1,0],[1,1,0],[0,0.25,0],[0,0.5,0],[0,0.75,0],[1,0.25,0],[1,0.5,0],[1,0.75,0]];outlineConnect=0;fontColor=#adadad;gradientColor=#F78E04;gradientDirection=north;fillColor=#D05C17;strokeColor=#000000;dashed=0;verticalLabelPosition=bottom;verticalAlign=top;align=center;html=1;fontSize=12;fontStyle=0;aspect=fixed;shape=mxgraph.aws4.resourceIcon;resIcon=mxgraph.aws4.ec2;comic=0;enumerate=0;backgroundOutline=0;snapToPoint=0;" parent="ehPxeaQofr2Vrx8XBu18-4" vertex="1">
          <mxGeometry x="320" y="409" width="56" height="56" as="geometry" />
        </mxCell>
        <mxCell id="ehPxeaQofr2Vrx8XBu18-14" value="Public subnet" style="points=[[0,0],[0.25,0],[0.5,0],[0.75,0],[1,0],[1,0.25],[1,0.5],[1,0.75],[1,1],[0.75,1],[0.5,1],[0.25,1],[0,1],[0,0.75],[0,0.5],[0,0.25]];outlineConnect=0;gradientColor=none;html=1;whiteSpace=wrap;fontSize=12;fontStyle=0;container=1;pointerEvents=0;collapsible=0;recursiveResize=0;shape=mxgraph.aws4.group;grIcon=mxgraph.aws4.group_security_group;grStroke=0;strokeColor=#248814;fillColor=#1d3017;verticalAlign=top;align=left;spacingLeft=30;fontColor=#248814;dashed=0;comic=0;enumerate=0;backgroundOutline=0;snapToPoint=0;" parent="ehPxeaQofr2Vrx8XBu18-4" vertex="1">
          <mxGeometry x="20" y="370" width="120" height="140" as="geometry" />
        </mxCell>
        <mxCell id="ehPxeaQofr2Vrx8XBu18-15" value="NAT Gateway" style="sketch=0;outlineConnect=0;fontColor=#adadad;gradientColor=none;fillColor=#b39de9;strokeColor=none;dashed=0;verticalLabelPosition=bottom;verticalAlign=top;align=center;html=1;fontSize=12;fontStyle=0;aspect=fixed;pointerEvents=1;shape=mxgraph.aws4.nat_gateway;comic=0;enumerate=0;backgroundOutline=0;snapToPoint=0;" parent="ehPxeaQofr2Vrx8XBu18-4" vertex="1">
          <mxGeometry x="56" y="420" width="48" height="48" as="geometry" />
        </mxCell>
        <mxCell id="XlkSf27Gx7VMvzdyeSQ4-17" value="&lt;font style=&quot;font-size: 38px;&quot;&gt;RZN APPs&lt;/font&gt;" style="text;html=1;strokeColor=none;fillColor=none;align=center;verticalAlign=middle;whiteSpace=wrap;rounded=0;fontSize=38;fontColor=#212121;" parent="ehPxeaQofr2Vrx8XBu18-4" vertex="1">
          <mxGeometry x="209.5" y="298" width="206.5" height="40" as="geometry" />
        </mxCell>
        <mxCell id="ehPxeaQofr2Vrx8XBu18-16" value="Região (ex: São Paulo)" style="points=[[0,0],[0.25,0],[0.5,0],[0.75,0],[1,0],[1,0.25],[1,0.5],[1,0.75],[1,1],[0.75,1],[0.5,1],[0.25,1],[0,1],[0,0.75],[0,0.5],[0,0.25]];outlineConnect=0;gradientColor=none;html=1;whiteSpace=wrap;fontSize=12;fontStyle=0;container=1;pointerEvents=0;collapsible=0;recursiveResize=0;shape=mxgraph.aws4.group;grIcon=mxgraph.aws4.group_region;strokeColor=#147EBA;fillColor=none;verticalAlign=top;align=left;spacingLeft=30;fontColor=#147EBA;dashed=1;comic=0;enumerate=0;backgroundOutline=0;snapToPoint=0;" parent="1" vertex="1">
          <mxGeometry x="-968.5" y="1253" width="760" height="560" as="geometry" />
        </mxCell>
        <mxCell id="ehPxeaQofr2Vrx8XBu18-17" value="AZ-A" style="fillColor=none;strokeColor=#147EBA;dashed=1;verticalAlign=top;fontStyle=0;fontColor=#147EBA;whiteSpace=wrap;html=1;comic=0;enumerate=0;backgroundOutline=0;snapToPoint=0;" parent="ehPxeaQofr2Vrx8XBu18-16" vertex="1">
          <mxGeometry x="190" y="41" width="410" height="210" as="geometry" />
        </mxCell>
        <mxCell id="ehPxeaQofr2Vrx8XBu18-18" value="NAT Gateway" style="sketch=0;outlineConnect=0;fontColor=#adadad;gradientColor=none;fillColor=#b39de9;strokeColor=none;dashed=0;verticalLabelPosition=bottom;verticalAlign=top;align=center;html=1;fontSize=12;fontStyle=0;aspect=fixed;pointerEvents=1;shape=mxgraph.aws4.nat_gateway;comic=0;enumerate=0;backgroundOutline=0;snapToPoint=0;" parent="ehPxeaQofr2Vrx8XBu18-16" vertex="1">
          <mxGeometry x="236.0000000000001" y="150" width="48" height="48" as="geometry" />
        </mxCell>
        <mxCell id="ehPxeaQofr2Vrx8XBu18-19" value="DynamoDB" style="sketch=0;points=[[0,0,0],[0.25,0,0],[0.5,0,0],[0.75,0,0],[1,0,0],[0,1,0],[0.25,1,0],[0.5,1,0],[0.75,1,0],[1,1,0],[0,0.25,0],[0,0.5,0],[0,0.75,0],[1,0.25,0],[1,0.5,0],[1,0.75,0]];outlineConnect=0;fontColor=#adadad;gradientColor=#4D72F3;gradientDirection=north;fillColor=#3334B9;strokeColor=#000000;dashed=0;verticalLabelPosition=bottom;verticalAlign=top;align=center;html=1;fontSize=12;fontStyle=0;aspect=fixed;shape=mxgraph.aws4.resourceIcon;resIcon=mxgraph.aws4.dynamodb;comic=0;enumerate=0;backgroundOutline=0;snapToPoint=0;" parent="ehPxeaQofr2Vrx8XBu18-16" vertex="1">
          <mxGeometry x="690" y="256" width="56" height="56" as="geometry" />
        </mxCell>
        <mxCell id="ehPxeaQofr2Vrx8XBu18-20" style="edgeStyle=orthogonalEdgeStyle;rounded=0;orthogonalLoop=1;jettySize=auto;html=1;flowAnimation=1;fillColor=#d5e8d4;strokeColor=#82b366;" parent="1" source="ehPxeaQofr2Vrx8XBu18-21" target="ehPxeaQofr2Vrx8XBu18-24" edge="1">
          <mxGeometry relative="1" as="geometry" />
        </mxCell>
        <mxCell id="ehPxeaQofr2Vrx8XBu18-21" value="Route 53" style="sketch=0;points=[[0,0,0],[0.25,0,0],[0.5,0,0],[0.75,0,0],[1,0,0],[0,1,0],[0.25,1,0],[0.5,1,0],[0.75,1,0],[1,1,0],[0,0.25,0],[0,0.5,0],[0,0.75,0],[1,0.25,0],[1,0.5,0],[1,0.75,0]];outlineConnect=0;fontColor=#adadad;gradientColor=#945DF2;gradientDirection=north;fillColor=#5A30B5;strokeColor=#000000;dashed=0;verticalLabelPosition=top;verticalAlign=bottom;align=center;html=1;fontSize=12;fontStyle=0;aspect=fixed;shape=mxgraph.aws4.resourceIcon;resIcon=mxgraph.aws4.route_53;comic=0;enumerate=0;backgroundOutline=0;snapToPoint=0;labelPosition=center;" parent="1" vertex="1">
          <mxGeometry x="-1088.5" y="1373" width="56" height="56" as="geometry" />
        </mxCell>
        <mxCell id="ehPxeaQofr2Vrx8XBu18-22" style="edgeStyle=orthogonalEdgeStyle;rounded=0;orthogonalLoop=1;jettySize=auto;html=1;comic=0;enumerate=0;backgroundOutline=0;snapToPoint=0;flowAnimation=1;fillColor=#d5e8d4;strokeColor=#82b366;" parent="1" source="ehPxeaQofr2Vrx8XBu18-24" target="ehPxeaQofr2Vrx8XBu18-29" edge="1">
          <mxGeometry relative="1" as="geometry" />
        </mxCell>
        <mxCell id="ehPxeaQofr2Vrx8XBu18-23" style="edgeStyle=orthogonalEdgeStyle;rounded=0;orthogonalLoop=1;jettySize=auto;html=1;flowAnimation=1;fillColor=#d5e8d4;strokeColor=#82b366;" parent="1" source="ehPxeaQofr2Vrx8XBu18-24" target="ehPxeaQofr2Vrx8XBu18-36" edge="1">
          <mxGeometry relative="1" as="geometry">
            <Array as="points">
              <mxPoint x="-880.5" y="1553" />
            </Array>
          </mxGeometry>
        </mxCell>
        <mxCell id="ehPxeaQofr2Vrx8XBu18-24" value="CloudFront" style="sketch=0;points=[[0,0,0],[0.25,0,0],[0.5,0,0],[0.75,0,0],[1,0,0],[0,1,0],[0.25,1,0],[0.5,1,0],[0.75,1,0],[1,1,0],[0,0.25,0],[0,0.5,0],[0,0.75,0],[1,0.25,0],[1,0.5,0],[1,0.75,0]];outlineConnect=0;fontColor=#adadad;gradientColor=#945DF2;gradientDirection=north;fillColor=#5A30B5;strokeColor=#000000;dashed=0;verticalLabelPosition=bottom;verticalAlign=top;align=center;html=1;fontSize=12;fontStyle=0;aspect=fixed;shape=mxgraph.aws4.resourceIcon;resIcon=mxgraph.aws4.cloudfront;comic=0;enumerate=0;backgroundOutline=0;snapToPoint=0;" parent="1" vertex="1">
          <mxGeometry x="-1088.5" y="1510" width="56" height="56" as="geometry" />
        </mxCell>
        <mxCell id="ehPxeaQofr2Vrx8XBu18-25" style="edgeStyle=orthogonalEdgeStyle;rounded=0;orthogonalLoop=1;jettySize=auto;html=1;entryX=0.5;entryY=1;entryDx=0;entryDy=0;entryPerimeter=0;comic=0;enumerate=0;backgroundOutline=0;snapToPoint=0;flowAnimation=1;fillColor=#d5e8d4;strokeColor=#82b366;" parent="1" source="ehPxeaQofr2Vrx8XBu18-29" target="ehPxeaQofr2Vrx8XBu18-10" edge="1">
          <mxGeometry relative="1" as="geometry">
            <Array as="points">
              <mxPoint x="-440.5" y="1533" />
            </Array>
          </mxGeometry>
        </mxCell>
        <mxCell id="ehPxeaQofr2Vrx8XBu18-26" style="edgeStyle=orthogonalEdgeStyle;rounded=0;orthogonalLoop=1;jettySize=auto;html=1;entryX=0.5;entryY=0;entryDx=0;entryDy=0;entryPerimeter=0;comic=0;enumerate=0;backgroundOutline=0;snapToPoint=0;flowAnimation=1;fillColor=#d5e8d4;strokeColor=#82b366;" parent="1" source="ehPxeaQofr2Vrx8XBu18-29" target="ehPxeaQofr2Vrx8XBu18-13" edge="1">
          <mxGeometry relative="1" as="geometry">
            <Array as="points">
              <mxPoint x="-440.5" y="1540" />
            </Array>
          </mxGeometry>
        </mxCell>
        <mxCell id="ehPxeaQofr2Vrx8XBu18-27" style="edgeStyle=orthogonalEdgeStyle;rounded=0;orthogonalLoop=1;jettySize=auto;html=1;comic=0;enumerate=0;backgroundOutline=0;snapToPoint=0;flowAnimation=1;fillColor=#d5e8d4;strokeColor=#82b366;" parent="1" source="ehPxeaQofr2Vrx8XBu18-29" target="ehPxeaQofr2Vrx8XBu18-12" edge="1">
          <mxGeometry relative="1" as="geometry">
            <Array as="points">
              <mxPoint x="-536.5" y="1550" />
            </Array>
          </mxGeometry>
        </mxCell>
        <mxCell id="ehPxeaQofr2Vrx8XBu18-28" style="edgeStyle=orthogonalEdgeStyle;rounded=0;orthogonalLoop=1;jettySize=auto;html=1;comic=0;enumerate=0;backgroundOutline=0;snapToPoint=0;flowAnimation=1;fillColor=#d5e8d4;strokeColor=#82b366;" parent="1" source="ehPxeaQofr2Vrx8XBu18-29" target="ehPxeaQofr2Vrx8XBu18-9" edge="1">
          <mxGeometry relative="1" as="geometry">
            <Array as="points">
              <mxPoint x="-536.5" y="1523" />
            </Array>
          </mxGeometry>
        </mxCell>
        <mxCell id="ehPxeaQofr2Vrx8XBu18-29" value="Application Load&lt;br&gt;Balancer" style="sketch=0;outlineConnect=0;fontColor=#adadad;gradientColor=none;fillColor=#4D27AA;strokeColor=none;dashed=0;verticalLabelPosition=bottom;verticalAlign=top;align=center;html=1;fontSize=12;fontStyle=0;aspect=fixed;pointerEvents=1;shape=mxgraph.aws4.application_load_balancer;comic=0;enumerate=0;backgroundOutline=0;snapToPoint=0;" parent="1" vertex="1">
          <mxGeometry x="-733.8699999999999" y="1510" width="56" height="56" as="geometry" />
        </mxCell>
        <mxCell id="ehPxeaQofr2Vrx8XBu18-30" style="edgeStyle=orthogonalEdgeStyle;rounded=0;orthogonalLoop=1;jettySize=auto;html=1;comic=0;enumerate=0;backgroundOutline=0;snapToPoint=0;flowAnimation=1;strokeColor=#82b366;fillColor=#d5e8d4;" parent="1" source="ehPxeaQofr2Vrx8XBu18-31" target="ehPxeaQofr2Vrx8XBu18-21" edge="1">
          <mxGeometry relative="1" as="geometry" />
        </mxCell>
        <mxCell id="ehPxeaQofr2Vrx8XBu18-31" value="Usuários&lt;br&gt;da Internet" style="sketch=0;outlineConnect=0;fillColor=#1BA1E2;strokeColor=#006EAF;dashed=0;verticalLabelPosition=bottom;verticalAlign=top;align=center;html=1;fontSize=12;fontStyle=0;aspect=fixed;pointerEvents=1;shape=mxgraph.aws4.users;comic=0;enumerate=0;backgroundOutline=0;snapToPoint=0;fontColor=#1BA1E2;" parent="1" vertex="1">
          <mxGeometry x="-1248.5" y="1373" width="56" height="56" as="geometry" />
        </mxCell>
        <mxCell id="ehPxeaQofr2Vrx8XBu18-32" style="edgeStyle=orthogonalEdgeStyle;rounded=0;orthogonalLoop=1;jettySize=auto;html=1;comic=0;enumerate=0;backgroundOutline=0;snapToPoint=0;flowAnimation=1;fillColor=#e1d5e7;strokeColor=#9673a6;" parent="1" source="ehPxeaQofr2Vrx8XBu18-13" target="ehPxeaQofr2Vrx8XBu18-19" edge="1">
          <mxGeometry relative="1" as="geometry">
            <mxPoint x="-288.5" y="1543" as="targetPoint" />
            <Array as="points">
              <mxPoint x="-328.5" y="1703" />
              <mxPoint x="-328.5" y="1543" />
            </Array>
          </mxGeometry>
        </mxCell>
        <mxCell id="ehPxeaQofr2Vrx8XBu18-33" style="edgeStyle=orthogonalEdgeStyle;rounded=0;orthogonalLoop=1;jettySize=auto;html=1;comic=0;enumerate=0;backgroundOutline=0;snapToPoint=0;flowAnimation=1;fillColor=#e1d5e7;strokeColor=#9673a6;" parent="1" source="ehPxeaQofr2Vrx8XBu18-10" target="ehPxeaQofr2Vrx8XBu18-19" edge="1">
          <mxGeometry relative="1" as="geometry">
            <mxPoint x="-308.5" y="1493" as="targetPoint" />
            <Array as="points">
              <mxPoint x="-328.5" y="1433" />
              <mxPoint x="-328.5" y="1533" />
            </Array>
          </mxGeometry>
        </mxCell>
        <mxCell id="ehPxeaQofr2Vrx8XBu18-34" style="edgeStyle=orthogonalEdgeStyle;orthogonalLoop=1;jettySize=auto;html=1;comic=0;enumerate=0;backgroundOutline=0;snapToPoint=0;flowAnimation=1;fillColor=#e1d5e7;strokeColor=#9673a6;rounded=0;strokeWidth=1;" parent="1" source="ehPxeaQofr2Vrx8XBu18-9" target="ehPxeaQofr2Vrx8XBu18-19" edge="1">
          <mxGeometry relative="1" as="geometry">
            <Array as="points">
              <mxPoint x="-488.5" y="1433" />
              <mxPoint x="-488.5" y="1373" />
              <mxPoint x="-318.5" y="1373" />
              <mxPoint x="-318.5" y="1523" />
            </Array>
          </mxGeometry>
        </mxCell>
        <mxCell id="ehPxeaQofr2Vrx8XBu18-35" style="edgeStyle=orthogonalEdgeStyle;rounded=0;orthogonalLoop=1;jettySize=auto;html=1;entryX=0;entryY=0.75;entryDx=0;entryDy=0;entryPerimeter=0;flowAnimation=1;fillColor=#e1d5e7;strokeColor=#9673a6;" parent="1" source="ehPxeaQofr2Vrx8XBu18-12" target="ehPxeaQofr2Vrx8XBu18-19" edge="1">
          <mxGeometry relative="1" as="geometry">
            <Array as="points">
              <mxPoint x="-488.5" y="1700" />
              <mxPoint x="-488.5" y="1763" />
              <mxPoint x="-318.5" y="1763" />
              <mxPoint x="-318.5" y="1551" />
            </Array>
          </mxGeometry>
        </mxCell>
        <mxCell id="ehPxeaQofr2Vrx8XBu18-36" value="Amazon S3" style="sketch=0;points=[[0,0,0],[0.25,0,0],[0.5,0,0],[0.75,0,0],[1,0,0],[0,1,0],[0.25,1,0],[0.5,1,0],[0.75,1,0],[1,1,0],[0,0.25,0],[0,0.5,0],[0,0.75,0],[1,0.25,0],[1,0.5,0],[1,0.75,0]];outlineConnect=0;fontColor=#adadad;gradientColor=#60A337;gradientDirection=north;fillColor=#277116;strokeColor=#000000;dashed=0;verticalLabelPosition=bottom;verticalAlign=top;align=center;html=1;fontSize=12;fontStyle=0;aspect=fixed;shape=mxgraph.aws4.resourceIcon;resIcon=mxgraph.aws4.s3;" parent="1" vertex="1">
          <mxGeometry x="-908.5" y="1663" width="56" height="56" as="geometry" />
        </mxCell>
      </root>
    </mxGraphModel>
  </diagram>
  <diagram id="8RuvAe8j71QKO3fnN8Qv" name="Page-2">
    <mxGraphModel dx="3134" dy="-318" grid="0" gridSize="10" guides="1" tooltips="1" connect="1" arrows="1" fold="1" page="1" pageScale="1" pageWidth="850" pageHeight="1100" background="none" math="0" shadow="0">
      <root>
        <mxCell id="0" />
        <mxCell id="1" parent="0" />
        <mxCell id="S1YV70i-Cic0EkdP-n4v-2" value="TECNO CT" style="sketch=0;outlineConnect=0;gradientColor=none;html=1;whiteSpace=wrap;fontSize=12;fontStyle=0;shape=mxgraph.aws4.group;grIcon=mxgraph.aws4.group_aws_cloud;strokeColor=#858B94;fillColor=none;verticalAlign=top;align=left;spacingLeft=30;fontColor=#858B94;dashed=0;comic=0;enumerate=0;backgroundOutline=0;snapToPoint=0;strokeWidth=1;" parent="1" vertex="1">
          <mxGeometry x="-1588" y="1120" width="1060" height="1319" as="geometry" />
        </mxCell>
        <mxCell id="S1YV70i-Cic0EkdP-n4v-4" value="ECS" style="rounded=1;arcSize=10;dashed=1;fillColor=none;dashPattern=1 1;strokeWidth=2;verticalAlign=top;strokeColor=#d79b00;comic=0;enumerate=0;backgroundOutline=0;snapToPoint=0;labelBackgroundColor=none;gradientColor=default;fillStyle=dots;fontColor=#FF8000;" parent="1" vertex="1">
          <mxGeometry x="-1098.5" y="1152" width="270" height="580" as="geometry" />
        </mxCell>
        <mxCell id="S1YV70i-Cic0EkdP-n4v-31" value="Usuários&lt;br&gt;da Internet" style="sketch=0;outlineConnect=0;fillColor=#1BA1E2;strokeColor=#006EAF;dashed=0;verticalLabelPosition=bottom;verticalAlign=top;align=center;html=1;fontSize=12;fontStyle=0;aspect=fixed;pointerEvents=1;shape=mxgraph.aws4.users;comic=0;enumerate=0;backgroundOutline=0;snapToPoint=0;fontColor=#1BA1E2;" parent="1" vertex="1">
          <mxGeometry x="-1685" y="2062" width="56" height="56" as="geometry" />
        </mxCell>
        <mxCell id="9stf0OVaeOMll12Zxa0v-40" value="" style="group" vertex="1" connectable="0" parent="1">
          <mxGeometry x="-1088" y="1549" width="251.5" height="168" as="geometry" />
        </mxCell>
        <mxCell id="9stf0OVaeOMll12Zxa0v-1" value="AZ-C" style="fillColor=none;strokeColor=#147EBA;dashed=1;verticalAlign=top;fontStyle=0;fontColor=#147EBA;whiteSpace=wrap;html=1;comic=0;enumerate=0;backgroundOutline=0;snapToPoint=0;" vertex="1" parent="9stf0OVaeOMll12Zxa0v-40">
          <mxGeometry width="251.5" height="168" as="geometry" />
        </mxCell>
        <mxCell id="9stf0OVaeOMll12Zxa0v-38" value="" style="group" vertex="1" connectable="0" parent="9stf0OVaeOMll12Zxa0v-40">
          <mxGeometry x="13.5" y="25" width="229" height="140" as="geometry" />
        </mxCell>
        <mxCell id="9stf0OVaeOMll12Zxa0v-13" value="Private subnet" style="points=[[0,0],[0.25,0],[0.5,0],[0.75,0],[1,0],[1,0.25],[1,0.5],[1,0.75],[1,1],[0.75,1],[0.5,1],[0.25,1],[0,1],[0,0.75],[0,0.5],[0,0.25]];outlineConnect=0;gradientColor=none;html=1;whiteSpace=wrap;fontSize=12;fontStyle=0;container=1;pointerEvents=0;collapsible=0;recursiveResize=0;shape=mxgraph.aws4.group;grIcon=mxgraph.aws4.group_security_group;grStroke=0;strokeColor=#147EBA;fillColor=#102b38;verticalAlign=top;align=left;spacingLeft=30;fontColor=#147EBA;dashed=0;comic=0;enumerate=0;backgroundOutline=0;snapToPoint=0;" vertex="1" parent="9stf0OVaeOMll12Zxa0v-38">
          <mxGeometry width="229" height="140" as="geometry" />
        </mxCell>
        <mxCell id="9stf0OVaeOMll12Zxa0v-31" value="" style="group" vertex="1" connectable="0" parent="9stf0OVaeOMll12Zxa0v-38">
          <mxGeometry x="6.5" y="33" width="219.5" height="100" as="geometry" />
        </mxCell>
        <mxCell id="9stf0OVaeOMll12Zxa0v-32" value="" style="group" vertex="1" connectable="0" parent="9stf0OVaeOMll12Zxa0v-31">
          <mxGeometry x="27.25" y="8" width="179.88" height="65" as="geometry" />
        </mxCell>
        <mxCell id="9stf0OVaeOMll12Zxa0v-33" value="&lt;font color=&quot;#adadad&quot;&gt;Task&lt;/font&gt;" style="sketch=0;outlineConnect=0;fontColor=#232F3E;gradientColor=none;fillColor=#D45B07;strokeColor=none;dashed=0;verticalLabelPosition=bottom;verticalAlign=top;align=center;html=1;fontSize=12;fontStyle=0;aspect=fixed;pointerEvents=1;shape=mxgraph.aws4.ecs_task;" vertex="1" parent="9stf0OVaeOMll12Zxa0v-32">
          <mxGeometry x="164" y="47" width="13.88" height="18" as="geometry" />
        </mxCell>
        <mxCell id="9stf0OVaeOMll12Zxa0v-34" value="&lt;font color=&quot;#adadad&quot;&gt;ECS Fargate&lt;/font&gt;" style="sketch=0;points=[[0,0,0],[0.25,0,0],[0.5,0,0],[0.75,0,0],[1,0,0],[0,1,0],[0.25,1,0],[0.5,1,0],[0.75,1,0],[1,1,0],[0,0.25,0],[0,0.5,0],[0,0.75,0],[1,0.25,0],[1,0.5,0],[1,0.75,0]];outlineConnect=0;fontColor=#232F3E;gradientColor=#F78E04;gradientDirection=north;fillColor=#D05C17;strokeColor=#ffffff;dashed=0;verticalLabelPosition=bottom;verticalAlign=top;align=center;html=1;fontSize=12;fontStyle=0;aspect=fixed;shape=mxgraph.aws4.resourceIcon;resIcon=mxgraph.aws4.fargate;" vertex="1" parent="9stf0OVaeOMll12Zxa0v-32">
          <mxGeometry x="80" y="34" width="31" height="31" as="geometry" />
        </mxCell>
        <mxCell id="9stf0OVaeOMll12Zxa0v-35" value="&lt;font color=&quot;#adadad&quot;&gt;ECS Service&lt;/font&gt;" style="sketch=0;points=[[0,0,0],[0.25,0,0],[0.5,0,0],[0.75,0,0],[1,0,0],[0,1,0],[0.25,1,0],[0.5,1,0],[0.75,1,0],[1,1,0],[0,0.25,0],[0,0.5,0],[0,0.75,0],[1,0.25,0],[1,0.5,0],[1,0.75,0]];outlineConnect=0;fontColor=#232F3E;gradientColor=#F78E04;gradientDirection=north;fillColor=#D05C17;strokeColor=#ffffff;dashed=0;verticalLabelPosition=bottom;verticalAlign=top;align=center;html=1;fontSize=12;fontStyle=0;aspect=fixed;shape=mxgraph.aws4.resourceIcon;resIcon=mxgraph.aws4.ecs;" vertex="1" parent="9stf0OVaeOMll12Zxa0v-32">
          <mxGeometry y="34" width="31" height="31" as="geometry" />
        </mxCell>
        <mxCell id="9stf0OVaeOMll12Zxa0v-36" value="&lt;font color=&quot;#adadad&quot;&gt;ECR&lt;/font&gt;" style="sketch=0;points=[[0,0,0],[0.25,0,0],[0.5,0,0],[0.75,0,0],[1,0,0],[0,1,0],[0.25,1,0],[0.5,1,0],[0.75,1,0],[1,1,0],[0,0.25,0],[0,0.5,0],[0,0.75,0],[1,0.25,0],[1,0.5,0],[1,0.75,0]];outlineConnect=0;fontColor=#232F3E;gradientColor=#F78E04;gradientDirection=north;fillColor=#D05C17;strokeColor=#ffffff;dashed=0;verticalLabelPosition=bottom;verticalAlign=top;align=center;html=1;fontSize=12;fontStyle=0;aspect=fixed;shape=mxgraph.aws4.resourceIcon;resIcon=mxgraph.aws4.ecr;" vertex="1" parent="9stf0OVaeOMll12Zxa0v-32">
          <mxGeometry x="159.88" width="20" height="20" as="geometry" />
        </mxCell>
        <mxCell id="9stf0OVaeOMll12Zxa0v-37" value="ECS Fargate" style="rounded=1;arcSize=10;dashed=1;fillColor=none;dashPattern=1 1;strokeWidth=2;verticalAlign=top;strokeColor=#d79b00;comic=0;enumerate=0;backgroundOutline=0;snapToPoint=0;labelBackgroundColor=none;gradientColor=default;fillStyle=dots;fontColor=#FF8000;" vertex="1" parent="9stf0OVaeOMll12Zxa0v-31">
          <mxGeometry width="219.5" height="100" as="geometry" />
        </mxCell>
        <mxCell id="9stf0OVaeOMll12Zxa0v-60" value="AWS WAF" style="shape=image;verticalLabelPosition=bottom;labelBackgroundColor=none;verticalAlign=top;imageAspect=0;image=data:image/png,iVBORw0KGgoAAAANSUhEUgAAAUAAAAFACAYAAADNkKWqAAAACXBIWXMAADsMAAA7DAGzSGIKAAAgAElEQVR4nOydd7wfRbn/P7vfdvrJOclJThJKQg0kIfReFQFBuoKgqKA0QUGveq/iFQS93p8FFbxIlY4gFrg0QUUwlBBACAkkdCIlvZ3+rfP749t2dp55Zna/+z2Fe+b1Ss53Z5555tnZmffM7s4+47w1d3cBX3AcAHD80R4Bf6pG1iTHHiqZ6VIIWx27Ay5JijBVRznRYWVKkiYhp/yHr3/ZpID1apRTCpBSBPx1QttK15vPGv1FVaKYUrjT8kUyNes7HxvTFG36rmBhZLnOLBpSRUwvq6qhbVU16M9JVWlFAqUxmEyz73++K8B2G7URuZSgEICAwkWPAHypGlmTHFMEkZkWF2qK8MboD9QkTWlEEVpZUxDCICvKf/j695aqyLKHwkJOkOnlKMcnpjt/gWJbYq3RXlTbtiLb6uhEPbaar5aoyBnMh/DL6buCPtFfshC6ipFlDQ3TVPf6y+w7c32TKcNCny4laPoerViXVZHj9ciS/johAWhRal0gqDa48BAMFWqEoGW7NVsaEIIOpTUgP9RDHoKVv4ae78BcJzZ1VpbToxaV5mKGIJPOnK8pIhAEI2iuQLQQNDRvPjEEBJWjYYCg31Y9AIHIZ4JK57I6DA9BZWTWtNBoLkI10QhCIeoyE7SpV+H7xWfjIWgzE6wASalk3zWwJZIlBLWhchHtZ4Ie7Upx/oioIFg009SQWIOqKZYQpHWq7YSGZXgI8rZED0HhsZUFYFlRVBBkIwJQWysuELDBaNARAQRtHuMIYeiEISBouh2Wo2qHYOVvYAiqskEunQmC5T/adlL6waeb7aAiAkPQtsvozKhwsnYI2pZJy4aDoO3gYqM4KARdq0YXIQQZ7CiVp+i0ZqZqTUWforg+ELQevCOeCTqUrDar72aRhSBNnWqZ3gw0BOkkGwgSlOB7V+VP6GeCAj6jBS0ZsrMKLtEvN5qeCXp+0nVbXwhK/VijOAgEXV3DJqQjgyAbwR5aQlBTQzbv1qKEIGAHQaNICAja1KuQ8aWVMxlrC8FKSigI2ujx6TM1bRMEFdMcA0w1+mwgaL60IwxBNZZoPdWUOkKQyKrI2ULQrYgPMwRZOVOrDQlB4fmn1pCgjyKAIGBou6VngjaqbCEodS7VHE+U0CcqKSXNGgiqB2TX0CTZQFCQcmxnVepEb5AFXvRyGgiaxoN6QNCkrLYXI3KivvWMDQi61XR7CJquVNQQNFWuthQBssFIsxXrc6YjbCAohPXSrsgg6CndsgBHljFlM5lg6Plqvalzidr7ugoWPbzIhwfaTEFuhyOHoCFE+UzQXFjxD928Rz8EXTndDoIjsU5Q7ZOWECRSBJgL5jvSN97gEDR26AD3y9G/HTZTT9GnYUC422Hh++tPZwwDrGeC+meC1fL1g6n3wKHHTyJCKjMCCBpXEJRlI4Ig2fd8h2RdeBPpnL6E4Yeg8hZ4tN8Oh4IgUUN6uDGXu0YIVn5xchEvkdFGaOClnD8LQbqtSAMM0/Nt6hXgIEh3RFqWS1cNMncBfZdXzbJppPYQLKYLQ0OyKBD2EKR1qu2ErpXRC0H6SxCoK6Y1erlSA0NQe+p1gqCSxAwVUUHQ9na4Hktk7Bu3J5GYMpkbpq4qDfXPKOXbo9y7TBAs/9G3k+IPPt0bZaqAqpShKqwhaIs+AHWcCeqzRQlBplsqskEhyKwDNA2XJSlh7oS2EGQj6gRBAea2SBcigKD1m04rGXsI2nw2V4wq1YrQy5EFELrkOtHjSa4T22eC5StIGkfIVv/UtETGV37dlsiYLq2hIakL0G3kCFm2TtXEKJ8J0ulMRAAIunw5dhBEhBCUq7NOEBSqNdItm6azMklQrLYcKk23w6yAx6Co1wmSb4dDQBCw/3ZYXixNkzfKZ4J2l8gAwcrFtn8maMOkKCFYFhmWxdKlSpAGP79ACAgqujS2VuQsIejyVhTFh3uxNBsRBQTpnEyH0VheIwTt17sZBENAMEBFsYk2EKQbLtk1in8NbcAWgobeZe6INhBU6W5hh5CjI4CgrQMFk7LIHCiwpYWDoFmxbZuuXk/XE8eED+kzQc1JVU6DGXKigqBtqMc6wcC3w4SMHGWWkevEtiMGuR32WWQBwTLHQkPQd2BzOywqsnS6XyMnY1AhywSue0LWxhxP/xnNX4y4TB9XFVvUsGmaHQSCbEQUEKRzWn0xwisPBsGR+GwOCDIT9IFFGRzsIRhkiYwqYwtBR5FjhjqpuYSGoGSr/RcjDpvujdbXvSxsbkj1vR1W5fR1a0WC0BAksipyrnJR2fZoNxMciXWCFpmZRqmWIswHapKmNBsI2oZxf4K2ELRtK7Kt4/4E/emqFf5DGmx0O1FVCj5dStD0PVqxLqsU3LKILQQpsOjEDDSNHIJqgwsPwVChRgjazgSNIgEhOO5PsGpruT54CDLpzPmaIgJBMILmCkQLQRM22MQQEFSOQvQ/zzKYcP60uBD1TFDpXFaH4SEolakcaPTVCEEAZhBGvFg6SL0K3y8+Gw/BcX+CakRUECyaaWpIrEHVFEsI0jrVdkLDMjwEeVv4/udbBxg9BBEhBNmIACOMVlwgYIPRoCMCCI77E5Tlxv0JaqS0RgYwo8LJ2iFoWyYtGw6CtoMLdUgshI7+mWCUEGSwo1SeotOamao1FX2K4vpAcCRejFRAY11R4/4EWQgK+WDcn6D8czS8HdZ8CVKfZ4JjZp2gpiGM+xOUD8f9CVZ/mFQVw7g/Qf/RSPsTZL4EGd23w6xcQGDbQlB4/qmVI+ijCCAIGNquGPcnaAdBQcqxnVWpE71BFnjRy2kgaBoP6gFBk7LaXozIifrWMzwQdPlOWB8Imq5U1BA0Va62FAGywYz7E6TCuD9Be7hpJDWVFDkEDSHKZ4Lmwop/RsqfoEvkV4SjhuBIrBNU+6QlBIkUgXF/gv7DcX+C1fL1g6n3YNyfoPeQrAtvIp3TlxAcgq50OIwQxAhAUD20hCBROXq4MZe7RghWfnFyES+R0UZo4KWcPwtBuq1IAwzT823qFeAgSHdEWpZLVw0ydwF9l1fNsmmk9hAspgtDQ7IoEPYQpHWq7YSulfpB0LXvhPV5O2waroJAUHvqdYKgksRUUFQQtL0dHvcnaANBQtYCguU/+nZS/MGne6NMFVCVMlSFNQRt0QegjjNBfbYoIchxyyVjI4CgebgsSQlzJ7SFIBtRJwgKjPsT9B8Wo8b9CdpBsFj+uD9BOQyXP0HXH6s2ODW3LQTH/Qmqcvp+HAyClV+cnImUHoPG/Qn6YrRNt2qr3SUa9yfoPzTWm6cfE1cmFAQVXaUD5UsQ7tCbEASCw71Ymo2IAoJ0TqbDaCyvEYL2690MgiEgGKCi2EQbCNJtjewaxb+GNmALQUPvMndEGwiO+xP0WmFZWjgIUunEOsBqtfH5g90OfyifCWpOqnIaTAVFBUHbMO5PMAgEhUHOIyOqHAsNQd/BuD9BSP2nnoulNR6hbTthfZ4JRgVBNiIKCNI5x/0JajP5CEpm4yE47k9Qjhj3J6jN6UugIch4hI4eguP+BOXWpyRpSrOBoG0Y9ydoC0HbtiLbOu5P0J+uWuE/pMFGtxNVpeDTpQS17xk8QkcPQQosOjEDTSOHoNrgwkMwVKgRgrYzQaNIQAiO+xOs2lquDx6CTDpzvqaIQBCMoLkC0ULQhA02MQQEAcoZwjBAcNyfIGN1jRAEYAZhxIulg9Sr8P3is/EQHPcnqEZEBcGimaaGxBpUTbGEIK1TbSc0LMNB0JUPdbntDY4agogQgmxEgBFGKy4QsMFo0BEBBMf9Ccpy4/4ENVJaIwOYUeFk7RC0LZOWDQ5B+VM4Vnu12vhzHd1LZBjsKJWn6LRmpmqNVG+aCooSgiPxYqQCGuuKGvcnyEJQyAfj/gTln1G8HVY/hWPss++E4/4EqZRxf4Ly4bg/weoPk6piGPcn6D+qFYKuvyeNBARHuwMFQ2ZrCArPP7VyBH0UAQQBQ9sV4/4E7SAoSDm2syp1ojfIAi96OQ0ETeNBPSBoUlbbixE5Ud967CDoWQc4diBoulJRQ9BUudpSBMgGM+5PkArj/gTt4aaR1FRS5BA0hCifCZoLK/4J++2wbx3g2IDgSKwTVPukJQSJFIFxf4L+w3F/gtXy9YOp92Dcn6D3kKwLbyKd07cMZgxBECMAQfXQEoJE5ejhxlzuGiFY+cXJRbxERhuhgZdy/iwE6bYiDTBMz7epV4CDIN0RaVkuXTXI3AX0XV41y6aR2kOwmC4MDcmiQNhDkNapthO6VvQQ1KwDVJoZY1B9IPih/HaY6x6Gio4Kgra3w+P+BG0gSMhaQLD8R99Oij/4dG+UqQKqUoaqsIagLfoA1HEmqM9mC0F6VzgLsLAREUDQPFyWpIS5E9pCkI2oEwQFxv0J+g+LUeP+BO0gWCx/3J+gHGyfCbr8tZKbGX8uQpaLAILj/gRVOX0/DgbByi9OzkRKj0Hj/gR9MdqmW7XV7hKN+xP0HxrrzdOPiSsjRdJfgkgFmhu2NiIiCA73Ymk2IgoI0jmZDqOxvEYI2q93MwiGgGCAimITbSBItzWyaxT/GtqALQQNHYtjuy9y3J+g/5C+euyQI8eUIvVfgkgJSjNjtFerje+E4/4EdSdVOQ2mgqKCoG0Y9ycYBILCIOeREVWOhYag72DcnyCk/sMtlo7785D3zgKAU01V5JgIX1ZFsYAjD2LaB/QCEI7xc4riQ35GkaJGI2s6SfZQtVVvkZIznD/BUPVflBCimGh8OWJ6g1Iqx3dVpTD5ycfZItbsdzBhqxcsTvWQrF+PDPFortwZqnXCt5WqjCpLV4eqT5Si1FKqtpYuAW2Nxw6yZqX6KArzeqoRDl2JRDZ93cvChjaCKuC4fqqqoTscUduKnL5uBdxa/WnpM/rGZUYxr0eWtFqqJoqysandOkX+8TycnGkIshEnKkeqW/2BmqQpja9/Y6IsGcXtsLEQ7lDfWIX/F2GC1AkMsxEB1HA7bNtWZFvH/Qn601Ur/IeqBt+ZM3yr7goXAoLK0TBAkAILFTq+9lVMv/sOJGfvYKmmdgiqDS48BEOFGiFo+xjHKFJ3CNrI8RCs/DX0/HF/ghqpCJorEC0Ew4zx8q5wISHIFxQ9BE1vhzu+/lVM+MJpcFtb0H3N/0QGQaVzWR2Gh6AyMmtaaDSDUDVx2PwJmgJRb8L3SyfnM4JUPe5PUI2ICoJFMy1HVIOyei6WVneFCwFB28q1UVwrBMvwK4coIchGmFqtLQT/r/kTVLKYK4o865AQrPwNDEFVdtyfYEgzKpysHYJBhlsBch1gfSFYqa+IIOitGD/8ymEkZoJqu7CEIJEi4Ks3TQVFCcFh9SfoCeP+BOWePO5P0J/OGKeFoJATPXXrRuFUUCsXuhMGfyaog185jNRMMBQENZXzofYn6BEd9ydY7awWlwhszUoJ4/4E/UeVGeBYhmBsWjfaPnm8XqAUop4JauUsgG0UJypHeP6plSPoowggCBjabgB/gjahar+5osb9CVZ/2A0v4/4EvYmVjdHD+tOqJowcBHMfrMCKc76CQl+fTlEljAQETYOLthQBssGMdX+CQRSM+xOU0/XwGvcnGKawikNUfV8aGxBML1ocHIJzdtQVWRcIKrLW10wtZaz4E3Sam+FOnozYzBlIzJ1jUAAk5s5GbMYMuJO7gOZmxVbd4bg/wWr5+sHUezDuTxAAnGXbzfMcgfpZjWHTvQmOXo6JcMj0aqojH5IhtdMcTL3mV3BbWnSKKqHQ24eV55yPzJJXdEX6itEUapJjD9VPBMhSNJXjKD+0pRjl+PovJjoOqjPCRALxLTZHbLPpiE2bhti0qYh1dyM2aSLczg64nZ1wEglOoTGIbBaF9RtQWL8ehXXrUVixAvkVK5H/YAXyH7yP/LvvAdms7myUn+oh+YmGpq3RlUPXm68UvsOYzKnKyX8YdZpvcQg7Q8npuwLMRnrN5G8tHEPd0yroC05pkAHok4oKgsrRhxSCcurwQLA8OtPtJDoIup0dSOwwC4kddkBi220Q32oGYtOnw4nFKEuHLYh8Hvn330f+7eXIvf46csteRW7ZqxAbN6JSr8SUWblOIwZBwkBLCGqtCQTBYvmkpOZ8TEwKBEELAFYfwdQOQX+Ks2y7nYQUbbQ7HARN9tlWrjUE583F1KuvtIfg2ech8/JSXZHWEGTlhgOCNgAklcvXKr7VDCR3nofkLjsjufNOiE2ZQlkzakN+5SpkX1qM3KKXkH1xEfLL/xUKgpJEoNkITV49BHV6NLJ6tvtURg9Bm/4XJQRlkdohyAOQyEtcnlAQVI5CzETKqaMZgnJqHSAIKFdbX5Xk1VOS3PZ2pPbeC6l99kJq770Q6+zQlTwmQ2H9emSeeRaZhQuRXfgcRE8PADsI0m2NrlcBc0e0hSDRHGRZE19sIEiMnDaTlZGAYFUsOgh6AKiRoNUgLARtKleKHqMQZOWigKCmIejrTbUoNrUbDYcchIaPHIzk3DlwXNpB+IctiEIBuSUvI/3Y48j84wmIVatKKbVDsJISEQSHfyZo0lPVpn/0otFoYJwNCKOeCeoB6DnUV3B9IUhkVeSsIBj0meAYnwlyzwTdjgloPPxjaPr44UjuqFkK9H8sZJcuQ+aRvyD910chNm4qRmogqE6YbDoi3YNsnwlGAUGnuxuJ/fdD9vd/1Krxlj8SzwQBwBnu2+Gl2+0kVDX63qfqtcLB2IPgGH47rNRHLIaGA/dH87FHI7XXnnDikhvI8VAKIpdHduFCpO9/CJmnngIKBUUmCATpdhtuJkg0B1mW6aNOdzeaL/8p3CmTkb71NmRuvpXU5D8f25kgl67VyMkN4+2ws7Q0A2QrV//To4lL9yYYOqsmNRIIBr0dHmYImupVW4qmcuLdU9B03DFoPu5oxCZNou2rcygMDkL09kH096HQ14+kYS1gZvESuC0tcFqai38bG4fJUjkU1q7F0H0PIn3//SisWSul0W0tfEe0XSITZibohV85aCFomuHZykUxEwSsQFgrBJ2l2+4k9J1QM22kixobEPw/MBNM7DALrZ89BY0fPaTus73Cxo3Ivv0O8u++h/z7K5D74AMUVq8qrtlbuw5iaEiS714wn9W3ap8Diz9KJ+k2NsHt7IQ7aWJxQfX0qcU1h9OnI77VDLjt7fU4rUoQuTwyjz2GwTvvRv611yrxtjPBipyhcUY5EyyX6RLwK4cgM0HSkjpDcLhmgkUAGm2q70zQtnKJrIrcaIagnBo9BFP77Im2M76A1K670DbUGHLvf4DsK0uRXboM2VdfRe6tt1FYv8En5TlDwkhrAHpU6dzrA4DT2YH4VjOR2H47JHaYhfisWYhNm2o6lVAh+8KLGLz1dmSfe95rHuQDWwiqslEulna6u9GigV85jPaZYFUPD8JanglWAcjapKfacEPQfK7/926HG/bdG61nfQmpubPpckOG7JtvIf38P5F54UVkXlhUgZ1hwAXgaNtsIAB6yuEg6G23AoDbORHJnXdCYud5SOyyM+JbzWTLDBqyS17G4E03I7vwuRpngqpsFDNBp7sbLT/n4VcOQzfdguxttxuK1ACQjAwBQZNcHWeCMgA9+W1mgtLF98uNhZngCEFQTg0/E0zuvBMmXHA+UjvN1dodJBQGB5F++hmkn1qAoacXoLBmjU/Ctv6rif5GFxiAnnKCQNAr607uQnLvvYr/9tw9sueK2cVLMPDra5Bf8vIwvBixkyvC72dW8BO5HAYv+yFyTz5l6KPeQxrGrNQwzQSrIvYQdJZuO1foeh0LQaXBEXLjEAwnZ4BgfOaWmPDV89B40AFGm02h0NePoX/Mx+Cjj2FowTNAOmOot9ogGAqAnnJsIej/VTlMJpHce0+kDj4Iyf33g9vUxNpjEzLzn8DANdch/693h30m6JULB78nK7rNEAw2ExwLECwBkMjAwotOHIcg6gLB8k+npRntZ5+JlpM/WdPLDZHPI71gIQYefAiDj/8DSGdIG/T9OBgEvd9zhgagpxwbCFZ/MqNJMonUgQeg4YjDkNhj95q+axa5PIb+8EcM3ngzMDDAQrASG9FMEE7xhUdg+D3xpE9d9A4UfOrJEDUEgzwT9ACQyKC1SZVjihobEBzlb4ebjz4KEy44D7HOTqN9upBbtRr9f7oXA/fch/zatUTDZKyJAIKAGYAr9znQZlJpPRP03w57072H7qQupI4+Cg3HHIVYVxdrIxcK69Zj4OprkXn4kYAQrForyViQxu3uRssvQsJPKoisLaLIouxodaBQkTU0TMdRAEhk0MLLFpal2HEIhpKLb7EZOr/7bTTssZvRJl1Iv7gIvbf9FkP/eKKyuFdfH8xwVyMEAWDqMzUC0FNOZDNBb5QbQ/KA/dD46ZOs/BfqQvb5f6L/xz9DYeUKbYEV5BgaOgfBMPDLPvGkAXL2t8OqtWpEXT6biwqCr2wzV9TiT0tHNvJyj0PQXs510XraqWg/50twGxqMtviDEAKDjz6GvltuK9qnqRwbuNnK2UDQCMC9i881jQ08AAS1rYmdwDiIz94Bjad8GsmDDrDucN4g0mkM3nAjhu7+fWngYXpQCAgW4Xe5NfwGLq0+87MBHA/JGuWimAkCxtmg6XbYeWWb4gwwrD8te7lSTAgIKkcfUgiW/8Q33wwTL7sEqXnB3+6KQgGDf30UPdf9Brm33ibKUK0ZDn+C5TD1mSf0iagCsKiMxVtdIKicsQPEZsxA0+mfQ/Lgg0I5jMguXoL+H/4IhRUr1AK95QaAYHXmZ3ZTVoTfD5B74ilFLQ+vsX87bPInWAEgrYtuHcwltLA7HARNptlW7miHYOsJx2HCNy6EG2KpxuDj87HxyquQe/sdfSkmCNoAkFRuD8HKtTJNqhzfNdUXaQ1Bm2eCVX3yM7nYVjPQfPZZSO63D283EcTAIPqv/BUyDz5EF1guV2rA9DPBcPCrvu0t/6FLkMXqAUGb/hclBGURWVYaziLZfLjkgF9Uf6oCQhbX6vHt4iCUdDWiIsco5vUUQ/qlJVhx9vn2e4xc/atI9hhp2HfvwPBLv7QEq844G2u/9q0K/LSlFDdlUKIcKZ3WwCTBf63MjaT0i5MzbUTiMYjdE83Tbh1KlshK7TaXf+sd9PzHd7Dx/AuQfVkz2GmC09SI5J576Ass26ZUsG+Z7pRa4OfRp7RJf+bqD207qvwt1izZ34kIm/4nvImmS2u53Sa1x4g0A6xERjgT1GjA+EyQLtRtbcXUu29HvNvcwPNr12HDL6/E4AN/5gqxnglKMabbMQu5yGaCwIg8EyTP2BOZOuJwNJ97FlyLN/P5lSvRc8aZEH39No2T7INudzdafxkAft//gWedn6qv/CfamaBJT1XbaPAnSAKQ1mMLQVVOX8H1hSCRVZEbjRBM7bozplx3lXZdmsjn0XvHXdh0zfUQAwOEFksIAsqFVq4VU0FRQdD6/UKEzwQ9pbPpVRlPrXjbbFMTmr54OhpOPJ69Xj1fuTDQFyOA3Fnd7ilo/eXlgeCXLc38RrN7fZ96xkpLCAa8HY6d1znlErOgbIr/0AaCmhSyA9LGyKnDCcH8qtUYfPY5tBx+KJxkUqeomD2VRPNhh2Jw4bPIr/Z/SlYtgzvr/IqVQMxFw+67Klkzr76GtRd8E/33PQDkslJaKAgSlaOvD1s5OcIGgoBx8C7J2EwD7CCobU3soa8xZ7PILnwW2acXIL7jjuRscPDGm5H5y18rWYJ+Nlec+YWDn1cZU4p5ImKCoE/GrEejzQaCJrkAS2ScV7aZo34K5xNiLWTBTBtMAtN8bgE7qxxRKwSBYZ4Jui6m3HA1GnaZBwAQ2Rw2XXMdem66DcjnyWymeqVloK2cwCCsEYK2M8GoIWi7WJo88ibEXDR95lQ0nv75ypc62UUvoeeCr0vOVemqpG11u7vRdkUQ+F3mgZ/PahO5HB+gNWLamtVcf9vJiqEqZCmbJmAzG3x56zkiqo1G1JSAsByHoHQUm9qNaXfdhtyaNVj3ne8h+9rrtHGmzhoSgoEBSCoPBkHAot2aboU95dRnJsjLxbfbFi3/eRHciZ3Y9IUvEU4lfKDR9Pza4EcYVopiJytWENSATSlWW2N1h2AIAPIaR/NM0LZyiayK3GiDYHKHWci8+RaQzfhShweCSoymrUQNQcDcfkfDYmlttmQCsRkzkH/tDQs9UOrV7e5G6xWXW21HKnI59F9ymfmFh+fQBEGNyYqt+nakRowIBAG2ITkvbz3Htw6wHhBkGgolW0cImlk/+iBoLRdgcGFKUS50ILjZyhkgOBIvRhwEWSdIJGqz6Ttrtcxquts9NTD8+BcedME2ENTkDghBDQDJyBAQNMkxjYlYB6hfUxN+naCQEz3+Z6JcJ8iZ9mFZJyivtdKvZ1PXZKkLv5grrRxJ9aapIJt1mpVfhkVopiWAVVGDUJ3WCRaDrwVrs5UqjVxv6NEiws38vLe9dHUQK/T4jmXoo95IZp2gkA9ISUum0FIW6/8AcI1J+a6nfhBUY6WL70+pIwSJrIrcaIYgG8EeWkJQUzk2k7IoIQjYQdAoEgKCNvUqqBZsql8Ggs7UbrRe8fOA8HtCUWo1cLBy1cqwuERga1ZKcAww1eizgaD50pInzHzYGA0ESbh5EoUcK8uNQzCcnKnVhoSg8PxTK0fQRxFAEDB0aiEgBIu3wBCUOpdqjidK34LVbL5G7wnO1G60hYIfbZztTFBoISeUPzy8DPXv0RIEgvp25I0OD0ESgLrPRvwymiKMxlBy9OxiHIJRQNA0uGhLESB7kveWzeo61wjB6sfsIYoiEm0g6CndsgBHljFl80S4AeHXd8llyMx/wqdUvZeynQkaOpa5D4pq+XZw00hqKilyCHoC69oiytthU2fV96VxCEYFQUXWesxSS9EOWL4jfeMNDkFjhw5wv2w7E/T/0h0Koob1h9UCwsAvO7868zN9O9F1XKMAACAASURBVKyfCfpi1Oag2ApwzwSr5esHU++B/bfDUpkRQFB4KsXSt0/tENSYosjRIByHYBQQVA8tIUhUjh5uzHBXIwQrvzi50u0wGwJAUBtBZK12Qn1j9Z6xO3VKbfCztDXIixETBO0ukf3tMK9Ho61GCBbTiyOqFQDrNxPUZ4sSgjy8PjwQ1KK/ThBUkpgKigqCtrfDUT8T9P+iDslEYsokUJr5XfmLAPC7FNn5tDNZut5sIEjIWkCw/EffToo/+HRvlHY0UaT07cgbbYZgOcl5eavZohZ/WrSMRpZdu2i5CHN8naC+0ADrBNVDdWFYfHIX2v/tQjTsvRcQc5F9/Q1kX1mK9JKXkX72eRTWra/oEVCqnCqBOYVg6wQBCxCOMn+ClXV+U7vRfuUvEbP05Nx38aXFmV+gPkiUD12dqZGj2YGCTf+Trjx3aZdsNVuYFgtKGQytc1gcKISEoHIUuhOObgjKqeEg6E6ahO7f3sxuwpR98y0M/uMJDP7t78gte1WjmLnSNUJQ9vbLSI7At8NyVPWXO60b7UFmfmX4KaroehUw98GoF0ubBxgGgsTIaUJIlBB0lmw1uzJRtAHhcM8E9aWFg6BN5UrRYxSCrJwFBDsvuxjNRx5htLkccu++h/5778PAfQ8UZ4amTqixJSgEAbuxe1R4kXFdTLj1RsS33IK3BVX4ZUrwo9ta+D44emeCJj1VbVKZISEoARCwaCioNwRVOX0F1xeCRFZFbjRDUE4N1lmn/fWBUFtwilwOAw89jL5bbi96p2YqKCoIjiV/golddkbbT34Eh9noyg8/r2p1wmTTB+kepIegLDuab4d96hkraeCoL0FqcC/Nq9G/GDHJCTpFiQnyYoTP+OF4McJGmF6MhAxOPI7mo4/C5N/djo4fXILYtKnmTBG8GBnuz+aAcl+yfoMEQCD7wovo+ea3IYaGaPW5HPq+dyky/1A3jyoDRq4TG1vpHqR/O+wocqYXI/o+KtuhTZdstf9ixGHTvdH025vYlzsmX0JlKo4ytrPBeswEfbHsTC/cTFA5quNMcLidqlrLaeotMWt7JLfZmrWTC47jILHN1mj+5AlwUg1Iv/SSx4/hyM4ER9qfYGHlKuQWv4zURw6u+A0EyvD7fmnmx9y2kQfh+6BxhmcrF+lMsBphe8cWZiZYMwCrYrVDUE0JCMtxCIaTIw4zS15G0xGHwW1qYu00BScWQ2qXeWg67GPIvv560dt1Xeq/mjgW/AkWVq6UIChyOfSW4Kfo00DQ5na4ImdonFG+GDFDUAM2pVhtzUYGQS0AZWV8cxn3J1hNHc0QlFP5zir6+zH45NNoOuRguM21QRAA3LY2NB31cTiJBNKLFkkekpXiI4AgYAbhSPsTLM8Ekwfuj75Lfyg987OFoHpgC0FV1nYmaANB2hK/upGfCTpLZpZegnDCo2mJjLF91ReC7aeeBBQEeu66W6vYBEFg9L8dLv+Mz5yByTdcg9iEdqOdtiG/di16b7kN/X+4B8hU9zWJEoJjyZ+g09Ls2y1OleH0CAANxx8LAEjfcy8pWBsE6YJtIKjJHRCCGgCSkcEgaASgrMzcqobzmWC1wRFydYBgcpttsPndt8FJJtH/6GNY/Z+XorBpE6l4NENQTuU7qwMgudNcTL7uKjiJhNHOICG/ajU2XXU1Bh98mC6+RggCdmP3yD0TJFowm02ljtPehpb/+BaS++0Lkc6g56xzkH/nHVWRV18oCIaQY/uoN9JmoyVGkjgfm/7nAIh9uaPrEgN15KTRAkGlwRFyUUIwEce0a36FeGn1fnLmDLR+4uNIL12G3AcrSMWmizBWngkWVq1Gft16NB50AGtj0OC2NKPxkIPQsN++yC5dhsK6dWrxwwHBEXomWNVnC0G5gPiuu6D98p8gPmv7YnQ8hvjsHZF+8CFAFMgCK6WFgiChzwKCdE6/ymh3m7OFYOzcjq5LJLURQDDKZ4K0FjqxnhDs/Mq5aD38Y1K029KM1mOOgpNIYPC5fxLrCj4cEHQAZJe9isSMLZGo4c2wLsQmd6Hp2KPhtrYi88KLEKW3xfpmFAyCtl+MRL1OkOyu7ARG3welqFgMTWd+Ec3f+Drc5mZJzp04ERBA7sUX9QVCV282ECQyKm3JJ2fqgyYImuDGyPnUK8EFgn9AbAofNn+CyW23RccZnyezOq6LjrO+iOm3XA+3Y4KieDSvE2TliHrb8KOfIF+apXGh/38fQKG31yjnDU4shpZTT0bX7TchMWe21hZ/hO06wQ+LP0GnowNtV12Jxs+eCselfZk0fPZUxGbMYAtU681RZP8v+BN0SVHD9TW6GyrLRgRBtT2ockSbkRPpnL4EAoKui8k/+J60XosKTjyBQi8FsA8PBPM9Pdj401+Y7evswMoTP42hpxYYZf0hseUW6Lr+12g94/Pq+liNcbYQ/DD4ExS9vcZnsU48jqZ//yaqULXpg8L315/OGFaSY1ArTVRoldXytUVKtkbjT7D0DLAaRvPtMDvN1v+sxoS4HZ7w2VPQfuJxOmkAQGFoCB+cfb7mG9iq4g/D7XD2zbfQsPeeiHfrP+aPb74ZBu69D32/vQsim0Vq992sPrGsFOe6SO2xG5JzZiP99AKIdHrYb4dHeomMtrEWCsgtWozUUUfCice0Rce6ulDY1IP80mX8PSB09Vbf22Gzuuhvh6n+pwCwmmYJQQsAVhtc7RBUU2zlSjEBIBib2ImpV/wUrgFGa3/8cwz84wlvVq3i0QxBOZWB4NvvoOW4Y/R2OcUxd+jJp5F5cRFyb7yJxgP3N86i/SG++WZoPPSjSC98FoUNGyOFoFWIeImM/5f50KlOmTwJhY0bgaEhJPfak7MO8TmzkX7gIWBoqI4QJAy0hKDWmkAQLJYf9tthek8Qz//Gmb7htkFOrv12mLZCTaQvQLDb4Un/dgFihiUqgy8swqbbf2tt62i+HWYjPIeZlxZj6NnnWbsajzgMKN2qDf79caz96tdRGKS/f+VCfNpUdN1wDVLezj4ct8O6omiNRgXaGzzydhiogIW+M8Xg3X9A9mXNkqhScFta0Hj2l3x1or9RlevEUWRtvx02dCyL2+HqD/MdePl2mJC0aNMu3x+igWBZpL5bbnpkRLUhEU8rrCDYsNNctB77Ca4kiEwWq793qaSpUuYwQhCuA8T0t0NBICjXmb6z9tx8K2tSrL0dDfvvWzlOP/8C1n3tGxDZLJOLDm5LMyb+4idoPOrjTD8OBsHKL07OREpPZUW97zC525xXTgj0/fdPjPWZOvLjlWUyJgg6wLA+E7S7RAYIVi62/TNBb5RLC3nz2kFQBBlW6wJBGndaWQMEJ33za8bnQOuvvQHZt9422kpZFBUEC/39WHnOV5F+8SVjJ7SFIBtROhx6agFyH3ygLw9A40cOlnKnn30eGy79LzaPLjjxOCZcfBGaTzguMgja759rEAwBQfu2ok/Mv/MOBv13H77gOA6avnwOoYruQYC5D9pCkGv//nReJQNBRxG2sKNKNtcwKFhD0CK5KGMqEOYLYGWOh4f0VFsPweZDDkLjbrtw2pF99z1svP4mtnL5Tlg7BCvwW/SSR0c0EJSHE7r+++69X18WgMYD9gNc+SZj4ME/o/c2vtPqguM4mPDtb6L5lJMig6BtqMe+w4FvhwmZgVtvLzmY0IfEzvMQ32evavbAfTDI7bCs13bz9ehuhzWSSt0WI1yHEfKrrfzhWsKI3w6rcuploWUFALguJv3bV7V2lcPa//4ZRCajUWzbCcNDUIFfWUWEEGQjBDDw8F/05QBwW1uRnL2DknvTlVchs3QZm5cLE75+AZqOPdrKVhsIjiV/gpU/5ahMBv1X/g9vF4Cms8+CcKrfndhAUJWxhaCjyNGlyBDUWmMDQclWe3+CrkCI3ZaYIADr2+H6QlAocqSs7+q0fOLjSG69ldYmAOif/yT6/v64AV71g6AOfhUVwtwJbSHIyeWWv4vs8n/pywGQ2n03NXcuh/UXXwaRzbF5uTDh299E6qADmHYbDIK2IerbYVKWPVQbc2b+E8g8+xxrVnyrmUh+9CMyngydvtiXqVjPkZlIXBHwV0bomSBRPmGFEuF6YwNB0L7NsGEkttwkEwUA18XEc87kBCEKBaz96S9ptcMEwZVn6+FnWWBkEBx84inWjNScOWTu3Jtvoe+OcLfCAODEYuj84feRnLeTzjTY138x0XYmaBQJCEGbmaCJH/1XXW2Ec+PnPgs41dmRXCd0XvnFiMYESxbYzgTNEGTSiQQOIa4/NioIFivXskUZlA3X5uutRx6O5MwtWSt7770fmddf1wsMAwSHFi2yGoCingkKQi794iLWhuSOs7SXq+eGm5DfSHnTsQtOKoXOH/8XnMldqnIiwgaCgEWzjXjzdapedYfC96t8mH/jTaQf+StrUnzGlkgecnBFg81MsAIkpXH6Wo4tkSwhqA2Vixhs83Vds3Cp2MAQZOXMYdiWyPAa0Hn2F1n5QiaDdVdcpfQkk2lBgG0DwYqkzclGCEEqIrP4Zbb42OQuOC3NdGfuH0CvYTmNKcQ6OzDx//0QwrvIOgIIjtTm63ZLZIhEAQxcd4NxWUzj5z6r5JbrxBaCqmyQuY4JguU/Wq6WfvDpZjuIdYB2nVXDVVpuND0T9Pz0TrWbD9wfKYOnk57f/wm5las8hQSHYKX4iCBo9/AecDonoOXYT6DtC6eh9aQT0Xjg/oiXNywKAEG5UQrkV61Gfv0GtvjEzC2pQiAA9P/+Tyj09VuchD4k58xG+zcuNNRbMAiOxIuRCmisB0z5ZrGwchWGHnyINSe+1Uwk9txdUm3zYkSfZANBAmVM+/f+qentsJAPKMl4Jd33Olj6uERJ90aXEjUyUnaLjzCLInplqgqfLGuOHOu9+B1nfI63K5PFhmt/Q6ir6iSqURvhy6rYaVP/lUSh/fYIAND88cMw6ZL/hNuobsWYW7kKA4/PR//9DyG9eDFRO2px/nPKvfc+Yp0d2vJj3d3A4pdJWwsDA+i/9z60fubT+hOwCC0nHo/0089g6PH5TL3Z1n9V1ua7YVaNR8B3VTUymtZEHKKir5o4eMsdaDjqSPazw4aTT0J2YfWlibcfVOskfB+09b6jl6tWhuD0eGzV1qxkmqOclSsJ+nIqENXoZ6ZeqvphXiytHctKiQJAatb2aNqb/65y0x/vQW7Vao2ZvtkFY5r9TCSa2+Hkdtui64ffJ+EHAPHuKWg7+ZOYeusNmHr7TWg4+EBzob7icu+/rzcOQKzkRJbMDKDvnv9l8wNAYXDQKDPh29+C09ZqaLfBZoKVX5xc6Zmgjaog6wRtZk3+L0YKq1Yh/dDDqqAnJPfYHbGtZupVD+NM0NaLDN2XZYPMZBGKnKukExGRQ9AQhtuf4IRTT+JFCgVsuPFWjlVSgaMJgq0nnWjthCA1e0dM+cVPMeWGqxHfYnO+UE9x+VWrWL3uBNVPoldt7q23kXn9DVbHwEMPI79uPSsTm9iJCd/8OmmrLsIGgmPNn+DgHXcZX9I0HHcsb4Kh06v1ZrtYWqeMSRBKDCFGPjzQZqoshLbprNKpRQDB0eRP0G1uRtsnjmTt6PvbY8j+612qBJ/K0QfBxOab6TNoQsNuu2Lq725H2+c/C7iuvtBScYX+AVaf29xMXwNPxOBf/sbqiG+xBdb9+0UVb9G60HTEYWg4YL9yCVYzFlsIjhV/gvl330XmyadZM1KHHQo0qHcFAnbPBCspiowNBNXIkfInSLuUDTkK2UKwmG7TogwFopaZYLFG2o49Cm5TI1v6ht/cYh6FKgmjC4L0fiXm4DY0oONrX8Xk//kl3NZWfaECRi8vjuf2WwfBoaefYXWk5s5GZvES9Fz3G1YOANouOF9yDhEVBCu/OLmIl8hoI8hZTfl/gcHf3sWa4DQ1IfWxQ7V6bJfI2Ng6vEtkij/MZCmW72rFiZPiR1RvtBmCtugDUMeZINB+0gls2UPLXsXQCy/CX/tBIMjDqz4QLNdJ/6OP6QUtQuM+e6H79psQnzlDW6gYMrm58n0a5T8SQGbpMuTJHfZKGlIpJLaagd4bbkL6pcVsaYktt0DzCfItXlQQtH/AH/0SGfvBHcgtWoSc5KhDDQ1HH6XVQ7c1Bk+hIEjIWkCw/EfL1dIPPr0Y3DLvw/rT0pdhCUHDaKkuwLSRI2SJrMltt0HDDrPY8jf91rv/bzgI0ulMRAQQLNs6+PQC5Ht6OEFjSGyxOabefAOSc2aThRqfMTqO4RQFUBDIGPzbJWbNAkQBG77/Q4h0mpVtPfMMOLoN3SOAoPXXD1Yy9hAM4kBh6J572XLjs7ZHbMvNtYYKzz8bCIZ3oDBy/gTd6tmF86c1HBAsi0S9TrDN4O+v0NePTfc9oOoMAUGlbjW2qg1OlbOFoIAAsnkMPD5fL2QZ3LZWTLnmV0jtsrNSqKN5w1yxowwrAwSzr7zK6knM2AIQQO6d5ei9+TZWNtbRgZbTTlXK0/fjYBCs/OLkTKT0GFQPf4LpPz8CYXh7njz8MLkAIth+OzwW/Qm6tfrT4rIGgeBI+BNsO5p/+dH7579ADAxSlycUBOl0JiIiCA48VjsAgeLLjMlXXYHUvLlSoU4j/wxVeF+SMKeYee01Vk98880rv3tuvtX4fLPlkyfCSSWVQqOC4Gj3JygGBpD+++Ns0anDDlULoIv2HZC9ovjX0K5Hkz9Blzq7IP60ooKgRXJRxlQgzBcAAmjcZR4SzMY+ALDpnvsABPcnqBYt9HLM4MJ3QnsIDj69wPj21PY22W1sQNcVl0vPBN22NjZPodenW9N3c+/zDlZj06dVD4bS2HTVNbyt7W1oqrzhrw8EbcNI+RMcevgR1q7YlCmI7biDWgBdtK9ObPvg6PUnWPUILZ2UvT+tsepPsOVjH2XLyL7/AQaffV7inH7M06V7E4JDkMiqyNlAsNDbh7Thm92e2+/EJktHpbH2dky56grEJk0EIJDwgokI+TVrVeOIw9x7hgXVEydKx4N/fgTZN95k8zR/ml/jSdkSFIKj2Z9g9p8vIL+aWMDvCckDD1BbpwaCHzZ/gvQyGM/4Yp5MjU1/gq2HH+pPlELPg57V9IL8WS2ES5cS5GbGwytaCA4aNjFKzd4R6398OVZ/8ztW+3bEp3aj6/IfA/E44iYAVnasM0Cwt5ct2+2YIL+CFQI919/Ilp2YsSVS+5X3JpFrnW+3wSBoG4bdn6AQSP/t72yRqdLXP0EgKKfr8RT+dphvK0pC6U/QmaD6JYjmpG0iAkHQvs2wIQwEU9tvi+Rm01m9fX5vx6YOEAKCylEdITj0/D91mQEUAQgA/Q//BSvPuxCFAX5xMwCkdpqLzov+HbGyUwVNyEp7h+gbtgBQYG7FnVgM8D1vHPzb343PApuPO5pN15kWFIK2M0GjSEAImmaC6cf454Cx6dMRmzHDl42HYOWvodOPdn+CmhmgV0wzd6szBIuVa9miDMr8KpoP3J/VlP1gBYbKH+8TtUaPE+EhqKbTEbVAML14CTv7iE3sRGxK8Zno0IKFWHnOV6y2sWw9/li4xBcFFTOyWeTefZ+Ye9G2Fnr5XfCchpScu1BA352/Y/M07LcvnNZWbeOMZhCqJhqbbcSLpU31mnv5FeTXaPaNLgXvHsO2EPww+BNUP4Xz6DKGqCDIylmYUWlwdhBsPnA/Vl/fXx+1K5eKCQFB28HFRrGuMxd6eo3u65PbbVP5nX7xJay+MNw2lt6QXf4uUChYn5PpZY2TSim5Bx54iLXTSSTQ+JGDifI11yACCI42f4KZ+U+ytiR8zkBsIVj5GxiCqmyQuY4JguU/PN9EcSG0Gb5lYjK1oIuwgSATipVrGlJLshYQdJoa0bTrzqyevn/4G4unMjw/x9rb4cwyfplJclvZH+Lg089gzXcvYfOYQmaZZ22fYLFTPCwUeIVE3RY2bsKgYa1jw8EHegd/UmGUEBxt/gQzTy9gi0nM2wlIyTN5+Yxp6lTL9GagIUgn2UCQQBnfsQx9tBpZ2RPEpK+sjidqNYJvTN5o/QijZI8Ago277gonkdCmF4aGMPDMs/wI4zkaCQgSWRU5qv5NHlcSM7ZU4vofegQbrrmBzceFzBLf22fDSTous8E7APhmiOXcgwZ38A177gG3IaXEx7fZGq1nfRHt/3YhGo88AiKVtLLVBoKAHQSNIiEg6Neaef6F6i6GRHASCSTmzjZzpgYIVlJCQdBGj08fzWxJzPUabIEXvZwGgqb6qAcEOWVNHm+4VBhY+BxEOlPRoB3LfIPiWIBg5s23dMIAgLjmxdDG/7kaA4/9g82rC+nFSyjTiKGkGLSfr5UlMxmykw49+TT7TbKTTCKx887VayqAls+fhsm334y2M89Ay6c/hc7v/yem3HU7EjvPs5qx2EIQMDTb4fAnmE4j+yK/kVZi3jxObVWzBoLqgbb3RDYTrNWfYHUdYEh/Wryc7zJEBUFD4J4JNu25mxLnDQMLng1YWPGPxnfuqIJg7t33dIIAgHhXlzZtzXcvQTagZ5lCX598CyybRkLQ5JmnuDey2uoLQ0MYWvgsm7ehNPg5AJK77YL288+F48rvAePTp2HSr69A8yme9YM1QnC0+BPM/PMFtuzEzjtVdRCDDB/hSzJ0erXeRsafoMcjdHUuY4avQJBvh0eLP0EnmUDjnNlsngHvejnt6KG2Dt0IM5ogmH3P8KVFV5dWT6GnF2u+9R3jSwpvGHr2+dItq/6iSylxt/i2VhNEOg3kynsJqxAcWsjvjZvcZV45J5rKnlCI4MTjmPD1C9B64flWMxZbCI60P8GsYQe/+I47AMzmUkrr1MyBxpI/QY1HaPvbYa5MrbYaIVhMt2lRsubUrO3hJJnnfwMDGDI+s/ImqGSja2V0QFD096PQr9+AyG1qJHdwK4f0S0uw8fqbtPn9YXCB18efGYKxri44zFQpv36DOhB5ItImAG63LRAvPmNMGDbAAoDWz5yCtgghWPnFydXRn2Bu6TLWi46TTCK+9UxwjVU+Y5o6ZQjKGcheobVVOtJCkJ6I0LJ0uroO0ARB8oQ1tUBImQYFWwjaog9AZSbYOHcOKze4+GV6xsLCjTYqSggKJZ2OsIFgfsNGnQCA4npArz9Bf9h4zXXIvMbsi+wJA4/NV4FFmwYBIDZ5Mp1eCuVPunQQzL75FruO0EmlKuCLT+UXb5dD62dOQcvpn4sMgiPqTzCXRXYp73EnPmt7OTPxls88MOvaLIOnUBAkZC0gWP4jYFwHaAPBIu/Hgj/Bhrk7srJDL3kf2NvZqsNilM8E6XQmglFsAqDT0lxVQunJ5bHmkh9AGJarpJe8gvzKVYQa/UWPE2+hpaI9m1LpIKh95lgKiW22htPaCredd+DgDW3nnoWGAw+QipNDcAiOlD/B3NKlrK7YrFkl2RL5yhm1TUzfT4Xnnw0ER8KfoP5LEFsIVs5u9PsTNDk/HVQcBtBX3TgYCd/F9wuEgKCiS1PRaoPzSRn8w7meT810Gy1llryC3rv/yOrp9y4mt4Rg0rdTmT/kSvuy0FqKhWSWLmN1xGfMIJf7cMFxHHRcchHcKVOYfhwMgpVfnFwd/AnmTPWz7TY+ffrGagNBYHT7E3R90Rq9DATHij9Bx0Fya76DDS15JbBTVZ8VWvuUmBAQNCvWttBqVOUlgia4/sfC9O3whv+5WjubLAwMoO/e+xRbTBA0PZfLvr3ccIoCubeXszoSW26BhOeLF9vgtrai45KL5DJrhOBI+BPMvmrwuUgODnq9NhCkB266BwFUNw4HQUPHAkRpHWCZY6Eh6DsYjf4Ek1tsDjelLoQth8LAALKlZSLhIeiTKQmMpi9GjJ+audRNgdpZCxs3YfW/X6S8VBGZDNZ+52IU1m+g1LAQTM7hH1Fk33qbyiYd5t6VZ4n+EOuegqThTkAXUrvvhqZjjpLLrBGCtiGqZ4L599/nX4Q0NMAtObeoNmFPC2a7tllGrhMGrFJS/fwJxsu/yzuwl2GoyHI7sJcL8ewoz+upRkjayEw+jVJZRNA8ZU5ty88u0m/Ii4RVNT7jPOaoW/7Icvq6lWM0p19KqKYS1aiN8GVlBwEAzDe1pRPxlDO0YCHeO/5ktB57NOLTpyL3/gr03fcA8itW6M6EUFM0Lr7lFogxjlVFNiv7/qMvB3Lv8WsdY91T4DDOG0yh7bxzMfi3v6teri3rXw0CotRAjC9HTG9QKm2S7KXFUBDILV+OxHbbadXEZ8xARlrz6QUL3QeV1kmcs3eiVa0TpnIkGVWWrg6il5Wi1FIE4n6DHVKFbAxTvR7hIt7g16U03GoEVx8MVtWSRalkT+0kttyCzZcmPhOrDYKoxgryZ7UQz9UJAkF4ZS07odvcDC5wHmBEiV7eOsmvXIWN11yvCjtMKyEg2LAL/3125tXXgVwWml5XtWfdegghtMtpYh0dxEbt9iHW2YGWz5yC3mtvoMZ9TwgGQVO7rkgy5+ZVxfXS/FvvsACMTZe/CNIO05pByAaC8gF9/uXZItcH9RCEzjgpuNXU4h8vpWmLlJ9yJDP9NUWYZsaSlHZqS4ekYYPwzHL61inI7TBrkinRVLeVBKFGaTMK+ZcA3NYWzhAUenoD2cqJsYI+NQ377KkVBYDMkvIberr+yz9FPg/R28vq4gBS6OszPidtOeVkONRAYlH/+jB8/gRNXwS506Zy1cwmCP8vhgdyndAlyC9GNCZYsoB6MeJ54CNDUK+l/F+wxdLDDcHyTLBcO4nNeQeoWebZkS0EaStUstGwDA9B3hZPk3QcxLu79XlRnEHxBpSuvE1HFYZWUlbjOGjYmwfg4LPPq51Lc2ha6sOFoSeeQu9Nt7Aybkszmk84ji6+RggCMIOwxsXS+Q8MXwSVHdwS1Sx8v3RyPiNI82zeDpfl6uVP0FVSfX+0eks/+HRDiAqCrFwxJKfzAMz86z29IthD0PbUadlwWKga3QAAIABJREFUELQdXOLdU4xfwkieoCOAICwgmNxlZ8Ta2/UiQiD9nN+jtR6CpqU+XBha8Ax6brxFWnNIheYTj1PusHSmhYFgPRdLF0wAnOoZJDXwUhJDQrDyNzAEVdkw/gSJV36ywTW9HRbywUj6E4xPnsTKZT9YEcipKmmc9loLOZGt2/pB0LTOrugwNdiWm3Y+73gINhs2qMq8vBSFTT2VqtGedbmKM+GcuIpCAUNPPg2k0+i9/kZWNj59GlJ77Ka3pkYI1tOfYH4lD3fXt/mU3lZfC2YhSA+YFbhJGegeRCfZQJCYJZUOmU2RoLOZtIrvqOUwMv4EkUzwbxgLBeRKt371g6AaK118f0odINiwK+3uqBwylTV09hA0NxKvGCHoOGj66CFsVsnZqUX9h/VinVm0uLh8RwD9992P/Np1rHzjEYcrcVFCELCDoFHEB8HC+vXsLbTT1gbE6JtD72H1BaYNBPXG2kKwkhIKgrQet1Z/WlYQlISH359gfBI/+8uvW094Io4GgtqxzDcoDgcEG3ffVacFAJB+xfuZVLCZYFgINu67N+KT9W64AGDA7+1ZKc6yxRvCgNepajaH/j/dw8o3HnhAaeG4fKX5dhscgoChUwf1J5jPQ2zcpBV1HAdOR4dqHAkvfQtWs/kavU410+lt6hXQ1ZfaIz3+AHUZ5HQ9vIoMt4ObRlJzUrVCMDaxk85YCrk1a2V9ApHNBI2hJEc/8okOgm57Oxrm7cSakn7J77y0PhD0CrYcfwwrnl2+HFnK+QIDQcfr1dkyiGwWg75NxPv/9wE2j9vehuTcuRbK9RE2EKyHP8HC+vWsHrejoyJrV4DvgagpG9uWvOnM9ExKUu+lbGaC1U/htO1XBov+mWB1JDDDV6B8O2yumNr9CcYMSz/ym+itGKO8HWZnLIJsM3IindOXoIdg65FH8FsBDAxiiPLeXAcIlt8Ou52daDr4IFa2/4E/6wvVQNBJBAfg4N8fV9pB/oMVxg3lU5KHcdUamxmLLQSj9CdYMC0VamnWtybi0He/Zsimn6wUyWAHQcB7ysL3159OW6L4AzRB0GaE0UJQEWZp5jm0G4V0EHQZJ5sAkDc0higgSOtUyUbXSu0QbD2Bn2kNLnwW0L48qM9MsPWUT8FJxPUiQqD/oYerGTR6/NhxiL0/TKH3rrvJUoae4HdTS+26C9TK0Qx3NUKw8ouTs1wiI/oM2482+dc5mtt1tf/pG6t8xnRbKUNQzkD2Ck2SLQSFbyE0tDZVZdiOKltlgK8nSlubipRpUKAgGGsxfP1gAGD9ZoL6bFFCsOmQg9Cw4w5cyej7y6OGThjt22EnlULbSSeyMkMLn6t8n80WKuS6jXUE+9IjvfhlZDz7ZXhLGXr6GTWDJyR2nAXhOMTFrQ8Eo/InWOjTO8YFimsd1bmE7eDuSSRuGU3dRYkydHq63mwgCM+ncP68+u+xKn9CfzanIN6hJRXlvggBzHmbv0WxCRNOPA4TTjzOLAhg6bb0czTbz+aInKW/cqL+mWDAz+YcBxMvPJ/UVg6FwUH0PfI3K1ulq6SVU231h9ZPHo+Y4ZO03rv/SKjRFFqOjsVYt/pU6Ln+N9rLlX31VYh0urIfsT+4TU1IbLE5ssv/ZfkxG9h27b10uszct8PdC/jtQW1D2/cuQtv3LjLKrdnvYHI9pFOmg+ZDeN8ZazFUDqZvh8sQrNaJSidq8FBngB5h00zQbjZTZ3+Cwx6imQmy6j0zmlpngu0nn2h0BNH30MMQA/3e4iObCVLpTkMKE770Bdam3KrVGPj7Y5UyNPMpf4FwJrTz38r6QnrRYgzNf5IqpHiYyyNjciG11Ux5UNDMWJgkKcJmJlj5NbKdoRjIGZxQE7UzQb5j2NwOl+WCPhNUP4WjLaQTTB3RBoLq2VnYIUw56hzqAUEad1pZCwi67RMw8QJ+9ieEwIYbb2VtpSwKAkF/nbSd/CnE/IttfaHn9juBnMd1lyUE41OmsHolDUJgw89/KeskqiBn2k50i80NV09jeY0QHBXwKwdLYOtT9BCk2xrdgwBzH/Sma1Y72oww8kywpi9GfAdB/AkOd1BHGE5GIxtgJgiEXyw98ctnImZw/d7/8F+rfvY8mqKcCXo7q9PYgPbTP8faVOjrQ+/v/0SpMUIwvhnv9MIb+v/3fmReWqLq9KnNvP0Oqyc2bZpqlcK9+kBwVAWimRejPC2Y7dpmGblObPugfomM5lM4RxFm5ybCZ6BGjIWgdFL2X4yMRIhynaB+HKse6utWj4NYV5fxJUMhncban/6ihk4Y/IuRtk9/CrHODtaunjvugtDtXmeAoG5zd3/Ir1mLjZdfodEiF5JfuYrVFeuqLrRXe49FiGAmOHKzQbpd05GeRq/NxkMwyBIZVUaFoBv02zltKexsRTbGfK1ERW6UMI8Mw/LtMLQ/q4UQ6Z1nnWF0frrxxluRKzu+HA4INjag/Qv87C/f04tNN9/GtxIGgvFp5t3ehBBY971Li66/LArJr17D6vMvtFfGc/pATVK0eH6ZBpcRDKZlatoBqwYIyun66ZmpD7oghehgOxMcfn+CIxdGYokMmehJd1pb0Pap47kMyL7/AdZf+xsDvKKFYNvJnzQuUem55bbi1pamXq+BILfYu1LGdb/B0IKFiq3qNSgWUtho2kmvhbfVNtQIwZGYBVaBFASCNnI8BCt/DRA0+ROUvgShi1IttIGgNlSsjtqf4EiH2iFI61RHDRqW1YpvPfpI4+xv3a+uhhgivD/XC4Kui7ZTTmJtyvf0YNPtd1VVCEMrISCYeYXf9nHgL3/Dpl9fq+jRHwoUvO7vieA2NZGVw88ENeWNwZmgAi3mUPh+8dlqnwlWJmRKJRcjpGX41t8cCmiWeJWK8/wBCLmK9TbrBHk7Fs/0b6TjyGU6QMfJJ2L6jy7Vqtlw1x/wwXcuJtMcwFgplQf8zAKu8O71mXIV2eKFaT+Rn/1l3lmO3vuq37kqekwRWiP16wSbDj4QCcPtac8td6jP/gQgArjX77v3PrSedgoShP/HwSeewtqLLq5mtDonGP0LVr48KRPKthMVc6vFM/UvwK8TXLHX/gAcowlt3/02mj5xpDZ902U/wtCDD1XKYTfB8LRbpUcTtvrOhpRTZBg9cp2QvaICQX8fdJXRKMBMkA4ytWt6O+wbPsP6E8z38p/9cJ/KFdu00FWMLGsYoofDn2Bym63QsCO/69mG624E8gUpt8k0ZewOOBNsP/Vk1qZ8Ty823XGnTqX1TFAMDmLVF88pftpXjstksOk3t2D1hd+AyGatZixy8zNdez8c1BmeVG9UBemjaTnWJPOLEbeF/z6+MhBVmh1f/+U/DiWrzeprwdpspUrTdH+bFyO6pLispnRkOYjp5arUFpweD7W1Y7xkmv1uc159hV7+s59YazM/A6iYaa6YooheWW0zQd91grrevfnA/Vj7Cv396C1/X+ubTjATDyWCn4nI9R/fbDM07rUHa1fvXXdDcJ9nCVjPBPMrV2H1WechNnky3AkTkFv+L3kryACzW6ZZVINLTU3UnLbzwihmgmVZXZN1DJ+HlhfGe4tlt0NT2q25XlHR50k01T9xzlI/8DDFpg9qF0LbzgTHgj9Bk7ODirNU8yBnMRvQGlRNMU232DqTE4Uci+YDeAD2PvAwhHfnN990wmSa/Uykep1ajjyCtUkUCuj53R9ZmXKBQZ4J5levRva119V9cJU2a5ixxGK8WVliEyWicoTnn5wkX2npKHT9+2R9cqYZoPLcs9LszJ2kar+hXiV9TH+RftHAUapTo9Of5AGgekNVe18XSroeXuTkWZspyO1wbgOxSbcnxCZNJG21MIOWE4jsdthcWPGPA8BJJtGw2y6seN9fH9XoqB8EWz7BA3Bw/lPIrVxpd86mXm+Cm62c59BpbuJNGhrSt1uiE0m3bNbnTEfYQJD8BraT95EpqDffASDoKZ1NrwbftM+UzWQCA0GvDDEDtIEgQVYazPDUGgDumWC1fH1j8h7Yfztscm0enzRJHrEMlWt0N1SWjQiC6nmqcgJAYtut4Sb1vvAK6TQGFj6nMUbWGxUEkztsj+TMGVqbAKDnd78v6dE2IrlkYe6EUULQtJdy+W26zRymfKS5OVOO9P04OASlT8AMi9Hz6zWThgAQ1LYm4nCk/AkyC6E9R2YiVaJMEDRcp8oPcz9ghk9fdL6vDwVqyUcpuKkk3LY2awgW04WuYswG+dSwstqsvvMXQGqWfrNrABh6YRFEOs2rjBiCzR85iLUpv34DBp54yqPHDoIYRgi6zH4yAFDYVHUvr+9OtnBjhrsaIVgJbe1w4no/jIWBAYDpL0EgqI3QwItq13S2khwDQTmDKijALoS2gSAhawHB8h++2Ghvh/1u7/0hMa3bk80MQVv0AajjTFAODdvxAEwvfVVXgq8spZlpTTN1wqYD9mdt6n/0MWU/liC7zZkuUhAI6tAfM+wpU9gg769hC0ElianoqCAoBBDvnswJobBufbA9Rowyqq3UIZlI3DKaB2ZdVaqCzEJo22eCEm+1BkkJ+nPz5bd1oOAYIZh5n98LNen5hjQQBA09VV2AaSNHyLJ1WkyMT5+mEwIApF99jRtcfQm1j+6xiZ1IzeYdsfb/5W+aFO1IKksJcye0haAuwvutLxXyG9bbXS6iXsu9J8iAWisEY1P59Zj5lSv1RZEa7SFo89lcMapUK0IvRxZA6JLrRBZUXOKrB7YQ9MVo22/VYJsBwAjBytnxzwQzkmdhNSS32JzIFg0EyyL1WydYDHHD5k+Zf70Lf8XbQlCpW42t3gbXuM9erG++fE8vBp/RPJNE6crb9cDIICifZ/FXbAo/Yyo6S1Bt1bZboVoj3bJpOiuTpFrNVEfMMFDmK9+HC8VWnUFRrxMcLn+CEgCJa0OWbAtBQ+8yd0QbCKpnR8pl33tfnw4VgFWNdhAUw/xMkBhyjLvf5Ss7gYWDIJ2uj2jYhX8jPbTwOSCXMxRhfztcr5lgfMst2KJzK1ZWZK0gSKSQg7cmpVYIxgwec/IrVkrHNnuMFP/YQzBARbGJNhCkB+7iD3Jj9Npuh31mWUCwOjIwKjkI+g4oycw77+oMAQCt12RbCFokF2X0rZeQ0chqzDGt7cpv8C5tCAdBk2neGjNtxD747PMWBhQTR/KZYMIEwPKMiS5E3241J1U5DbrnykchIBifOYMstxzy76uThaifCQpKljgsRnnowALOLCPXCfEpXCWJrHxbCDqKHHOppTYTGoJSi1D9CQ698SZpQTk0bLuNYVLgu3q6MKK3w3zZIs9v/h4lBN3WFiS34V3xDy58luvjaiEWEDTVaxAIAgBiMcSJ74q9Ibt8uarTBoJEitp7LEJACCa2msmqy+kcwEY4EwSCzAR9dCD6oC0E/UtktHuCABzgbGRsW4BscOiZIFG+14r0G29BFPwAqIb4pIlFV002EDSVPOLfDmuCQzia1fgTVI2RU5Ur7MuY2mF7/vnfpk3IvP4GlOvJ9h27mWCUL0biM2ewW3cWentRWEdtMm4JQaINKOM5faAmaUqTOnxnB9z2dsqSomw+j9zyf+nTI74dJmXZQ31jDQLB8oHL1CAbLYlY9sCR9Cco0mnjc8CGOTsyyn0QtKYOHyKFoHcPDSLo98sNB0HlyHOQ3HYb1pb0slc9R8E9SxuDoV5tIZictT1bTPbNtyUNis6QEAwVLCCYMCyVyr//AZDV7Q+tKUYjEOUzQb5NUoc8BMt/XVlIlaavDXGpbYlkCUFtqBgU3J/g4CuvstKNc2dbjgdmCBbNFPajQwQQzOlW75dCvLQRET1OhIcgZYsJgJll/p3Wot98PYqZoAmAmdffMM9YQkJQuk7KgUafAYIJw/7Q2dffMDdbYbf5evGPHQT9v3SHwveLz8ZD0EF5IbQkZAtBNTJIXzdBsPyHL9Z+sTQADC5ewprVOG+OXz1jpclI+zE9qmeC+bX8Yu94V5fBvnAQpEwzPf9Lk1tNRg9B1AjB5Gy/v0k5VBywmkZtWwgGGjA114BpK4kdeFdp2aXLANh6g4p+sbTdEhkiMSQE3TIJbSA4pp4JEsPnwEs8AJt2nmdtp+AS/XLD9EzQ9LVLcusZUr3QdRsNBBOb8WvNsq/rtpqM/plgaAgmk8aF3JlXlinZyj8VnbZdgLCmok9RHAyCiTmztaUCZQAG2GipDktkhtOfYGUGaP0BcWgIErksIGgzwrDV60kYXPwya09icheSM7ZU9dlA0Hx96w5B0/aN/m+FpevuT6kBgk4yafx8LPP+B6xiWwiaG4lXLBgEU3N2ZPcYKQwNIfumb3UB23ctIahpA7b+BHXK41tuzu7IJ4RAtvJsttS6LerWKBICgqaKEhV9thCkI1wynoGggK5SbCBIjIva9iuUP3yx5meC+Y0bMfQ6vxymec/dJX1240G0EDQp00FwSHmuJoeGuXPgr9CyqighGJ/azb4BLvT3o7Bpk66fVzTZQrBet8OpXXdm1WUWLwHyedW4gMC2haDw/FMrR9BHHrnkLvz55N5+G6LP6z3do5M7p9IzQZvJymjzJ0gvhJZyafCkRI8Nf4L93sW3RGje2+u52HcZooKgIYR9Juh1dkCF1NZbIe7/rKukR+ueKQQETd/OZj3fZY8EBE0XqZzauNeerKqhf76oN46ttwAQjNCfYHJX/suczAuLyMyUP0FDUWziaPInqABQIOztME3i0eZPsP+ZZ6nUSmjZf18lo1RmBBCslz/B3KpVyPo+Y/KHost8tXXo+1JwCMY6TL7m1kuahhuCNm+H0dKM1C78lyzp51/wt3ZVj+enImvbt4lSAvsThIOUYVuCzAsvalIsnwkGuF8eLf4EXcoOqYKZnq8ZoBTZ0eRPsK+8H6wmJLomocG3VMB2FLKFYDHdpkUZCoSqot/jW48KrRX39L76F2RsNTEABN0J+oW2AFDY1KNoGm4IwgDB5o8cwvvMGxxCetFiok3adsKKEZy4J5KBm1I5qmxih+2NA1PmeR0A5UKGc4mMNkLDLV27Vg+Lci4lpEQxEARqgSAhawHB8h++WLp6cytXY+i11zlj0HrIgeQF0Dc6f/FmCNqiD0CgmWD/P55kdTXtvSfiU7uNRtUCwVibfpc9oPgsltIUJQRr/Xa45dhPsFmHFj5b3WtE+Nvj8EBQSWIqKLXvPmTecsi+/gby69YZZxi2t8NjxZ+gS5QiCVbqNTAER68/wd7HntAVAABo+9hHNHbYXYBAEIzYn2D/k0+jkMlo5RzXxYSTTvTpVPXW8kzQMWzKXlC2KbVt2NG/HaZuhxPbbYuG3XZl8w0+Pl8pjo2oEwTLvcd0qg0HHcCmDz39jK4IxYggNy9245A9BKP2Jyh/C6yxw+Z2WI2mSx4N/gR7/Y3XF5rmza1u4k00bJtOGCUEyyI2M8FCXx/6/vp3VteEz35av89FqQVJg59fwABBp6GBLV9kKRdY1RrjT7P+t8Ptp5/Gi2cyGPgLvbmUXGd1gmBAf4Kxqd3GL1rSTy+Qy7XrXMbb4dHuT9BVLhapjDogu8aY8CfY/8xzyPfwW2W2HX4oo1zI0RFAMEp/gpv+cA+bO9bWhgmnnUJZYVkaD0EnqV87BwCi/K2ppl6ZgisJQSAYZLF0Yput0XzEYazowKOPodDbQycGPKdQEKRzaq9e4yEHabUARYcOmRcXSRpsIGi/3tcgGAKCASqKTXTlZDME5YrRVLkSPbr8CYpsFj2PPq5TDACYcPSRGj2ytqggaJFclDEVCKDviaeRlXzUqWHiWV9EbHKXXsDTowIvljadZ86zjy4zuPCdMNjtsC0EJ37nm3BccnVYJfT+4U98ocIPpDpAUD/bqNZbKbnxsENJuXIYmv9kaT2jXJoNBG3DaPUnSCyE5iFou0RmtPsT3PTQI6TGcmjadR6SfkeYRGdVdq3XFu+7eroQxe1woYB1197I6nCbmzD5P75Bg813qK9bdRZSMZAL/rerGghWfkUEQVN/bT35k8Znf+klr2BIWkvKXnR9RBQQpHNKbTK+5RbG75mHHn1Mq9MGgiPx2RwQjT9BxSW+Ikiosn0mOJq/He59bH5x+z8mTDjhGIt2HOLtMBOKA7tdi+IguPHuPxq/DW476gi0Hn6oBmxCPlR/Vo3wpxcMbrkSCfUKDwMEudvh+NRudH7tK/rMpbDphpsIPukvOisXENj6dq2WUo5p/Di/KX1hYABDC56pof6NibLkKPMnqKwDtIVg5a9dz2fDSPgTLAwNYdPDuh3JiqHjhGM1TkTpiEAQtG8zbNBBUGQyWHftb4z5u394CRLTp1FDjk+hIVGq2zRbpvf72uGGIAUWJ5lE109+BLepicuI9EtLMFCeLdUBguo1CA9BAIDjoOkoHoBDf38cSGc0yoNB0HYmaBQJCMFa/AmS6wBtIWi7WJquWN+l1l5Z1TgbCGpDxSCBDX+8l5NEcvPpaDlwX692pTh/RFQQLJpp2aI0ytbfdifShm+fY62tmP6rn8Ntpjq/r/4FGVtNLEWaZtZ0WXIZVERUEPS/HZ502ffQsNMcfYZSWP+TnyumBYGg0q+sDsNDMLXfPoh3a9Z8lsLAg3+OaBCqJo4lf4IuJ6wpRZGRK8YWgmrkcPsT7H3iKWRXr2GLmviZT7N2UBGBIcjKmYP2mWAuh5Xf/y9j/oYdZ2H6FT8D4nHrMmn7ihemMDDI5ou1tUm5bQcXpuBKQlAITvjyWWj5+OF6wVLovfc+pF9aTCmyhiAbYQKLLQQ9naj5xOM4pcivWYN06Xlm1BAcK/4E5U2RWAjS1BEYw/4ECwVs+AM/C2z76MFITOtGsWrZ2qQjbCDIhGK9mobUkizROgeeeRYbDTNdAGjef19M//mPK8/nVCtUYOveDsu7z6nBbW9TepItBCvFRwDB9nO+iI5zzmRtBYDc6jVY/5PL9QIBICi3ZH1bUVu8JQRLKbGp3WjYz/9duxwG7n8IENV9cqKE4FjxJ+jW6k9LLtibHmRaYwNBIpcFBE0jzLo77mKn404shklfKC+MJZ4HeorzRth0QgmC5usbGoIrv/9fyDAb3ZRD62EfxWbX/ApOY6PGHLWbUxCs7j9Mh7Jr/rAQJLIqcqb677zwfHSedw5rJ1Ccpaz93qUo9PQZO6EtBNkI9tASggJoOeUkdjmPKBTQ/yd1vWiUEATs+rJRJAQEbepVQMCt1Z8WqZ+BoICuUmwgSIyLWsgJ5Q8ll1n+Lvrm89/Pdp7yKbgtzahWm744b4RU5jBC0K9MDAzi/Qu+BZHhN7sBgOb99saM392KxIwtNXUmVyjVekwAjE3xrD8cbggmEui69HuY8MUvsDaWw8Zrb8DgUwsqOqKCICtnAotB3GlpRvOxR3NKkF6w0LMBunyl+XYbHIKAodmOoD9BzxARzp+W1g5Dzx9N/gTX3nonqz7W2oLOUz7l02waBaoRkUPQEKhngkMvv4IVF19mlT+13baY8YffejzHcIUV/3gf+eRWrmazxDo6ZE/LwwTB2JQpmH7LDWg9/hjWvnIYmP8kNl51LVH08EKQHISY/tl8wvH6Tx1Loe/3f9TPCojidBE2EBzN/gQrX4KE9adFlT/W/An2PPI3pN/hbxG7zjwDTrL8kX/xLMn2Q0SMFn+Cm35/D9ZccZVV3lhLM6b//P9h+q8uhztporGzeuui0NuLQr/+TbDjOIhP9+0ZUmcINh1yEDb73W1IzeEXBZdD+pVlWP2Nb5MN0MafYD0gqMgS4k5DCq3KZ45yyP7rXaTJux7VGn27DQ7B0ehPkFgI7atqFoI0dcoQlDOQ49jo8CcoBNbccDOZsxwSk7sw8dST+PJ9xVUP+YFFjjZDsJhu06LUAtdeeTU23PV7y3xA68c+iq0evAdtyi0V3U7KsV6vz1RIbLm5xsxoIei2t2Py/7sM3Vf+jN0Pwxuy7yzHqvMuhBhk3maPAATVQ7VBN514PGKdnXq7APTdcad8y6lMRDQW1QjByi9Obpj9CTIfPZYkDP606AiiTnWCqAWChKwFBMt/vHIbfvdH5DZu4gpB17lfgpNMEppNFVCVMlSFNQRt0QdAmQmu/O6lWH/LHdb5Y+1tmPbjH2CzW65HcvttrYzKLF/O6kzM2JLRoQyzZBn+CCmr46D1+GOw+b13o/Woj7O2eEPmneX44PSzkVu7zixs6vUBIWgzY1EPq4U4qRTaPs97sslv3ISB+x9U9RkqOioIjjZ/guSXIMUoO39aXGcVnn/BITi8/gQLg4NYe+OtuowAgMSUyZh0+mlEQ3GsIWhjZyAIhvQnuOqy/8aaK69m8/pD8157YMaf7sLki7/j8fqszhiA4iyKC6lttzFcpvCje+Oee2Czu+/A5MsuRnzSRNYOb0gvXYYVXzirtL+ydiSVSxbmTmgLQTbCAoItp56M2ETD7O/OuyA8X+qUe0+QATUKCI4Wf4KMR2iCfCEgCIwdf4JrbrgZecVZpxwmf/ksxNrbfeaVIWhux8olGAYIlkX8M8G1V1yFD755EQpDQ8b85eDEYug49WRs9cj96DzzdDiNjapBAsYvUFLbbVO1nzRYTjVMUAAINO6zF6bddC2m/eZqZQtQUxh4agE++MJZRa/IFY12EIQA2r74eSTnavbcDQBB+TztIei2t6LtC59jzSz09qLvt79T2os0hZAMUOX0XTgYBCu/OLlh8Ceo/RKE1MCm6Dsr3XAJaMEOcPXyJ1jo6cXaG2/RZQJQvB2c/JWzq5lUulvYIeToCCAY1p/gpnvuwzuf/AwyhhmbP8Ta29D1jQux1V8fQMfnP1PyAVjVm37tDTZ/crttK15hbCFIpifiaDnqCGx2562Yfv1VaNxjtwBnUQwbb7oNK8/9KgTxCZ+NP8EJ556Jzq+eh+5fX4nUXM0ndQEgyEZoDtvOPKO0VEsf+u64C6Kvn1REDt6alKggOBr8CTrPdM2UcxH35066Y26xAAAgAElEQVRlkuwwMr5fGpmKFscn75eVon3lkzJ6Wf0zh6qt5Vzx9nbs8MRfEGtv02WCyGbx2mHHIP3WO8QpFDU5fCVJEYaqkKUMz0+4/XirMmqBbkszpnznW5jwqeON+amQXbUK66+/CZt+fw/EwCCQiGO7fz7NOkddfsIpSC9dVrVLa7Cc6gBIbLkFWo8/Bm0nHoe44bZPF/I9vVh7yQ/R/8hfDQYUE6mqnXDumeg496zKcaGvDyvP+Qoyi1/WqfG3Yq2cnOqQ6QAQnzkDU++8DU6C2cSppwcrjj7Rt+8vlM6h9B6lbRNHmnZd+RWiXmlRslcpxbJSvqTYmc0TLuEqVz10LOTqAUGNNRYy5ShNKdKfQjoNQKD1AP1nRE4shtTMGdj4p/s0xfrAxpimXCwbCJrkLFuU47kIIpNF398ew+CLL6Fpz90Ra22x0lEOsZYWtBy4PyacchLclmakl72G5n33Rpxxuppe9hrSS15R7SeNBeLd3Wg7/hh0XfTvmPT1r6Jxt13gNjXqcrBh8Ll/YsWZ52Fo0WKuj/tMkBuRH34A4CSTaD7sUAw++xzyuu/MA0CQlSsdTvrRpUhsQbxV94RNV1+HDLUnNkEofX3YyskRNhAE7JqtcYAPAEEHgPNM1wwhqAx1hqB6EDUEQ8iVG1wqhR3nP4JE9xRdBgDAO2eej55HPC61TDM8W7koZoKAVYvyQrAc3JZmdF14Pjo++2k4sZhRBxUKmQwKff2IM0tPeh74M1b+23/A39MrP10XDXNno2m/fdD8kYPRMHsHVUlQu/r7se7nV6Lnzrs9sY6mTVKhOGOh4CeVE+FMkJNrPPQQdP3kR5zByK1chRXHnwRkMsygrKYEBuEwzQQjheCCrhlCgZbxMKBcDTNBuuIIuQhngg6Ajk+dgC1+xntSyaxYidcO/QQKlecq/mK1NVZ3CIadCXpDasdZ6L7kIjQZNggPG3Jr1uKtA8ru2h04DSmkdpiFxl3noXG3XdC4x26ItfJbbAYJvfc/hHWX/1IzM7OH4IQvnY7OC84zlldvCDotzZj6hzvZWTYArLv4Mmnpiy0ER+1M0HQr7CnHBEFnQdcMQZipKKKjhmcmqK+4cDNBGwgCwHb33Y2meXN1SgEA6279Ld7/7qVscSM1E6zq4ZsL9UzQG9qOPhKTv3FBdae8CMP6629EvKsLqVnbI7n1THYz8rBh8PkXsO7yKzD04kuGTmgHwdROczD1ml/BbTE/JqjnM8HO7/4HWgwur9KLl2D158+06dYBZ4L1hSBgBmEUM0FnwaQZwlu5NrfDPjO1cvWfCaqRUc4Em3beCdveexdb0UIIvPWp09Dvf75CtAg700JA0CRX40wQAJxUCp2nfxYTv3Q6+4JoNIXBf76IDdfegIH5T8K2XusCwd4+rDr3q0gvXqIrMvBMMLXbrph83VXGtrn6tDOQeWUpVQhTBTXAzVbOAMHhejES+1LThEtkQTsIOj5pXs5zVAMEATvARfVMMLtqFVKbTUMjs6mM4zho3ntPbPjdH6rbPeqLpC8E0VhsOmHUM8GqCCGXz2PwuRew8c67IfJ5NOy4g3H7y5EIQgj0P/o4Vn/3Emz49bXI/utdT6ptJzTXf37Vagw+9zxaDjuU/DpIyp5KovljH43uxUhzM6ZcdQVibfzjgf57/hf9lR3syEICzQSlWE0FRT0TrPeLkeIMUBH0RWgOq0ptITj6ZoImCMY6J2CHRx80LrVYd9cf8P63vsupqvywnQmOOgh60mMdE9Dxuc+g47RTSh6eRzbkN2xAz30PoefOu+WvUEJ3wtE7E5x46ffQcsxRbFn59eux4oRPo9DTY5yE2ELw/7d35lF2HNUd/vWbmTczkkbSaDVoRjaWZXkHEsAsDgYfCA6GsOMNkwCHYBNswJjFQFgCCQmBHHLMOUDYF9tHgE2MWQx2SBAyxsYEbMuG4BXbxLZka5mRRjMjzev88Zbuqrr31q1+9d7MSF3nSPOq6lbVfbdvfV3dr/o2b482VowxINjGPUETgJZC5HQVFzAy4IycOKHJD6ZcxJUgr069dOlLX4TDLvkE1xkAYGb3bvzulNMw8wgRCsoHN0HOKO4SBH33BPMylYULsfTs0zF8zlnoW71K7Dd2SmdmMLH55xi78irs/u9NwL76+4aFOecUzAYEHz6v+D3BntWr8PjvbPS+wOnRi/8OEz+6llE70krQY2jejcIgmCTQPUNc4HLYBaAhGHo5TPfjZttfCQK2QYyWjAzfnw+Wh3/1c1h8ysmkxMQtt+EP51/UCACggVtd19nYLF23q/d8iUzMD0EAQG8vFr/wVCx73TlRtqtwqTY9jYnrf4E91/0Eu3/yU9R2NsLvW7p2HYJPPB6P++wlXYFg79pRrPinj6D/GNrOezdtxra3XkQsZsRBBBO42tCbpQWtI0DQmxKWRM6wzaNKA9DqheyWnbsaWBqakP3MtR9G+g5ZjQ3XXY3e3A8AaZpi2+e+iIc+/ilg/35DVw9PQViCVS1BIuzOt5v5IQhA9cRIXU7uzO0mwcCTTsDwma/C0AtfgEp/P9UsKE3fcx8mbrgRe274BSZuuBHgXro0nyDY7q/Dvb0YvuDNGDrnLONY1sbG8NArz8bMtm1kM6dPDQQJ4/D2YOYpWRUGQUBx7g68HOYBaAhaBUyWlQ08CI6MZ+Z363J46UtOw2Gf/iQAYN/Wbbj/7e/G7p/9nOlOf5lbSK5NCGZqyu4Scjls915ZshhLXvpiLHnFSzGgDE5Qm5rC1P/+HpO3bMHkr3+DvTf/Gvu3boV9YOTDOYsQ7PIWmYFnnIgVH/0gehrvWXn03e/DxI+t9113CIJGicfQsSCovRxW/zByw4pDU+1jI/Ynf7ZhXPfK1O1v1iBIKChA8NBPfxI9Q4vwhwvfg5ntOzzwmv+Xw6bDhUOwmfqP3oAlL38Jhp5/CnpXrsDMzl3Y99BD2PfAHzF93/2YvutuTN15F6bvvQ+YmWFULwZBJ3eAQbAyPIwVH/kAamPjeOx9H6DlOgRBZ/YIBooJQVVS3BNMblhxaGMjtA6C+n2CNFjoZtrJKgwIexLS5G33nmAyMFCPp8az3erStWzf6Bqs+fv344GL3ouZ7Ttaus7aFpmCARR4GUZWVCdRyDRqCkDQp5r25NIxCL7pLZi2novOj+GDIAAkA/3A1BQv1w0IagBIdh4GQUDhtr57gkkuIGrs924eqPEE02bsPKbe7dK0Vt/oGqzb+DUsPuU5OPyyr6BneBhNy5IhiYgCOrwY1UwXSqtoPEFKhtLCznrtlmZBmIgjI7mUVWF6mGy31JQTOtbYf+rWLXjo3PNRs6OvEKmyaBEO+eynUeXeV6IMpZVOTlnfU56nTp/+ad0wkKuNMUeZeSpUwdFaN7najidoBESN+d5NbaUGgrTDkVNjVuMJ8u3rlm3Cr9p4IdDgUUfi8Mu/0nhXhd/2doHufKCDYNF4gk5NYQjSuGNlC0DQ37HWp5UQvOU2PQSH4kAw9DsVgiDdUjh6jOZtQjBGPEEnIGrIezd9K8HsqycwGtPdqmRMwzAmd4pz47MyziiCXE4mzU4KUpfV0ccb8GumwaOOrK8EcxDUhNdPW7J0vVnsh6Ciui7jGxCUzbQQtGQaArRti0HQp1reYvIknNsQNLHTAQjWz5rc8AT3OgNBbeLeMWK+FCkAgkDIStACC3G60EKwNRmCIOiCzZWxRzHlhENt+AwlVx1Zg3Ubv+7Ar5lcCCayGXMFiVifL+Ztbwr7naqzl8OuHG9bFQ4KQ5Bo6sjNZQiKBTEgSLeUb9/5u4De/vVK9cULIeS+FS4AgpljBhrXK+eHoFmvgSCjDX96k5q5FY0/9mqlOroG677Jw6+ZBo86Ek/42ucbN27r45OsctQq8LY5IdVP7DqP6iwEaT9xu0zleqPC9DAZXnMAgpHeMcLKecCiEieM4/gjnfH4bRgEtcm+HKZfixkIQc1K0McPNytDsPVXN/PFpL+XwKK29adpjxR6+AFAum8ftl7yOaBG40BTEARBvc+IKSYEi/t4MQg6uW5A8E1v0UPwM5dEuxxm5Sy7ObIFIVgotQlB7UowL8K/FzgQgm7XdDa1PsnNZAhqVoK04YhDzR5ZVzkNBEPh94e3vANj11zLjt9tCNbtpvQoT2daCNJ9un5Cw7I4BGVdIkPw1i1hEJxP9wQJbVI2w/TXJgQBhdvmXr5e0Zx1Y14Om0XtQ7D1NxiCbmHIXJcgWB1ZgyPagV9h5hSEoCinUKPlcO1DUDsmLVsMgtqTi6bjuQxBscAHAi0Eg06YzDGIAEHty9crXoUDIajdJ1hP1h0zEYI0dbIx8w1oCHbjnmB1dA2O+FYI/C7ELmflZw9Zz3Ts5euSjoDilNqQ7RgEU7Oy8XFe/zo8x1eCrscrIUjUpLDsxhgoJgS1Fy8Vb185gdj3BFMTX6ycXKCHIF+sgSDRypKrjo6Ewe9vm/ATLGtU6H8d1kxCA4L+QzvLEHRLCe/JajoIQaKpIzeXISgWiFklBBnjaH4djglBwO+ylaYUt0/GHjtkn6DGWuQTI3S3Wc8MBN0MOTWirgSbP4wUhl9OVwVeeDkGgrrzQVwI+jpr74cRs5L3nhKC0kEX5XwgKAjBNPfPNY4zy5nOwyEI8G7r/AgSC4JZVmvcxJTxNfOp4Jn5xTdLu6k6UnTll1eRvHmQq7eLfGeBrCA6BD0p5j1B/2D1P/TqooRgDAj6Ti7sKMxqw7ha0xznNiEoRY+xNkIrtAmAIOtSRJbc9cZm+cmaoujlML2W8K0Wq6MjWP/tMPjtJO/5ZePzzpTP6J8dNtAeAYLSo0WGbCQIut/TlePnUgnBWBB0ZNXnLHcU9oRl5Xi/DYcg5bbERujU7+ABEGQLGHg5phYh6B6EZo12i0w7l8PV0TVB8LvvzQz8CF39iBFOn47NdJ6qhWC9nvEojUJWN6KsSCzXT2irlBCMAUE3q4QgYRwebsLprk0Itj7l5Nh9gLHvCdqfqCxZSdzl9jsmYVNhwCIQrK/8vhEAv7cb9/xYfPkgSH5XnwEyKY8p1BDUog9AB1eCfLOYEJThdeBAUDtPY0HQqRIMFAuC9uUwvxGaG4/u1ttB2sr6jVsvapAv5eXIAYi+TMNoIcjfEywMP0tXXwAFIAWoV086jpKoISjX54uVEPSsAulnsn1yhKxILLcy5j1Bul4oaGb77GM3tyEoFnQIgnXvDTuhxoBg098q7cbTyuaJDoLzPZ5g30go/N5m7fPLdPUcJyTVPqz/j4143Affi6S/6tRnf5sQ9PuxdhLGhGBT5GCJJ4j+fqy4+F0YufTLQG+vIzeXIWh+zw5BcA7FE/SuAAFEvSeYfVntGV6u1ECQdjhyaoiXw9XRERx5hR5+9573Nuy65jpea89EfNzF78TgsUdj5evPwfrvX4lB28Edz+GUoQt05wMdBMt4gvWC/mOPxui3L8WSs09H/zFHY/mFF5AN5zIExYIYEKRbCkeP0bxNCKapEoAAOrJPcD7FE6yOrikEv6LxBIdOORkrX//aVn5g/ToccdVGHPKeC83VIDGTyniCMOZNNzZLJ/39WP6Ot2Lk8q+ievgTWtVLzjkLg896BtnxXIagiZ0OQJBfbWQmFwwUC4LJ9cOjqTrGPqB/25L3RRTCGxt87y7wyvEvlqDfX8C8Y6FRXF/5Xdreys995QKra9+qldjwo6vQu3wZ2WLq3vvw4MUfxJ4bbiK7ct5vQco0s5oXQRA9SnIdfOUmlXV74L+T26XmbRuwHcaQG3z607DqQ+9D39pRsun+x7bjwZefjpnHtpMdy+/KqKfgl6+f2/47RrxyvnmqcS3CB3h7aOXMAsnNGgCsS2jfthQbgikl22EIuhla1/61ReDXvOdnaS3PrpbPHH7plzD0Z8/0jrfz6h/goY9+HPsefoT5CgwIfXIaCGpcQP2ypU5A0CoV2Z146vMVWW3vIaux8l0XYtGpz+datNLE5p/joXPPZzs+ECDosys7CuMDwSAsAMGeNwwu+ZDdIPbLh/0yVoE3GyjHQNC3EqyOjmDDFZeiOlIEfvzA0mRddd4bsOI1Z3jHA4CBDeux/OxXA5UKJm7dUn85uzEsa7GOQ1ALwEysfQi6NYGwVEIwGRzEsje+Dod88mPoP3oDJ2mkvrWjqO2ZwNQtt7Id+yA488hW7P3lzVj0guchqVZdgXzz/ioW/vnzsPemX2Jm6zZuyOgQdLPFIRgMQLJzGYLWPcDGHR/f/ezIm6VD7jWk1ie5mXxPMLHE8oKh8LvnXBt+hJ6NIuHOBxY86QTvePlUWbAAh1z0Vhy16UdYduargEr+kJoWI4ZzCmLdE6zff/E5kqhQVqO8J0j36foJcVSguifY04PFr3oFDrvmu1h+/nmoDA6yOlOp//hjRV0P+nuChDYpm2H6C7wnmLsENoqjvny40aNCRnc5bBbxp+2iK8Hq6Ghh+GnfOyytBJed+Uqs+eDF6Fm40Du+nSbvvhdbL/kMdn73+0CtZoyvU63AStAnlzPKMXfdRgs20m/X8yeAKPcEva5FrAQrFQy96C+w7Lw3onrYoax+XKrt2YNtH/sXjH/naq9dNStB4AC+HAacAx20wtPKNX2FBmAmMRs/jOjvCRr4EuRyOQ8Eq2tHsOGKywLg91bnBw/vvT6FXHXtCNb+68ew6MSnevWg0tS992HrJZ/Dju9+L7s0BnMMCGfRTEIDgv5DCySJAoDHi53FvCdIeI9Z2deLxS96IZa96Q2oHrpW1JtLEzfdjK3v/xD2//H/jJGoy7H8+HMZgmatZp6ygwgnZc8RZAwUCkEBgFmDuXpPMOtPC0F+diQA+kZHcNSVofAL+cGDmGoeWC5/zel4/MUXoWfxkFcnKu17ZCse/fLX8dhlG1Eb281oQRV2BoLH3L1F1PeOI47vzg8jzgk3S5XFQ1h6xqux9DVnoHfVSlFfLs2MjeOxT3wKY1d8h9V1PkNQlOsQBHl7aOXMggRAcv3S0ZQ/CHWxJIEYUiYTjXc5nH3UQNAZQOoW1EGojo5gw5WXob8Q/JhRPHAT1DHkeg9ZhZEPvw9LX/gCr25cqk1MYMdV38P2b2zE3tt/q4agURwBgnoAyp0V/2GErxw49mgsPfPVGDrt1OD7e/m0+5prse0f/wUzjz7KKHBwQZC0f0EIylWMRpL9Ny8dTT0nXDQh6E0JiSxy7M5cDtP9uFlzshaB384fXmvZhFpLxFsJIgEWnfQMjHz4/RhYv86rp5QmbrkN2791JcauvgYzu3Z5VIsLwWMVAGz16XHMGPcEK0uXYPFpp2LJy1+CAe7HAmWauusebPuHf8beG3/pm5twvLGEoGACdxRjpjHOKdut4bGbl9YvgTUQJHQhlfWyMgCCuZHZ+hA5G4LVtcXg1+pBAbgYP4y06nt7seKvz8bqC85D79KlXp2lVJuexvhPNmHX1T/A+H9tQm1iglQtQcI4HKWlDMEQAALxIJj/mCxcgEUnPxtDp52KRSefhMQJWhCWZnbsxPbPfB47L98IzNRa5SUEfdniK0HeHsLpjrB/C4DMOG6DRHc5PBtPjLCyTLM6/C4vBD+jv8IQpJXzQRAAehYPYfWb/wYrXn8OKgMDrN7aVJucwu5Nm7Hrx/+J3T/djP3Ny7fc+JpJ6INgMQAKA4KyrWvTnpUrsOjZJ2Hoec/FgpOeiYpnH50m1SYnsfOrl2LHF76SbUuxJlEJQV+2OASNEo+hOblk89KRVH8Q6pWztUXG/uTPNoxL/NSXADj8M5/Cspe9WNIQQBN+FzTgx+CprZWg+yOOBoIA0Ld6FVaffy6Wnf5KVOyIMQVTmqaYvON3GN+0GXt+cRMmbv51Y3Vo4K0QBIsAMDvh6iFYWbgQg3/yZCw48SlY+GfPwoByw7Im1aanseubV2LHv38JM9uITcZBKxazYD5D0Kzt3kqQvzrxQ7ABQLNUA0HAvwr03hM05rwOgvp9gjRY8qlnwQKsv/zLGDrxKezQtX37cM+bLsCuH17rnfndvieYH6F39SqsevMbsfzMV6My0M81LpTSmRns3XIHJv7nN9h76xbsvfV2TN9zL6d6rtiFYCgAW/1Jtk8SVA8/DIPHH4uB44/D4JOfiIFjjkLS0yOOFZpqk5PY9c0rsf0LX2mBTz5M4StB38llrkNwNlaCxkzTADCXyQHQFNGuBGfjcjjmZmkJggb8nPYEtBg9ikJQuxLMy/QsG8aKvzobK157FhtMIUaqTUxg8s67MXXnXZj6/V2Yuv8B7Lv/QUw/8ABqeyZyeplKFgUgAFQWLUR1dA2qo6PoO3Qt+tevQ//6I9C/7gmoLFjQ/pdi0v7t27Hz0o3Yddk3MbNjB+wDo4WgkytXgsUgCDiTiDclM0+bw5kANBtEWwkiPgTtT/4sQYtGoiDYhJ/xg4fTsWYlyGjToZVgq7a/iuGXvwQrXnsWBo89muukI2lmbAz7tz2Kfdsexcy2RzEzNo6Z8d2ojY9j9TvfJrZ95BP/hp6hRagMLULP4iXoXbEcvSuXo3fVSvQMFdsLWTRN3vE77LxsI8a++31getqqLQbBciXoyxZfCRolHkM3c8nmJSPEPsDwlaAqRd4nSMqSCykLER4I2vDLdx0aSotoycjwskUh2EwLnnwClr/mDCx90V+0tb/tYEi1ib0Y/+GPsPPyb2Pyti0e23YWgkRTR24uQ9Cs7d5KMOSeYB2A5AgH+EqQkOtZsABHfO3fsfWLX6vDj4RpUQgy2ihXgoRPmLK+iZjUAycsOfXPMfyKv8SiZz4dSUUdD/eATmmthokbbsTYVd/H+LXXIZ2YNAUk20aIJ+grmM8QnI2VIG8PAoA/WzKSapaNMVeCB1M8wZhbZNpdCeZ17Vu1EktOfT6WnPp8LHz6U6P/YDDXUzozg4mbbsb4j6/D+LU/QW2bve0H4Pwk1krQyR3kEPTZlR2FMY4GhCYAyX46sBI8SOIJwqkX5CKuBP0QTIzee4aXYui5J2PoOSdh6NnPQu/wMDnCfE/7t+/AxPU3YPem67H7pz9DbWfjKRh2EtKOwdq/hGAxOd9ipSAE1QCUha0GrAaErIdy82GztA+CbkYLQbcw9mZpf3eEZZMEg088Doue/jQsPPEpWPiUPy0ciGG208zYGCZ+9RtM/PJX2HvjTZjcckcuuGAg3OSPWUkBCPrPjwcGBM3a7kDQKbHmaQuAvKBboIHgwRxPMD4E6YE1EPQPy1i2WZgkGNhwJAZPOB4LTjgWgycch4Ej10ffa9huqk1NYer3d2Lytjuwd8vtmLx1C6Z+f5cRTXXW4glSqSAEBRdrVcxlCIpyAScXYRTnQEv2SH62ZI37JAg7QhgECV1oyQMonqDPQ+fqPUHlkHXJSgXVtaMYOPII9K9fh+qho6iOjqA6OoK+xx3SsfuJ6cwM9j30MPY98EdMP/gg9t3/AKbuvBtTd96N6QceBGq1rr5jhLdtZyFINHXk5jIEzVrNPGUHEfzacwSbetgAdJp2A4IHSDzB2VgJaiDIDmlUaCCYmFlKplJB77Jh9K5cib6VK9AzPJzt6xtahJXnvZEbBQCw7bNfQG18HDPje1AbH8f+HTuxv7mfcDv1VjVClW5A0DnhEnIlBIvJdQiClD0aAGSHYkYIg+DBEE/QkRMgCOgAF/ueIKuND4LE8dfKWd3juHtuJzVtptvXHcfWZf3IjjRb8QRLCKIjEPTZlR1FME6zqiK/OLiRAl80Ysuq4McNRVRqXrSUG105QGLK+Jp5XwgkC1IvX3de9qI5NqIuqVPPv5CmPj5fbxeRhWSBxxTesUKaA8i9i4lvUfxFS3Qz2r1Tv+1bFSkvV3j+de5FSz2rV3FDBr1oiZUT7eY05v2WmEStmZYyb4Uz2rMjhEPQO6E1Mz4AgqxLEdlUQT2nP4YBeQOzgk5xShUyJiFcwvUJUlcXs/ZAAgSN75NQFiML2DG55Dm03jcSNmUjQdD9nq4caYt8Jd3SqpgfEBz71hXY/8gjvECHIOjIqs9Z7iitOzZuvXC424Rg65MkF/mVm2wBAy/n+4sQpKmTN7AEQeYE5cjyMvREZPtj6+1hRcvy4zv96HtzGmtOlgfSKzdbFXMbgju/9FXs+NSnG19Jnn+xIehmlRAkjNM8ThWjXrBSLAhqL4fT1DNtAiDIupRmAGL54ndMzpQMngpDkJBVQLD5Rx42/uWwBldp7v+g85vUp8cxi68E+WYxISjDq3sQbMFPN2AwBLXzNBYEAaCSQrgs4lIECGpP3rpJo4eg755gdiAaVkl5OXIAoi/TJloIau8JNo8gqRwhm/3hL4ezD34I1scPuSfoS0EQ9DhS6uiqkSNkRZu6lTHvCdL1QkEHIOjAr9lF6p9/WgiKBR2CYGsFaFyyMZNVqDIKNBBsfZLkfKTMKaSFIHmrn5y7BPkKQBDQXQ67xTR5Y94T1B0iDwRbB1t7T1CXYkKwKRJzJSgqlFonP1ugAASdvhhd3ROuKxcKQQ5++T5iXg4780qVDYBg7kD32sLumcutaQEztRtkBSmAxKk3ZdNU99NwmqbyZunGOClSfotMS8bQkFKdbyzWOAPQrXnjtRzX/aqmLH0bwTcwUZGrJ0VzupKWpb8YO1xoyrBK2zUvh7QR1U213UA4no5taT9hjh7ZLymbJrLtWxUhdtX6tHU8GbmpW7fgwZedgf0PP+I3awqkiTz/cl+ZHzTwO1kzwx7EO3PJeEitM4hwqkjpYqPAc8L1VZqSke8JppQska0X5S4Wie6dM5YgY9qE1rW9y2FLI3mJ0TpxxrscZiT1h5poxts1dIjUY3tThpHVqJObP7RtzRWLfJgcDxMaZhaT559uJbj/4YfrsirjigPaX5mXTW38+OepMAjvt2mKZNPix6filkRhJ6W8yVK7WTOrnO/xBJ3+CBWak8G0CbNZk9/dGSTTLBK2hEpfyyqM9MQI1xvTudOjJPwTuY4AAAtrSURBVKfcdNqN9w7bWbdLYU45FazHtjH/dJulW5KqOertSCKJXs43TxWuVaGobdCXz7hVTi+5TxFXgrJA849uJUjK+s4wXjl5JZhYYvqVIKENf3qTmrkV4moFhq7+o5Wtr/2LKUuOXxTwlfbIyl/ZOndP0Prm0krPulkbshKUV3Da+adbCTYlVVt1U//8C1kJsnI+pijEc/sA9RCSxuQKNBDU/jrsFQmEYEL1GsgPNytDsPVXN/PFpP5F3fUJc5A0s4ePvVrukrJMQRAEI7grEBeCxc/xxSDo5LoAQQosnJiHptEh6B4DPwQrZo07VMpmmE7bhCAAPwgjb5Z2oCVkU+uT3EyGoGYlSNuMONRaIikhyKaWQmGbpbsNwbqaPkcSFcpqlBCk+3T9hIZlcQjKusSHYKqEYOyVYMg8FQYxshWnJshhGJUiQHC2NkvrtsgQlQUh2PobDEG3MOTQ+SDY/CMPq98sLQ1nFwRDUJRTqNHiZPsQ1I5JyxaDoPbkouk4NgQREYJigQ8EjDjzVhxXpZafOQ7XGQiqT96RV4IJJcs2tS4WRQjSDpONmW9AQ3Be3RNMYX2flJYs6NipVGnLzaV7grmP8/nX4aak9tfhbq8EXY+nIVjhndut0fy2FhOCgA6CXpECEPRNxOaU1kOQV1YLQb5YA0GilQKCikME0bJGRaJR3+1PA0H/oZ1lCLqlhPdkNR2EINHUkdNC0O8kebE4EBQLxKyra8UVyrd0VaLPIC6X+XkcDkHA47uNe4KarkL2Cfpplu9PmDTGJ9phaIcjp0bUlaA2iozb0tVVgRdejoGg7nwQF4K+ztr7YcSs5L1n/kBwNi6HRbkAYFdyxaSsL56W9otzBRoIlvEECRmnWLtZmhtQqPBNxDQbXwc3RpIxUnQIelIZTzCr7QQEfQcpNgSlk0vFKua1snL84yVmjnfecAiW8QRpPc2MBoKES7D+a+rK3xPMxudPpvlMwXiCESBYxhMkZLsIwdnYJ0geg5SICM3PFy3chMPdJgRbnyS5Mp6gI3vAxRNsE4L1+tTjSIoBoYcg3afrJ7RVDjwIYhYg6GZTVCiv1kLQqRKsFAuCZTxBQrYwBAlZBQSbf+RhOxNP0GMKNQS16APQwZUg3ywmBGV4dQaC8+XZ4QozkhqCKYTLIi5FgGAZT9CSdYpDAigkbhE9ivEnXgCFgvEEY0CwjCfoFkSAoHAmNaVS//zTQlAsYLIVo0gLwdRVybhkYyarUGUUaCDY+iTJlfEEHdn5H0+wA1tkyniCyFtM/ppz/3LYmVdCtuJ0rD0ZSHDz1MSCoH6/m0ewAAQDDCVWaiBIOxw5Ndq8J+gvMip8E1EDQZfuCj1SszgCBLUBFHydRQugII5WDIL+jrU+Pbc3S4sFVpbYB6iEID/bMrsLVooFQW0q4wmGQDD1yOVk0oxjhSFoZTSXw2lLlq63e5RkPF2YMr4BQdlMC0FLpiEw358YQQAEfcDWQtDEDz9PmX2ASgjSLVVPjMidh0FwNh6bA0JWghZYnJODHoLaLTL0vSstBBNHTjjVGe5SGILG99E/MZKI9fli3vamsN+ROns57MrxtlXhoDAEiaaOXAgENWcYn11DICgWNLLMs8DkSIJTuiql/oxbxYymgaA2lfEEtRDUngFNXct4gna9q4WdpcFG+4nbZSrXGxXM3KM75po6cloIzsV4ghXbeE6DghAslNqEoHYl6BUJhGAZTzDTtWkPH3u13CVlmYIgCEZwVyAuBD3uLVcWgKCT6wIEKaZwYh6aRoEg8WL0eBB0zsyMh8Y5CFmlF4SRN0s70BKyqfVJbiZDsIwn6BbEgmBdTZ8jiQplNUoI0n26fkLDsjgEZV3iQ3AuxROsEGWakXgIBjkMg44IECzjCVpy/FkrywUcOh8Em3/kYct4gnZWOyYtWwyC2pOLpuPYEERECFIFbkDU3EenY60dCJVa/TkddwaCs/HDSIoynqA9k8t4gna9oBwLwdSsFG3bWQga85jpOASC3d4iY3py81E4oW0hCDIWKuMJmtkynmD2wddVPZXxBO1cGU+Q60bn/xWyNFBhLQTT3D/XQimdiwBBwOO7aRlPUAfBlJQTJ6tjE27YMp6gnaVtZlby3jN/IDibARTMR+GYtj7jskMxs62MJ0ilMp6gHm6MJGOk6BD0pJj3BP2D1f+U8QSz+hAIuo/CMVl3TiohSNSkKOMJ2tkynmA2Pn8yzWfKeIL5LGmLfCXd0qqYHxCM+etwxSssZpUQJCzEw0043G1CsPVJkou8RYYtYODlfH8RgrTDGCcYYebXJ7PbXg9BeiKy/fn8O6erfx7wU95VS+OkegjW61OPIykGhB6CdJ+un9BWOfAgiEgQbO0DNA3XHQg6VYKVYkFQezlcxhPUQJCQVUCw+UcetownaGcF5DvNYkJQhldnINitZ4eFfYDdgWCKMp6gna0XlfEEdRCsj1/GEzRTGU+Q68bMOfsATXN2CIKpq1IZT9AuIshXAIJAGU/QLtBMwpgQbIp0ZbN0wwjGyc8WKABBpy9G15ZcBAh243LYDYYQSPdCEKRbChOGUb9NCOr3u3kEC0AwwFBipQaCtMORU6PNe4L+IqPCNxE1ECzjCea1UI5WDIL+jrU+PXc2S9PRYFLbnB2AID/bMrsLVooFQW0q4wmGQDD1yOVk0oxjhSFoZcp4gjDmz3x/YgQBEPQB26aI+yQIq1AHIEi3LOMJso0sgpLNZAiW8QTNgjKeINvSqgiHINHUkQuBoOYM47Or3Q39JAg7pppqVGPBKd1RUn/GrWJG00BQm8p4gloIan3F1LWMJ2jXu1rYWRpstJ+4XaZyvVHBzD26Y66pI6eFYCfiCfJPghDCpJxlPEe2IAQLpTYhqF0JekUCIVjGE8x0bdrDx14td0lZpiAIghHcFYgLQY97y5UFIOjkugBBiimcmIemSOF7EsQSdiaXKlscgsaYTobpr00IAvCDMPJm6RC7ptYnuZkMwTKeoFsQC4J1NX2OJCqU1SghSPfp+gkNy+IQlHWJD8GYT4z4nwRhi7UHoVGphWCQwzDoiADBMp6gJceftbJcwKHzQbD5Rx62jCdoZ7Vj0rLFIKg9uWg6jg1BeCBoPAniHTkVseMYz+lTzUxXm1Z/TsedgeBs/DCSoownaM/kMp6gXS8ox0IwNStF23YWgsY8ZjoOgWC7W2QqppBi5ECHKQRBxkJlPEEzW8YTzD74uqqnMp6gnTvY4wmST4J4R/bJBSqshWCa++daKKVzESAIeHw3LeMJ6iCYknLiZHVswg1bxhO0s7TNzEree+YPBNu5HCafBIkNQZ9x2VGY2VbGE6RSGU9QDzdGkjFSdAh6Usx7gv7B6n8O1niC4pMg3pEDIejIqo+ZO0oZT9DMlvEEs/H5k2k+U8YTzGdJW+Qr6ZZWxfyAYP7XYf7F6B2AoJtVQpCwEA834XC3CcHWJ0ku8hYZtoCBl/P9RQjSDmOcYISZX5/Mbns9BOmJyPbn8++crv55wE95Vy2Nk+ohWK9PPY6kGBB6CNJ9un5CW+XAgyAaEOQfhWsJKUZ2ziDdgaBTJVgpFgS1l8NlPEENBAlZBQSbf+Rhy3iCdlZAvtMsJgRleHUGgtpfhyvtxtPii7sDwRRlPEE7Wy8q4wnqIFgfv4wnaKaDJZ5gbh9gHAia5uwQBFNXmzKeoF1EkK8ABIEynqBdoJmEMSHYFOnKZumGEYyTny1QAIJOX4yuLbkIENRcDlv7AONAUCyIAUG6pTBhGM3bhKB+v5tHsAAEAwwlVmogSDscOTXavCfoLzIqfBNRA8EynmBeC+VoxSDo71jr0/Euh519gD6FtRA0zdkBCPKzLfsagpViQVCbyniCIRBMPXI5mTTjWGEIWpkyniCM+TPfnxiBAMH/B5LwqLLwYDiPAAAAAElFTkSuQmCC;fontColor=#ADADAD;labelPosition=center;align=center;" vertex="1" parent="1">
          <mxGeometry x="-1559" y="2062.5" width="55" height="55" as="geometry" />
        </mxCell>
        <mxCell id="9stf0OVaeOMll12Zxa0v-127" style="edgeStyle=orthogonalEdgeStyle;rounded=0;orthogonalLoop=1;jettySize=auto;html=1;entryX=0;entryY=0.5;entryDx=0;entryDy=0;strokeColor=#82B366;flowAnimation=1;fontColor=#82B366;exitX=1;exitY=0.5;exitDx=0;exitDy=0;exitPerimeter=0;" edge="1" parent="1" source="9stf0OVaeOMll12Zxa0v-61" target="S1YV70i-Cic0EkdP-n4v-16">
          <mxGeometry relative="1" as="geometry">
            <Array as="points">
              <mxPoint x="-1468" y="1777" />
              <mxPoint x="-1468" y="1451" />
            </Array>
          </mxGeometry>
        </mxCell>
        <mxCell id="xIR8cZMaL0KthYPbuobY-2" style="edgeStyle=orthogonalEdgeStyle;rounded=0;orthogonalLoop=1;jettySize=auto;html=1;entryX=0;entryY=0.5;entryDx=0;entryDy=0;" edge="1" parent="1" source="9stf0OVaeOMll12Zxa0v-61" target="9stf0OVaeOMll12Zxa0v-96">
          <mxGeometry relative="1" as="geometry">
            <Array as="points">
              <mxPoint x="-1468" y="1779" />
              <mxPoint x="-1468" y="2105" />
            </Array>
          </mxGeometry>
        </mxCell>
        <mxCell id="9stf0OVaeOMll12Zxa0v-61" value="&lt;font color=&quot;#adadad&quot;&gt;Route 53&lt;/font&gt;" style="sketch=0;points=[[0,0,0],[0.25,0,0],[0.5,0,0],[0.75,0,0],[1,0,0],[0,1,0],[0.25,1,0],[0.5,1,0],[0.75,1,0],[1,1,0],[0,0.25,0],[0,0.5,0],[0,0.75,0],[1,0.25,0],[1,0.5,0],[1,0.75,0]];outlineConnect=0;fontColor=#232F3E;gradientColor=#945DF2;gradientDirection=north;fillColor=#5A30B5;strokeColor=#ffffff;dashed=0;verticalLabelPosition=top;verticalAlign=bottom;align=center;html=1;fontSize=12;fontStyle=0;shape=mxgraph.aws4.resourceIcon;resIcon=mxgraph.aws4.route_53;labelPosition=center;" vertex="1" parent="1">
          <mxGeometry x="-1558" y="1749" width="55" height="55" as="geometry" />
        </mxCell>
        <mxCell id="9stf0OVaeOMll12Zxa0v-65" value="&lt;font color=&quot;#adadad&quot;&gt;AWS Shield&lt;/font&gt;" style="sketch=0;points=[[0,0,0],[0.25,0,0],[0.5,0,0],[0.75,0,0],[1,0,0],[0,1,0],[0.25,1,0],[0.5,1,0],[0.75,1,0],[1,1,0],[0,0.25,0],[0,0.5,0],[0,0.75,0],[1,0.25,0],[1,0.5,0],[1,0.75,0]];outlineConnect=0;fontColor=#232F3E;gradientColor=#F54749;gradientDirection=north;fillColor=#C7131F;strokeColor=#ffffff;dashed=0;verticalLabelPosition=top;verticalAlign=bottom;align=center;html=1;fontSize=12;fontStyle=0;aspect=fixed;shape=mxgraph.aws4.resourceIcon;resIcon=mxgraph.aws4.shield;labelPosition=center;" vertex="1" parent="1">
          <mxGeometry x="-1558" y="1915" width="55" height="55" as="geometry" />
        </mxCell>
        <mxCell id="9stf0OVaeOMll12Zxa0v-109" value="" style="group" vertex="1" connectable="0" parent="1">
          <mxGeometry x="-1087.25" y="2199" width="250" height="167" as="geometry" />
        </mxCell>
        <mxCell id="9stf0OVaeOMll12Zxa0v-110" value="AZ-C" style="fillColor=none;strokeColor=#147EBA;dashed=1;verticalAlign=top;fontStyle=0;fontColor=#147EBA;whiteSpace=wrap;html=1;comic=0;enumerate=0;backgroundOutline=0;snapToPoint=0;" vertex="1" parent="9stf0OVaeOMll12Zxa0v-109">
          <mxGeometry width="250" height="167" as="geometry" />
        </mxCell>
        <mxCell id="9stf0OVaeOMll12Zxa0v-111" value="" style="group" vertex="1" connectable="0" parent="9stf0OVaeOMll12Zxa0v-109">
          <mxGeometry x="11" y="25" width="229" height="140" as="geometry" />
        </mxCell>
        <mxCell id="9stf0OVaeOMll12Zxa0v-112" value="Private subnet" style="points=[[0,0],[0.25,0],[0.5,0],[0.75,0],[1,0],[1,0.25],[1,0.5],[1,0.75],[1,1],[0.75,1],[0.5,1],[0.25,1],[0,1],[0,0.75],[0,0.5],[0,0.25]];outlineConnect=0;gradientColor=none;html=1;whiteSpace=wrap;fontSize=12;fontStyle=0;container=1;pointerEvents=0;collapsible=0;recursiveResize=0;shape=mxgraph.aws4.group;grIcon=mxgraph.aws4.group_security_group;grStroke=0;strokeColor=#147EBA;fillColor=#102b38;verticalAlign=top;align=left;spacingLeft=30;fontColor=#147EBA;dashed=0;comic=0;enumerate=0;backgroundOutline=0;snapToPoint=0;" vertex="1" parent="9stf0OVaeOMll12Zxa0v-111">
          <mxGeometry width="229" height="140" as="geometry" />
        </mxCell>
        <mxCell id="9stf0OVaeOMll12Zxa0v-113" value="" style="group" vertex="1" connectable="0" parent="9stf0OVaeOMll12Zxa0v-111">
          <mxGeometry x="3.75" y="29" width="219.5" height="100" as="geometry" />
        </mxCell>
        <mxCell id="9stf0OVaeOMll12Zxa0v-114" value="" style="group" vertex="1" connectable="0" parent="9stf0OVaeOMll12Zxa0v-113">
          <mxGeometry x="27.25" y="8" width="179.88" height="65" as="geometry" />
        </mxCell>
        <mxCell id="9stf0OVaeOMll12Zxa0v-115" value="&lt;font color=&quot;#adadad&quot;&gt;Task&lt;/font&gt;" style="sketch=0;outlineConnect=0;fontColor=#232F3E;gradientColor=none;fillColor=#D45B07;strokeColor=none;dashed=0;verticalLabelPosition=bottom;verticalAlign=top;align=center;html=1;fontSize=12;fontStyle=0;aspect=fixed;pointerEvents=1;shape=mxgraph.aws4.ecs_task;" vertex="1" parent="9stf0OVaeOMll12Zxa0v-114">
          <mxGeometry x="164" y="47" width="13.88" height="18" as="geometry" />
        </mxCell>
        <mxCell id="9stf0OVaeOMll12Zxa0v-116" value="&lt;font color=&quot;#adadad&quot;&gt;ECS Fargate&lt;/font&gt;" style="sketch=0;points=[[0,0,0],[0.25,0,0],[0.5,0,0],[0.75,0,0],[1,0,0],[0,1,0],[0.25,1,0],[0.5,1,0],[0.75,1,0],[1,1,0],[0,0.25,0],[0,0.5,0],[0,0.75,0],[1,0.25,0],[1,0.5,0],[1,0.75,0]];outlineConnect=0;fontColor=#232F3E;gradientColor=#F78E04;gradientDirection=north;fillColor=#D05C17;strokeColor=#ffffff;dashed=0;verticalLabelPosition=bottom;verticalAlign=top;align=center;html=1;fontSize=12;fontStyle=0;aspect=fixed;shape=mxgraph.aws4.resourceIcon;resIcon=mxgraph.aws4.fargate;" vertex="1" parent="9stf0OVaeOMll12Zxa0v-114">
          <mxGeometry x="80" y="34" width="31" height="31" as="geometry" />
        </mxCell>
        <mxCell id="9stf0OVaeOMll12Zxa0v-117" value="&lt;font color=&quot;#adadad&quot;&gt;ECS Service&lt;/font&gt;" style="sketch=0;points=[[0,0,0],[0.25,0,0],[0.5,0,0],[0.75,0,0],[1,0,0],[0,1,0],[0.25,1,0],[0.5,1,0],[0.75,1,0],[1,1,0],[0,0.25,0],[0,0.5,0],[0,0.75,0],[1,0.25,0],[1,0.5,0],[1,0.75,0]];outlineConnect=0;fontColor=#232F3E;gradientColor=#F78E04;gradientDirection=north;fillColor=#D05C17;strokeColor=#ffffff;dashed=0;verticalLabelPosition=bottom;verticalAlign=top;align=center;html=1;fontSize=12;fontStyle=0;aspect=fixed;shape=mxgraph.aws4.resourceIcon;resIcon=mxgraph.aws4.ecs;" vertex="1" parent="9stf0OVaeOMll12Zxa0v-114">
          <mxGeometry y="34" width="31" height="31" as="geometry" />
        </mxCell>
        <mxCell id="9stf0OVaeOMll12Zxa0v-118" value="&lt;font color=&quot;#adadad&quot;&gt;ECR&lt;/font&gt;" style="sketch=0;points=[[0,0,0],[0.25,0,0],[0.5,0,0],[0.75,0,0],[1,0,0],[0,1,0],[0.25,1,0],[0.5,1,0],[0.75,1,0],[1,1,0],[0,0.25,0],[0,0.5,0],[0,0.75,0],[1,0.25,0],[1,0.5,0],[1,0.75,0]];outlineConnect=0;fontColor=#232F3E;gradientColor=#F78E04;gradientDirection=north;fillColor=#D05C17;strokeColor=#ffffff;dashed=0;verticalLabelPosition=bottom;verticalAlign=top;align=center;html=1;fontSize=12;fontStyle=0;aspect=fixed;shape=mxgraph.aws4.resourceIcon;resIcon=mxgraph.aws4.ecr;" vertex="1" parent="9stf0OVaeOMll12Zxa0v-114">
          <mxGeometry x="159.88" width="20" height="20" as="geometry" />
        </mxCell>
        <mxCell id="9stf0OVaeOMll12Zxa0v-119" value="ECS Fargate" style="rounded=1;arcSize=10;dashed=1;fillColor=none;dashPattern=1 1;strokeWidth=2;verticalAlign=top;strokeColor=#d79b00;comic=0;enumerate=0;backgroundOutline=0;snapToPoint=0;labelBackgroundColor=none;gradientColor=default;fillStyle=dots;fontColor=#FF8000;" vertex="1" parent="9stf0OVaeOMll12Zxa0v-113">
          <mxGeometry width="219.5" height="100" as="geometry" />
        </mxCell>
        <mxCell id="S1YV70i-Cic0EkdP-n4v-30" style="edgeStyle=orthogonalEdgeStyle;rounded=0;orthogonalLoop=1;jettySize=auto;html=1;comic=0;enumerate=0;backgroundOutline=0;snapToPoint=0;flowAnimation=1;strokeColor=#82B366;fillColor=#d5e8d4;entryX=0;entryY=0.5;entryDx=0;entryDy=0;fontColor=#82B366;" parent="1" source="S1YV70i-Cic0EkdP-n4v-31" target="9stf0OVaeOMll12Zxa0v-60" edge="1">
          <mxGeometry relative="1" as="geometry">
            <mxPoint x="-2805" y="2521" as="targetPoint" />
          </mxGeometry>
        </mxCell>
        <mxCell id="9stf0OVaeOMll12Zxa0v-66" style="edgeStyle=orthogonalEdgeStyle;rounded=0;orthogonalLoop=1;jettySize=auto;html=1;entryX=0.5;entryY=1;entryDx=0;entryDy=0;entryPerimeter=0;strokeColor=#82B366;flowAnimation=1;fontColor=#82B366;" edge="1" parent="1" source="9stf0OVaeOMll12Zxa0v-60" target="9stf0OVaeOMll12Zxa0v-65">
          <mxGeometry relative="1" as="geometry" />
        </mxCell>
        <mxCell id="9stf0OVaeOMll12Zxa0v-120" style="edgeStyle=orthogonalEdgeStyle;rounded=0;orthogonalLoop=1;jettySize=auto;html=1;entryX=0.5;entryY=1;entryDx=0;entryDy=0;entryPerimeter=0;strokeColor=#82B366;flowAnimation=1;fontColor=#82B366;" edge="1" parent="1" source="9stf0OVaeOMll12Zxa0v-65" target="9stf0OVaeOMll12Zxa0v-61">
          <mxGeometry relative="1" as="geometry" />
        </mxCell>
        <mxCell id="9stf0OVaeOMll12Zxa0v-53" style="edgeStyle=orthogonalEdgeStyle;rounded=0;orthogonalLoop=1;jettySize=auto;html=1;entryX=0.75;entryY=1;entryDx=0;entryDy=0;entryPerimeter=0;exitX=1;exitY=0.25;exitDx=0;exitDy=0;flowAnimation=1;strokeColor=#82B366;fontColor=#82B366;" edge="1" parent="1" source="9stf0OVaeOMll12Zxa0v-1" target="9stf0OVaeOMll12Zxa0v-45">
          <mxGeometry relative="1" as="geometry" />
        </mxCell>
        <mxCell id="9stf0OVaeOMll12Zxa0v-59" style="edgeStyle=orthogonalEdgeStyle;rounded=0;orthogonalLoop=1;jettySize=auto;html=1;entryX=0.25;entryY=0;entryDx=0;entryDy=0;entryPerimeter=0;flowAnimation=1;strokeColor=#82B366;fontColor=#82B366;" edge="1" parent="1" source="9stf0OVaeOMll12Zxa0v-1" target="uHjebypNSSiit5n2voSn-2">
          <mxGeometry relative="1" as="geometry" />
        </mxCell>
        <mxCell id="9stf0OVaeOMll12Zxa0v-122" value="" style="group" vertex="1" connectable="0" parent="1">
          <mxGeometry x="-1378" y="1669" width="208.5" height="42" as="geometry" />
        </mxCell>
        <mxCell id="S1YV70i-Cic0EkdP-n4v-15" value="TECNO CT" style="text;html=1;strokeColor=none;fillColor=none;align=center;verticalAlign=middle;whiteSpace=wrap;rounded=0;fontSize=38;fontColor=#212121;" parent="9stf0OVaeOMll12Zxa0v-122" vertex="1">
          <mxGeometry y="2" width="206.5" height="40" as="geometry" />
        </mxCell>
        <mxCell id="S1YV70i-Cic0EkdP-n4v-1" value="&lt;font style=&quot;font-size: 38px;&quot;&gt;TECNO CT&lt;/font&gt;" style="text;html=1;strokeColor=none;fillColor=none;align=center;verticalAlign=middle;whiteSpace=wrap;rounded=0;fontSize=38;fontColor=#4A4A4A;movable=1;resizable=1;rotatable=1;deletable=1;editable=1;locked=0;connectable=1;" parent="9stf0OVaeOMll12Zxa0v-122" vertex="1">
          <mxGeometry x="2" width="206.5" height="40" as="geometry" />
        </mxCell>
        <mxCell id="S1YV70i-Cic0EkdP-n4v-3" value="VPC (ex: 10.100.0.0/16)" style="points=[[0,0],[0.25,0],[0.5,0],[0.75,0],[1,0],[1,0.25],[1,0.5],[1,0.75],[1,1],[0.75,1],[0.5,1],[0.25,1],[0,1],[0,0.75],[0,0.5],[0,0.25]];outlineConnect=0;gradientColor=none;html=1;whiteSpace=wrap;fontSize=12;fontStyle=0;container=0;pointerEvents=0;collapsible=0;recursiveResize=0;shape=mxgraph.aws4.group;grIcon=mxgraph.aws4.group_vpc;strokeColor=#248814;fillColor=none;verticalAlign=top;align=left;spacingLeft=30;fontColor=#A0A8B3;dashed=0;comic=0;enumerate=0;backgroundOutline=0;snapToPoint=0;" parent="1" vertex="1">
          <mxGeometry x="-1258" y="1142" width="710" height="617" as="geometry" />
        </mxCell>
        <mxCell id="S1YV70i-Cic0EkdP-n4v-16" value="Região &lt;br&gt;(São Paulo)" style="points=[[0,0],[0.25,0],[0.5,0],[0.75,0],[1,0],[1,0.25],[1,0.5],[1,0.75],[1,1],[0.75,1],[0.5,1],[0.25,1],[0,1],[0,0.75],[0,0.5],[0,0.25]];outlineConnect=0;gradientColor=none;html=1;whiteSpace=wrap;fontSize=12;fontStyle=0;container=1;pointerEvents=0;collapsible=0;recursiveResize=0;shape=mxgraph.aws4.group;grIcon=mxgraph.aws4.group_region;strokeColor=#147EBA;fillColor=none;verticalAlign=top;align=left;spacingLeft=30;fontColor=#147EBA;dashed=1;comic=0;enumerate=0;backgroundOutline=0;snapToPoint=0;" parent="1" vertex="1">
          <mxGeometry x="-1378" y="1132" width="840" height="637" as="geometry" />
        </mxCell>
        <mxCell id="9stf0OVaeOMll12Zxa0v-54" style="edgeStyle=orthogonalEdgeStyle;rounded=0;orthogonalLoop=1;jettySize=auto;html=1;entryX=0.25;entryY=1;entryDx=0;entryDy=0;entryPerimeter=0;exitX=1;exitY=0.5;exitDx=0;exitDy=0;flowAnimation=1;strokeColor=#82B366;fontColor=#82B366;" edge="1" parent="S1YV70i-Cic0EkdP-n4v-16" source="S1YV70i-Cic0EkdP-n4v-17" target="9stf0OVaeOMll12Zxa0v-45">
          <mxGeometry relative="1" as="geometry" />
        </mxCell>
        <mxCell id="9stf0OVaeOMll12Zxa0v-56" style="edgeStyle=orthogonalEdgeStyle;rounded=0;orthogonalLoop=1;jettySize=auto;html=1;entryX=0.75;entryY=0;entryDx=0;entryDy=0;entryPerimeter=0;flowAnimation=1;strokeColor=#82B366;fontColor=#82B366;" edge="1" parent="S1YV70i-Cic0EkdP-n4v-16" source="S1YV70i-Cic0EkdP-n4v-17" target="uHjebypNSSiit5n2voSn-2">
          <mxGeometry relative="1" as="geometry">
            <Array as="points">
              <mxPoint x="716" y="177" />
              <mxPoint x="716" y="521" />
            </Array>
          </mxGeometry>
        </mxCell>
        <mxCell id="S1YV70i-Cic0EkdP-n4v-17" value="AZ-A" style="fillColor=none;strokeColor=#147EBA;dashed=1;verticalAlign=top;fontStyle=0;fontColor=#147EBA;whiteSpace=wrap;html=1;comic=0;enumerate=0;backgroundOutline=0;snapToPoint=0;" parent="S1YV70i-Cic0EkdP-n4v-16" vertex="1">
          <mxGeometry x="350" y="46" width="250" height="169" as="geometry" />
        </mxCell>
        <mxCell id="9stf0OVaeOMll12Zxa0v-125" style="edgeStyle=orthogonalEdgeStyle;rounded=0;orthogonalLoop=1;jettySize=auto;html=1;entryX=0;entryY=0.5;entryDx=0;entryDy=0;strokeColor=#82B366;flowAnimation=1;fontColor=#82B366;" edge="1" parent="S1YV70i-Cic0EkdP-n4v-16" source="S1YV70i-Cic0EkdP-n4v-29" target="S1YV70i-Cic0EkdP-n4v-17">
          <mxGeometry relative="1" as="geometry">
            <Array as="points">
              <mxPoint x="227" y="131" />
            </Array>
          </mxGeometry>
        </mxCell>
        <mxCell id="S1YV70i-Cic0EkdP-n4v-29" value="Application Load&lt;br&gt;Balancer" style="sketch=0;outlineConnect=0;fontColor=#adadad;gradientColor=none;fillColor=#4D27AA;strokeColor=none;dashed=0;verticalLabelPosition=bottom;verticalAlign=top;align=center;html=1;fontSize=12;fontStyle=0;aspect=fixed;pointerEvents=1;shape=mxgraph.aws4.application_load_balancer;comic=0;enumerate=0;backgroundOutline=0;snapToPoint=0;" parent="S1YV70i-Cic0EkdP-n4v-16" vertex="1">
          <mxGeometry x="199.6300000000001" y="291" width="55" height="55" as="geometry" />
        </mxCell>
        <mxCell id="9stf0OVaeOMll12Zxa0v-45" value="&lt;font color=&quot;#adadad&quot;&gt;EFS&lt;/font&gt;" style="sketch=0;points=[[0,0,0],[0.25,0,0],[0.5,0,0],[0.75,0,0],[1,0,0],[0,1,0],[0.25,1,0],[0.5,1,0],[0.75,1,0],[1,1,0],[0,0.25,0],[0,0.5,0],[0,0.75,0],[1,0.25,0],[1,0.5,0],[1,0.75,0]];outlineConnect=0;fontColor=#232F3E;gradientColor=#60A337;gradientDirection=north;fillColor=#277116;strokeColor=#ffffff;dashed=0;verticalLabelPosition=top;verticalAlign=bottom;align=center;html=1;fontSize=12;fontStyle=0;aspect=fixed;shape=mxgraph.aws4.resourceIcon;resIcon=mxgraph.aws4.efs_standard;labelPosition=center;" vertex="1" parent="S1YV70i-Cic0EkdP-n4v-16">
          <mxGeometry x="619.5" y="33" width="55" height="55" as="geometry" />
        </mxCell>
        <mxCell id="uHjebypNSSiit5n2voSn-2" value="&lt;font color=&quot;#adadad&quot;&gt;RDS &lt;br&gt;Aurora MySql&lt;/font&gt;" style="sketch=0;points=[[0,0,0],[0.25,0,0],[0.5,0,0],[0.75,0,0],[1,0,0],[0,1,0],[0.25,1,0],[0.5,1,0],[0.75,1,0],[1,1,0],[0,0.25,0],[0,0.5,0],[0,0.75,0],[1,0.25,0],[1,0.5,0],[1,0.75,0]];outlineConnect=0;fontColor=#232F3E;gradientColor=#4D72F3;gradientDirection=north;fillColor=#3334B9;strokeColor=#ffffff;dashed=0;verticalLabelPosition=bottom;verticalAlign=top;align=center;html=1;fontSize=12;fontStyle=0;aspect=fixed;shape=mxgraph.aws4.resourceIcon;resIcon=mxgraph.aws4.rds;" parent="S1YV70i-Cic0EkdP-n4v-16" vertex="1">
          <mxGeometry x="673.5" y="521" width="55" height="55" as="geometry" />
        </mxCell>
        <mxCell id="9stf0OVaeOMll12Zxa0v-146" value="&lt;font color=&quot;#adadad&quot;&gt;Internet&lt;br&gt;gateway&lt;/font&gt;" style="sketch=0;outlineConnect=0;fontColor=#232F3E;gradientColor=none;strokeColor=#232F3E;fillColor=#000000;dashed=0;verticalLabelPosition=bottom;verticalAlign=top;align=center;html=1;fontSize=12;fontStyle=0;aspect=fixed;shape=mxgraph.aws4.resourceIcon;resIcon=mxgraph.aws4.internet_gateway;" vertex="1" parent="S1YV70i-Cic0EkdP-n4v-16">
          <mxGeometry x="90" y="67" width="55" height="55" as="geometry" />
        </mxCell>
        <mxCell id="9stf0OVaeOMll12Zxa0v-147" value="Internet&#xa;gateway" style="sketch=0;outlineConnect=0;fontColor=#ADADAD;gradientColor=none;strokeColor=#232F3E;fillColor=#000000;dashed=0;verticalLabelPosition=bottom;verticalAlign=top;align=center;html=1;fontSize=12;fontStyle=0;aspect=fixed;shape=mxgraph.aws4.resourceIcon;resIcon=mxgraph.aws4.internet_gateway;" vertex="1" parent="S1YV70i-Cic0EkdP-n4v-16">
          <mxGeometry x="90" y="706" width="60" height="60" as="geometry" />
        </mxCell>
        <mxCell id="9stf0OVaeOMll12Zxa0v-52" style="edgeStyle=orthogonalEdgeStyle;rounded=0;orthogonalLoop=1;jettySize=auto;html=1;flowAnimation=1;strokeColor=#82B366;fontColor=#82B366;" edge="1" parent="1" source="S1YV70i-Cic0EkdP-n4v-5" target="9stf0OVaeOMll12Zxa0v-45">
          <mxGeometry relative="1" as="geometry" />
        </mxCell>
        <mxCell id="9stf0OVaeOMll12Zxa0v-29" value="" style="group" vertex="1" connectable="0" parent="1">
          <mxGeometry x="-1077" y="1199" width="229" height="140" as="geometry" />
        </mxCell>
        <mxCell id="S1YV70i-Cic0EkdP-n4v-6" value="Private subnet" style="points=[[0,0],[0.25,0],[0.5,0],[0.75,0],[1,0],[1,0.25],[1,0.5],[1,0.75],[1,1],[0.75,1],[0.5,1],[0.25,1],[0,1],[0,0.75],[0,0.5],[0,0.25]];outlineConnect=0;gradientColor=none;html=1;whiteSpace=wrap;fontSize=12;fontStyle=0;container=1;pointerEvents=0;collapsible=0;recursiveResize=0;shape=mxgraph.aws4.group;grIcon=mxgraph.aws4.group_security_group;grStroke=0;strokeColor=#147EBA;fillColor=#102b38;verticalAlign=top;align=left;spacingLeft=30;fontColor=#147EBA;dashed=0;comic=0;enumerate=0;backgroundOutline=0;snapToPoint=0;" parent="9stf0OVaeOMll12Zxa0v-29" vertex="1">
          <mxGeometry width="229" height="140" as="geometry" />
        </mxCell>
        <mxCell id="9stf0OVaeOMll12Zxa0v-20" value="" style="group" vertex="1" connectable="0" parent="9stf0OVaeOMll12Zxa0v-29">
          <mxGeometry x="4.75" y="32" width="219.5" height="100" as="geometry" />
        </mxCell>
        <mxCell id="9stf0OVaeOMll12Zxa0v-19" value="" style="group" vertex="1" connectable="0" parent="9stf0OVaeOMll12Zxa0v-20">
          <mxGeometry x="27.25" y="8" width="179.88" height="65" as="geometry" />
        </mxCell>
        <mxCell id="9stf0OVaeOMll12Zxa0v-15" value="&lt;font color=&quot;#adadad&quot;&gt;Task&lt;/font&gt;" style="sketch=0;outlineConnect=0;fontColor=#232F3E;gradientColor=none;fillColor=#D45B07;strokeColor=none;dashed=0;verticalLabelPosition=bottom;verticalAlign=top;align=center;html=1;fontSize=12;fontStyle=0;aspect=fixed;pointerEvents=1;shape=mxgraph.aws4.ecs_task;" vertex="1" parent="9stf0OVaeOMll12Zxa0v-19">
          <mxGeometry x="164" y="47" width="13.88" height="18" as="geometry" />
        </mxCell>
        <mxCell id="9stf0OVaeOMll12Zxa0v-16" value="&lt;font color=&quot;#adadad&quot;&gt;ECS Fargate&lt;/font&gt;" style="sketch=0;points=[[0,0,0],[0.25,0,0],[0.5,0,0],[0.75,0,0],[1,0,0],[0,1,0],[0.25,1,0],[0.5,1,0],[0.75,1,0],[1,1,0],[0,0.25,0],[0,0.5,0],[0,0.75,0],[1,0.25,0],[1,0.5,0],[1,0.75,0]];outlineConnect=0;fontColor=#232F3E;gradientColor=#F78E04;gradientDirection=north;fillColor=#D05C17;strokeColor=#ffffff;dashed=0;verticalLabelPosition=bottom;verticalAlign=top;align=center;html=1;fontSize=12;fontStyle=0;aspect=fixed;shape=mxgraph.aws4.resourceIcon;resIcon=mxgraph.aws4.fargate;" vertex="1" parent="9stf0OVaeOMll12Zxa0v-19">
          <mxGeometry x="80" y="34" width="31" height="31" as="geometry" />
        </mxCell>
        <mxCell id="9stf0OVaeOMll12Zxa0v-17" value="&lt;font color=&quot;#adadad&quot;&gt;ECS Service&lt;/font&gt;" style="sketch=0;points=[[0,0,0],[0.25,0,0],[0.5,0,0],[0.75,0,0],[1,0,0],[0,1,0],[0.25,1,0],[0.5,1,0],[0.75,1,0],[1,1,0],[0,0.25,0],[0,0.5,0],[0,0.75,0],[1,0.25,0],[1,0.5,0],[1,0.75,0]];outlineConnect=0;fontColor=#232F3E;gradientColor=#F78E04;gradientDirection=north;fillColor=#D05C17;strokeColor=#ffffff;dashed=0;verticalLabelPosition=bottom;verticalAlign=top;align=center;html=1;fontSize=12;fontStyle=0;aspect=fixed;shape=mxgraph.aws4.resourceIcon;resIcon=mxgraph.aws4.ecs;" vertex="1" parent="9stf0OVaeOMll12Zxa0v-19">
          <mxGeometry y="34" width="31" height="31" as="geometry" />
        </mxCell>
        <mxCell id="9stf0OVaeOMll12Zxa0v-18" value="&lt;font color=&quot;#adadad&quot;&gt;ECR&lt;/font&gt;" style="sketch=0;points=[[0,0,0],[0.25,0,0],[0.5,0,0],[0.75,0,0],[1,0,0],[0,1,0],[0.25,1,0],[0.5,1,0],[0.75,1,0],[1,1,0],[0,0.25,0],[0,0.5,0],[0,0.75,0],[1,0.25,0],[1,0.5,0],[1,0.75,0]];outlineConnect=0;fontColor=#232F3E;gradientColor=#F78E04;gradientDirection=north;fillColor=#D05C17;strokeColor=#ffffff;dashed=0;verticalLabelPosition=bottom;verticalAlign=top;align=center;html=1;fontSize=12;fontStyle=0;aspect=fixed;shape=mxgraph.aws4.resourceIcon;resIcon=mxgraph.aws4.ecr;" vertex="1" parent="9stf0OVaeOMll12Zxa0v-19">
          <mxGeometry x="159.88" width="20" height="20" as="geometry" />
        </mxCell>
        <mxCell id="9stf0OVaeOMll12Zxa0v-14" value="ECS Fargate" style="rounded=1;arcSize=10;dashed=1;fillColor=none;dashPattern=1 1;strokeWidth=2;verticalAlign=top;strokeColor=#d79b00;comic=0;enumerate=0;backgroundOutline=0;snapToPoint=0;labelBackgroundColor=none;gradientColor=default;fillStyle=dots;fontColor=#FF8000;" vertex="1" parent="9stf0OVaeOMll12Zxa0v-20">
          <mxGeometry width="219.5" height="100" as="geometry" />
        </mxCell>
        <mxCell id="9stf0OVaeOMll12Zxa0v-39" value="" style="group" vertex="1" connectable="0" parent="1">
          <mxGeometry x="-1088" y="1367" width="250" height="167" as="geometry" />
        </mxCell>
        <mxCell id="S1YV70i-Cic0EkdP-n4v-5" value="AZ-B" style="fillColor=none;strokeColor=#147EBA;dashed=1;verticalAlign=top;fontStyle=0;fontColor=#147EBA;whiteSpace=wrap;html=1;comic=0;enumerate=0;backgroundOutline=0;snapToPoint=0;" parent="9stf0OVaeOMll12Zxa0v-39" vertex="1">
          <mxGeometry width="250" height="167" as="geometry" />
        </mxCell>
        <mxCell id="9stf0OVaeOMll12Zxa0v-30" value="" style="group" vertex="1" connectable="0" parent="9stf0OVaeOMll12Zxa0v-39">
          <mxGeometry x="11" y="25" width="229" height="140" as="geometry" />
        </mxCell>
        <mxCell id="S1YV70i-Cic0EkdP-n4v-10" value="Private subnet" style="points=[[0,0],[0.25,0],[0.5,0],[0.75,0],[1,0],[1,0.25],[1,0.5],[1,0.75],[1,1],[0.75,1],[0.5,1],[0.25,1],[0,1],[0,0.75],[0,0.5],[0,0.25]];outlineConnect=0;gradientColor=none;html=1;whiteSpace=wrap;fontSize=12;fontStyle=0;container=1;pointerEvents=0;collapsible=0;recursiveResize=0;shape=mxgraph.aws4.group;grIcon=mxgraph.aws4.group_security_group;grStroke=0;strokeColor=#147EBA;fillColor=#102b38;verticalAlign=top;align=left;spacingLeft=30;fontColor=#147EBA;dashed=0;comic=0;enumerate=0;backgroundOutline=0;snapToPoint=0;" parent="9stf0OVaeOMll12Zxa0v-30" vertex="1">
          <mxGeometry width="229" height="140" as="geometry" />
        </mxCell>
        <mxCell id="9stf0OVaeOMll12Zxa0v-21" value="" style="group" vertex="1" connectable="0" parent="9stf0OVaeOMll12Zxa0v-30">
          <mxGeometry x="3.75" y="29" width="219.5" height="100" as="geometry" />
        </mxCell>
        <mxCell id="9stf0OVaeOMll12Zxa0v-22" value="" style="group" vertex="1" connectable="0" parent="9stf0OVaeOMll12Zxa0v-21">
          <mxGeometry x="27.25" y="8" width="179.88" height="65" as="geometry" />
        </mxCell>
        <mxCell id="9stf0OVaeOMll12Zxa0v-23" value="&lt;font color=&quot;#adadad&quot;&gt;Task&lt;/font&gt;" style="sketch=0;outlineConnect=0;fontColor=#232F3E;gradientColor=none;fillColor=#D45B07;strokeColor=none;dashed=0;verticalLabelPosition=bottom;verticalAlign=top;align=center;html=1;fontSize=12;fontStyle=0;aspect=fixed;pointerEvents=1;shape=mxgraph.aws4.ecs_task;" vertex="1" parent="9stf0OVaeOMll12Zxa0v-22">
          <mxGeometry x="164" y="47" width="13.88" height="18" as="geometry" />
        </mxCell>
        <mxCell id="9stf0OVaeOMll12Zxa0v-24" value="&lt;font color=&quot;#adadad&quot;&gt;ECS Fargate&lt;/font&gt;" style="sketch=0;points=[[0,0,0],[0.25,0,0],[0.5,0,0],[0.75,0,0],[1,0,0],[0,1,0],[0.25,1,0],[0.5,1,0],[0.75,1,0],[1,1,0],[0,0.25,0],[0,0.5,0],[0,0.75,0],[1,0.25,0],[1,0.5,0],[1,0.75,0]];outlineConnect=0;fontColor=#232F3E;gradientColor=#F78E04;gradientDirection=north;fillColor=#D05C17;strokeColor=#ffffff;dashed=0;verticalLabelPosition=bottom;verticalAlign=top;align=center;html=1;fontSize=12;fontStyle=0;aspect=fixed;shape=mxgraph.aws4.resourceIcon;resIcon=mxgraph.aws4.fargate;" vertex="1" parent="9stf0OVaeOMll12Zxa0v-22">
          <mxGeometry x="80" y="34" width="31" height="31" as="geometry" />
        </mxCell>
        <mxCell id="9stf0OVaeOMll12Zxa0v-25" value="&lt;font color=&quot;#adadad&quot;&gt;ECS Service&lt;/font&gt;" style="sketch=0;points=[[0,0,0],[0.25,0,0],[0.5,0,0],[0.75,0,0],[1,0,0],[0,1,0],[0.25,1,0],[0.5,1,0],[0.75,1,0],[1,1,0],[0,0.25,0],[0,0.5,0],[0,0.75,0],[1,0.25,0],[1,0.5,0],[1,0.75,0]];outlineConnect=0;fontColor=#232F3E;gradientColor=#F78E04;gradientDirection=north;fillColor=#D05C17;strokeColor=#ffffff;dashed=0;verticalLabelPosition=bottom;verticalAlign=top;align=center;html=1;fontSize=12;fontStyle=0;aspect=fixed;shape=mxgraph.aws4.resourceIcon;resIcon=mxgraph.aws4.ecs;" vertex="1" parent="9stf0OVaeOMll12Zxa0v-22">
          <mxGeometry y="34" width="31" height="31" as="geometry" />
        </mxCell>
        <mxCell id="9stf0OVaeOMll12Zxa0v-26" value="&lt;font color=&quot;#adadad&quot;&gt;ECR&lt;/font&gt;" style="sketch=0;points=[[0,0,0],[0.25,0,0],[0.5,0,0],[0.75,0,0],[1,0,0],[0,1,0],[0.25,1,0],[0.5,1,0],[0.75,1,0],[1,1,0],[0,0.25,0],[0,0.5,0],[0,0.75,0],[1,0.25,0],[1,0.5,0],[1,0.75,0]];outlineConnect=0;fontColor=#232F3E;gradientColor=#F78E04;gradientDirection=north;fillColor=#D05C17;strokeColor=#ffffff;dashed=0;verticalLabelPosition=bottom;verticalAlign=top;align=center;html=1;fontSize=12;fontStyle=0;aspect=fixed;shape=mxgraph.aws4.resourceIcon;resIcon=mxgraph.aws4.ecr;" vertex="1" parent="9stf0OVaeOMll12Zxa0v-22">
          <mxGeometry x="159.88" width="20" height="20" as="geometry" />
        </mxCell>
        <mxCell id="9stf0OVaeOMll12Zxa0v-27" value="ECS Fargate" style="rounded=1;arcSize=10;dashed=1;fillColor=none;dashPattern=1 1;strokeWidth=2;verticalAlign=top;strokeColor=#d79b00;comic=0;enumerate=0;backgroundOutline=0;snapToPoint=0;labelBackgroundColor=none;gradientColor=default;fillStyle=dots;fontColor=#FF8000;" vertex="1" parent="9stf0OVaeOMll12Zxa0v-21">
          <mxGeometry width="219.5" height="100" as="geometry" />
        </mxCell>
        <mxCell id="9stf0OVaeOMll12Zxa0v-124" style="edgeStyle=orthogonalEdgeStyle;rounded=0;orthogonalLoop=1;jettySize=auto;html=1;entryX=0;entryY=0.5;entryDx=0;entryDy=0;strokeColor=#82B366;flowAnimation=1;fontColor=#82B366;" edge="1" parent="1" source="S1YV70i-Cic0EkdP-n4v-29" target="9stf0OVaeOMll12Zxa0v-1">
          <mxGeometry relative="1" as="geometry">
            <Array as="points">
              <mxPoint x="-1151" y="1633" />
            </Array>
          </mxGeometry>
        </mxCell>
        <mxCell id="9stf0OVaeOMll12Zxa0v-148" value="Text" style="edgeLabel;html=1;align=center;verticalAlign=middle;resizable=0;points=[];" vertex="1" connectable="0" parent="9stf0OVaeOMll12Zxa0v-124">
          <mxGeometry x="-0.7928" y="5" relative="1" as="geometry">
            <mxPoint as="offset" />
          </mxGeometry>
        </mxCell>
        <mxCell id="9stf0OVaeOMll12Zxa0v-126" style="edgeStyle=orthogonalEdgeStyle;rounded=0;orthogonalLoop=1;jettySize=auto;html=1;entryX=0;entryY=0.5;entryDx=0;entryDy=0;strokeColor=#82B366;flowAnimation=1;fontColor=#82B366;" edge="1" parent="1" source="S1YV70i-Cic0EkdP-n4v-29" target="S1YV70i-Cic0EkdP-n4v-5">
          <mxGeometry relative="1" as="geometry" />
        </mxCell>
        <mxCell id="9stf0OVaeOMll12Zxa0v-129" style="edgeStyle=orthogonalEdgeStyle;rounded=0;orthogonalLoop=1;jettySize=auto;html=1;exitX=1;exitY=0.75;exitDx=0;exitDy=0;entryX=0.5;entryY=0;entryDx=0;entryDy=0;entryPerimeter=0;strokeColor=#82B366;flowAnimation=1;fontColor=#82B366;" edge="1" parent="1" source="S1YV70i-Cic0EkdP-n4v-5" target="uHjebypNSSiit5n2voSn-2">
          <mxGeometry relative="1" as="geometry" />
        </mxCell>
        <mxCell id="9stf0OVaeOMll12Zxa0v-130" style="edgeStyle=orthogonalEdgeStyle;rounded=0;orthogonalLoop=1;jettySize=auto;html=1;exitX=1;exitY=0.25;exitDx=0;exitDy=0;entryX=0.75;entryY=1;entryDx=0;entryDy=0;entryPerimeter=0;strokeColor=#82B366;flowAnimation=1;fontColor=#82B366;" edge="1" parent="1" source="9stf0OVaeOMll12Zxa0v-110" target="9stf0OVaeOMll12Zxa0v-104">
          <mxGeometry relative="1" as="geometry" />
        </mxCell>
        <mxCell id="9stf0OVaeOMll12Zxa0v-132" style="edgeStyle=orthogonalEdgeStyle;rounded=0;orthogonalLoop=1;jettySize=auto;html=1;entryX=0.25;entryY=0;entryDx=0;entryDy=0;entryPerimeter=0;strokeColor=#82B366;flowAnimation=1;fontColor=#82B366;" edge="1" parent="1" source="9stf0OVaeOMll12Zxa0v-110" target="9stf0OVaeOMll12Zxa0v-105">
          <mxGeometry relative="1" as="geometry" />
        </mxCell>
        <mxCell id="9stf0OVaeOMll12Zxa0v-137" style="edgeStyle=orthogonalEdgeStyle;rounded=0;orthogonalLoop=1;jettySize=auto;html=1;entryX=0;entryY=0.5;entryDx=0;entryDy=0;strokeColor=#82B366;flowAnimation=1;fontColor=#82B366;" edge="1" parent="1" source="9stf0OVaeOMll12Zxa0v-103" target="9stf0OVaeOMll12Zxa0v-110">
          <mxGeometry relative="1" as="geometry">
            <Array as="points">
              <mxPoint x="-1209" y="2283" />
            </Array>
          </mxGeometry>
        </mxCell>
        <mxCell id="9stf0OVaeOMll12Zxa0v-138" value="" style="group" vertex="1" connectable="0" parent="1">
          <mxGeometry x="-1378" y="2339" width="208.5" height="42" as="geometry" />
        </mxCell>
        <mxCell id="9stf0OVaeOMll12Zxa0v-139" value="TECNO CT" style="text;html=1;strokeColor=none;fillColor=none;align=center;verticalAlign=middle;whiteSpace=wrap;rounded=0;fontSize=38;fontColor=#212121;" vertex="1" parent="9stf0OVaeOMll12Zxa0v-138">
          <mxGeometry y="2" width="206.5" height="40" as="geometry" />
        </mxCell>
        <mxCell id="9stf0OVaeOMll12Zxa0v-140" value="&lt;font style=&quot;font-size: 38px;&quot;&gt;TECNO CT&lt;/font&gt;" style="text;html=1;strokeColor=none;fillColor=none;align=center;verticalAlign=middle;whiteSpace=wrap;rounded=0;fontSize=38;fontColor=#4A4A4A;movable=1;resizable=1;rotatable=1;deletable=1;editable=1;locked=0;connectable=1;" vertex="1" parent="9stf0OVaeOMll12Zxa0v-138">
          <mxGeometry x="2" width="206.5" height="40" as="geometry" />
        </mxCell>
        <mxCell id="9stf0OVaeOMll12Zxa0v-141" style="edgeStyle=orthogonalEdgeStyle;rounded=0;orthogonalLoop=1;jettySize=auto;html=1;entryX=1;entryY=0.5;entryDx=0;entryDy=0;entryPerimeter=0;fontColor=#82B366;flowAnimation=1;strokeColor=#82B366;" edge="1" parent="1" source="9stf0OVaeOMll12Zxa0v-45" target="9stf0OVaeOMll12Zxa0v-104">
          <mxGeometry relative="1" as="geometry">
            <Array as="points">
              <mxPoint x="-608" y="1193" />
              <mxPoint x="-608" y="1840" />
            </Array>
          </mxGeometry>
        </mxCell>
        <mxCell id="9stf0OVaeOMll12Zxa0v-142" style="edgeStyle=orthogonalEdgeStyle;rounded=0;orthogonalLoop=1;jettySize=auto;html=1;entryX=1;entryY=0.5;entryDx=0;entryDy=0;entryPerimeter=0;fontColor=#82B366;flowAnimation=1;strokeColor=#82B366;" edge="1" parent="1" source="uHjebypNSSiit5n2voSn-2" target="9stf0OVaeOMll12Zxa0v-105">
          <mxGeometry relative="1" as="geometry">
            <Array as="points">
              <mxPoint x="-578" y="1680" />
              <mxPoint x="-578" y="2331" />
            </Array>
          </mxGeometry>
        </mxCell>
        <mxCell id="9stf0OVaeOMll12Zxa0v-74" value="VPC (ex: 20.100.0.0/16)" style="points=[[0,0],[0.25,0],[0.5,0],[0.75,0],[1,0],[1,0.25],[1,0.5],[1,0.75],[1,1],[0.75,1],[0.5,1],[0.25,1],[0,1],[0,0.75],[0,0.5],[0,0.25]];outlineConnect=0;gradientColor=none;html=1;whiteSpace=wrap;fontSize=12;fontStyle=0;container=0;pointerEvents=0;collapsible=0;recursiveResize=0;shape=mxgraph.aws4.group;grIcon=mxgraph.aws4.group_vpc;strokeColor=#248814;fillColor=none;verticalAlign=top;align=left;spacingLeft=30;fontColor=#A0A8B3;dashed=0;comic=0;enumerate=0;backgroundOutline=0;snapToPoint=0;" vertex="1" parent="1">
          <mxGeometry x="-1258" y="1790" width="710" height="629" as="geometry" />
        </mxCell>
        <mxCell id="9stf0OVaeOMll12Zxa0v-96" value="Região &lt;br&gt;(Virginia)" style="points=[[0,0],[0.25,0],[0.5,0],[0.75,0],[1,0],[1,0.25],[1,0.5],[1,0.75],[1,1],[0.75,1],[0.5,1],[0.25,1],[0,1],[0,0.75],[0,0.5],[0,0.25]];outlineConnect=0;gradientColor=none;html=1;whiteSpace=wrap;fontSize=12;fontStyle=0;container=0;pointerEvents=0;collapsible=0;recursiveResize=0;shape=mxgraph.aws4.group;grIcon=mxgraph.aws4.group_region;strokeColor=#147EBA;fillColor=none;verticalAlign=top;align=left;spacingLeft=30;fontColor=#147EBA;dashed=1;comic=0;enumerate=0;backgroundOutline=0;snapToPoint=0;" vertex="1" parent="1">
          <mxGeometry x="-1378" y="1780" width="840" height="649" as="geometry" />
        </mxCell>
        <mxCell id="9stf0OVaeOMll12Zxa0v-106" style="edgeStyle=orthogonalEdgeStyle;rounded=0;orthogonalLoop=1;jettySize=auto;html=1;flowAnimation=1;strokeColor=#82B366;fontColor=#82B366;" edge="1" parent="1" source="9stf0OVaeOMll12Zxa0v-86" target="9stf0OVaeOMll12Zxa0v-104">
          <mxGeometry relative="1" as="geometry" />
        </mxCell>
        <mxCell id="9stf0OVaeOMll12Zxa0v-131" style="edgeStyle=orthogonalEdgeStyle;rounded=0;orthogonalLoop=1;jettySize=auto;html=1;exitX=1;exitY=0.75;exitDx=0;exitDy=0;entryX=0.5;entryY=0;entryDx=0;entryDy=0;entryPerimeter=0;strokeColor=#82B366;flowAnimation=1;fontColor=#82B366;" edge="1" parent="1" source="9stf0OVaeOMll12Zxa0v-86" target="9stf0OVaeOMll12Zxa0v-105">
          <mxGeometry relative="1" as="geometry" />
        </mxCell>
        <mxCell id="9stf0OVaeOMll12Zxa0v-134" style="edgeStyle=orthogonalEdgeStyle;rounded=0;orthogonalLoop=1;jettySize=auto;html=1;entryX=0;entryY=0.5;entryDx=0;entryDy=0;strokeColor=#82B366;flowAnimation=1;fontColor=#82B366;" edge="1" parent="1" source="9stf0OVaeOMll12Zxa0v-103" target="9stf0OVaeOMll12Zxa0v-86">
          <mxGeometry relative="1" as="geometry" />
        </mxCell>
        <mxCell id="9stf0OVaeOMll12Zxa0v-75" value="ECS" style="rounded=1;arcSize=10;dashed=1;fillColor=none;dashPattern=1 1;strokeWidth=2;verticalAlign=top;strokeColor=#d79b00;comic=0;enumerate=0;backgroundOutline=0;snapToPoint=0;labelBackgroundColor=none;gradientColor=default;fillStyle=dots;fontColor=#FF8000;" vertex="1" parent="1">
          <mxGeometry x="-1098.5" y="1800" width="270" height="580" as="geometry" />
        </mxCell>
        <mxCell id="9stf0OVaeOMll12Zxa0v-76" value="" style="group" vertex="1" connectable="0" parent="1">
          <mxGeometry x="-1077" y="1847" width="229" height="140" as="geometry" />
        </mxCell>
        <mxCell id="9stf0OVaeOMll12Zxa0v-77" value="Private subnet" style="points=[[0,0],[0.25,0],[0.5,0],[0.75,0],[1,0],[1,0.25],[1,0.5],[1,0.75],[1,1],[0.75,1],[0.5,1],[0.25,1],[0,1],[0,0.75],[0,0.5],[0,0.25]];outlineConnect=0;gradientColor=none;html=1;whiteSpace=wrap;fontSize=12;fontStyle=0;container=1;pointerEvents=0;collapsible=0;recursiveResize=0;shape=mxgraph.aws4.group;grIcon=mxgraph.aws4.group_security_group;grStroke=0;strokeColor=#147EBA;fillColor=#102b38;verticalAlign=top;align=left;spacingLeft=30;fontColor=#147EBA;dashed=0;comic=0;enumerate=0;backgroundOutline=0;snapToPoint=0;" vertex="1" parent="9stf0OVaeOMll12Zxa0v-76">
          <mxGeometry width="229" height="140" as="geometry" />
        </mxCell>
        <mxCell id="9stf0OVaeOMll12Zxa0v-78" value="" style="group" vertex="1" connectable="0" parent="9stf0OVaeOMll12Zxa0v-76">
          <mxGeometry x="4.75" y="32" width="219.5" height="100" as="geometry" />
        </mxCell>
        <mxCell id="9stf0OVaeOMll12Zxa0v-79" value="" style="group" vertex="1" connectable="0" parent="9stf0OVaeOMll12Zxa0v-78">
          <mxGeometry x="27.25" y="8" width="179.88" height="65" as="geometry" />
        </mxCell>
        <mxCell id="9stf0OVaeOMll12Zxa0v-80" value="&lt;font color=&quot;#adadad&quot;&gt;Task&lt;/font&gt;" style="sketch=0;outlineConnect=0;fontColor=#232F3E;gradientColor=none;fillColor=#D45B07;strokeColor=none;dashed=0;verticalLabelPosition=bottom;verticalAlign=top;align=center;html=1;fontSize=12;fontStyle=0;aspect=fixed;pointerEvents=1;shape=mxgraph.aws4.ecs_task;" vertex="1" parent="9stf0OVaeOMll12Zxa0v-79">
          <mxGeometry x="164" y="47" width="13.88" height="18" as="geometry" />
        </mxCell>
        <mxCell id="9stf0OVaeOMll12Zxa0v-81" value="&lt;font color=&quot;#adadad&quot;&gt;ECS Fargate&lt;/font&gt;" style="sketch=0;points=[[0,0,0],[0.25,0,0],[0.5,0,0],[0.75,0,0],[1,0,0],[0,1,0],[0.25,1,0],[0.5,1,0],[0.75,1,0],[1,1,0],[0,0.25,0],[0,0.5,0],[0,0.75,0],[1,0.25,0],[1,0.5,0],[1,0.75,0]];outlineConnect=0;fontColor=#232F3E;gradientColor=#F78E04;gradientDirection=north;fillColor=#D05C17;strokeColor=#ffffff;dashed=0;verticalLabelPosition=bottom;verticalAlign=top;align=center;html=1;fontSize=12;fontStyle=0;aspect=fixed;shape=mxgraph.aws4.resourceIcon;resIcon=mxgraph.aws4.fargate;" vertex="1" parent="9stf0OVaeOMll12Zxa0v-79">
          <mxGeometry x="80" y="34" width="31" height="31" as="geometry" />
        </mxCell>
        <mxCell id="9stf0OVaeOMll12Zxa0v-82" value="&lt;font color=&quot;#adadad&quot;&gt;ECS Service&lt;/font&gt;" style="sketch=0;points=[[0,0,0],[0.25,0,0],[0.5,0,0],[0.75,0,0],[1,0,0],[0,1,0],[0.25,1,0],[0.5,1,0],[0.75,1,0],[1,1,0],[0,0.25,0],[0,0.5,0],[0,0.75,0],[1,0.25,0],[1,0.5,0],[1,0.75,0]];outlineConnect=0;fontColor=#232F3E;gradientColor=#F78E04;gradientDirection=north;fillColor=#D05C17;strokeColor=#ffffff;dashed=0;verticalLabelPosition=bottom;verticalAlign=top;align=center;html=1;fontSize=12;fontStyle=0;aspect=fixed;shape=mxgraph.aws4.resourceIcon;resIcon=mxgraph.aws4.ecs;" vertex="1" parent="9stf0OVaeOMll12Zxa0v-79">
          <mxGeometry y="34" width="31" height="31" as="geometry" />
        </mxCell>
        <mxCell id="9stf0OVaeOMll12Zxa0v-83" value="&lt;font color=&quot;#adadad&quot;&gt;ECR&lt;/font&gt;" style="sketch=0;points=[[0,0,0],[0.25,0,0],[0.5,0,0],[0.75,0,0],[1,0,0],[0,1,0],[0.25,1,0],[0.5,1,0],[0.75,1,0],[1,1,0],[0,0.25,0],[0,0.5,0],[0,0.75,0],[1,0.25,0],[1,0.5,0],[1,0.75,0]];outlineConnect=0;fontColor=#232F3E;gradientColor=#F78E04;gradientDirection=north;fillColor=#D05C17;strokeColor=#ffffff;dashed=0;verticalLabelPosition=bottom;verticalAlign=top;align=center;html=1;fontSize=12;fontStyle=0;aspect=fixed;shape=mxgraph.aws4.resourceIcon;resIcon=mxgraph.aws4.ecr;" vertex="1" parent="9stf0OVaeOMll12Zxa0v-79">
          <mxGeometry x="159.88" width="20" height="20" as="geometry" />
        </mxCell>
        <mxCell id="9stf0OVaeOMll12Zxa0v-84" value="ECS Fargate" style="rounded=1;arcSize=10;dashed=1;fillColor=none;dashPattern=1 1;strokeWidth=2;verticalAlign=top;strokeColor=#d79b00;comic=0;enumerate=0;backgroundOutline=0;snapToPoint=0;labelBackgroundColor=none;gradientColor=default;fillStyle=dots;fontColor=#FF8000;" vertex="1" parent="9stf0OVaeOMll12Zxa0v-78">
          <mxGeometry width="219.5" height="100" as="geometry" />
        </mxCell>
        <mxCell id="9stf0OVaeOMll12Zxa0v-85" value="" style="group" vertex="1" connectable="0" parent="1">
          <mxGeometry x="-1088" y="2015" width="250" height="167" as="geometry" />
        </mxCell>
        <mxCell id="9stf0OVaeOMll12Zxa0v-86" value="AZ-B" style="fillColor=none;strokeColor=#147EBA;dashed=1;verticalAlign=top;fontStyle=0;fontColor=#147EBA;whiteSpace=wrap;html=1;comic=0;enumerate=0;backgroundOutline=0;snapToPoint=0;" vertex="1" parent="9stf0OVaeOMll12Zxa0v-85">
          <mxGeometry width="250" height="167" as="geometry" />
        </mxCell>
        <mxCell id="9stf0OVaeOMll12Zxa0v-87" value="" style="group" vertex="1" connectable="0" parent="9stf0OVaeOMll12Zxa0v-85">
          <mxGeometry x="11" y="25" width="229" height="140" as="geometry" />
        </mxCell>
        <mxCell id="9stf0OVaeOMll12Zxa0v-88" value="Private subnet" style="points=[[0,0],[0.25,0],[0.5,0],[0.75,0],[1,0],[1,0.25],[1,0.5],[1,0.75],[1,1],[0.75,1],[0.5,1],[0.25,1],[0,1],[0,0.75],[0,0.5],[0,0.25]];outlineConnect=0;gradientColor=none;html=1;whiteSpace=wrap;fontSize=12;fontStyle=0;container=1;pointerEvents=0;collapsible=0;recursiveResize=0;shape=mxgraph.aws4.group;grIcon=mxgraph.aws4.group_security_group;grStroke=0;strokeColor=#147EBA;fillColor=#102b38;verticalAlign=top;align=left;spacingLeft=30;fontColor=#147EBA;dashed=0;comic=0;enumerate=0;backgroundOutline=0;snapToPoint=0;" vertex="1" parent="9stf0OVaeOMll12Zxa0v-87">
          <mxGeometry width="229" height="140" as="geometry" />
        </mxCell>
        <mxCell id="9stf0OVaeOMll12Zxa0v-89" value="" style="group" vertex="1" connectable="0" parent="9stf0OVaeOMll12Zxa0v-87">
          <mxGeometry x="3.75" y="29" width="219.5" height="100" as="geometry" />
        </mxCell>
        <mxCell id="9stf0OVaeOMll12Zxa0v-90" value="" style="group" vertex="1" connectable="0" parent="9stf0OVaeOMll12Zxa0v-89">
          <mxGeometry x="27.25" y="8" width="179.88" height="65" as="geometry" />
        </mxCell>
        <mxCell id="9stf0OVaeOMll12Zxa0v-91" value="&lt;font color=&quot;#adadad&quot;&gt;Task&lt;/font&gt;" style="sketch=0;outlineConnect=0;fontColor=#232F3E;gradientColor=none;fillColor=#D45B07;strokeColor=none;dashed=0;verticalLabelPosition=bottom;verticalAlign=top;align=center;html=1;fontSize=12;fontStyle=0;aspect=fixed;pointerEvents=1;shape=mxgraph.aws4.ecs_task;" vertex="1" parent="9stf0OVaeOMll12Zxa0v-90">
          <mxGeometry x="164" y="47" width="13.88" height="18" as="geometry" />
        </mxCell>
        <mxCell id="9stf0OVaeOMll12Zxa0v-92" value="&lt;font color=&quot;#adadad&quot;&gt;ECS Fargate&lt;/font&gt;" style="sketch=0;points=[[0,0,0],[0.25,0,0],[0.5,0,0],[0.75,0,0],[1,0,0],[0,1,0],[0.25,1,0],[0.5,1,0],[0.75,1,0],[1,1,0],[0,0.25,0],[0,0.5,0],[0,0.75,0],[1,0.25,0],[1,0.5,0],[1,0.75,0]];outlineConnect=0;fontColor=#232F3E;gradientColor=#F78E04;gradientDirection=north;fillColor=#D05C17;strokeColor=#ffffff;dashed=0;verticalLabelPosition=bottom;verticalAlign=top;align=center;html=1;fontSize=12;fontStyle=0;aspect=fixed;shape=mxgraph.aws4.resourceIcon;resIcon=mxgraph.aws4.fargate;" vertex="1" parent="9stf0OVaeOMll12Zxa0v-90">
          <mxGeometry x="80" y="34" width="31" height="31" as="geometry" />
        </mxCell>
        <mxCell id="9stf0OVaeOMll12Zxa0v-93" value="&lt;font color=&quot;#adadad&quot;&gt;ECS Service&lt;/font&gt;" style="sketch=0;points=[[0,0,0],[0.25,0,0],[0.5,0,0],[0.75,0,0],[1,0,0],[0,1,0],[0.25,1,0],[0.5,1,0],[0.75,1,0],[1,1,0],[0,0.25,0],[0,0.5,0],[0,0.75,0],[1,0.25,0],[1,0.5,0],[1,0.75,0]];outlineConnect=0;fontColor=#232F3E;gradientColor=#F78E04;gradientDirection=north;fillColor=#D05C17;strokeColor=#ffffff;dashed=0;verticalLabelPosition=bottom;verticalAlign=top;align=center;html=1;fontSize=12;fontStyle=0;aspect=fixed;shape=mxgraph.aws4.resourceIcon;resIcon=mxgraph.aws4.ecs;" vertex="1" parent="9stf0OVaeOMll12Zxa0v-90">
          <mxGeometry y="34" width="31" height="31" as="geometry" />
        </mxCell>
        <mxCell id="9stf0OVaeOMll12Zxa0v-94" value="&lt;font color=&quot;#adadad&quot;&gt;ECR&lt;/font&gt;" style="sketch=0;points=[[0,0,0],[0.25,0,0],[0.5,0,0],[0.75,0,0],[1,0,0],[0,1,0],[0.25,1,0],[0.5,1,0],[0.75,1,0],[1,1,0],[0,0.25,0],[0,0.5,0],[0,0.75,0],[1,0.25,0],[1,0.5,0],[1,0.75,0]];outlineConnect=0;fontColor=#232F3E;gradientColor=#F78E04;gradientDirection=north;fillColor=#D05C17;strokeColor=#ffffff;dashed=0;verticalLabelPosition=bottom;verticalAlign=top;align=center;html=1;fontSize=12;fontStyle=0;aspect=fixed;shape=mxgraph.aws4.resourceIcon;resIcon=mxgraph.aws4.ecr;" vertex="1" parent="9stf0OVaeOMll12Zxa0v-90">
          <mxGeometry x="159.88" width="20" height="20" as="geometry" />
        </mxCell>
        <mxCell id="9stf0OVaeOMll12Zxa0v-95" value="ECS Fargate" style="rounded=1;arcSize=10;dashed=1;fillColor=none;dashPattern=1 1;strokeWidth=2;verticalAlign=top;strokeColor=#d79b00;comic=0;enumerate=0;backgroundOutline=0;snapToPoint=0;labelBackgroundColor=none;gradientColor=default;fillStyle=dots;fontColor=#FF8000;" vertex="1" parent="9stf0OVaeOMll12Zxa0v-89">
          <mxGeometry width="219.5" height="100" as="geometry" />
        </mxCell>
        <mxCell id="9stf0OVaeOMll12Zxa0v-97" style="edgeStyle=orthogonalEdgeStyle;rounded=0;orthogonalLoop=1;jettySize=auto;html=1;entryX=0.25;entryY=1;entryDx=0;entryDy=0;entryPerimeter=0;exitX=1;exitY=0.5;exitDx=0;exitDy=0;flowAnimation=1;strokeColor=#82B366;fontColor=#82B366;" edge="1" parent="1" source="9stf0OVaeOMll12Zxa0v-99" target="9stf0OVaeOMll12Zxa0v-104">
          <mxGeometry relative="1" as="geometry" />
        </mxCell>
        <mxCell id="9stf0OVaeOMll12Zxa0v-133" style="edgeStyle=orthogonalEdgeStyle;rounded=0;orthogonalLoop=1;jettySize=auto;html=1;exitX=1;exitY=0.75;exitDx=0;exitDy=0;entryX=0.75;entryY=0;entryDx=0;entryDy=0;entryPerimeter=0;strokeColor=#82B366;flowAnimation=1;fontColor=#82B366;" edge="1" parent="1" source="9stf0OVaeOMll12Zxa0v-99" target="9stf0OVaeOMll12Zxa0v-105">
          <mxGeometry relative="1" as="geometry" />
        </mxCell>
        <mxCell id="9stf0OVaeOMll12Zxa0v-99" value="AZ-A" style="fillColor=none;strokeColor=#147EBA;dashed=1;verticalAlign=top;fontStyle=0;fontColor=#147EBA;whiteSpace=wrap;html=1;comic=0;enumerate=0;backgroundOutline=0;snapToPoint=0;" vertex="1" parent="1">
          <mxGeometry x="-1086.5" y="1826" width="250" height="169" as="geometry" />
        </mxCell>
        <mxCell id="9stf0OVaeOMll12Zxa0v-135" style="edgeStyle=orthogonalEdgeStyle;rounded=0;orthogonalLoop=1;jettySize=auto;html=1;entryX=0;entryY=0.5;entryDx=0;entryDy=0;strokeColor=#82B366;flowAnimation=1;fontColor=#82B366;" edge="1" parent="1" source="9stf0OVaeOMll12Zxa0v-103" target="9stf0OVaeOMll12Zxa0v-99">
          <mxGeometry relative="1" as="geometry">
            <Array as="points">
              <mxPoint x="-1209.5" y="1911" />
            </Array>
          </mxGeometry>
        </mxCell>
        <mxCell id="9stf0OVaeOMll12Zxa0v-103" value="Application Load&lt;br&gt;Balancer" style="sketch=0;outlineConnect=0;fontColor=#adadad;gradientColor=none;fillColor=#4D27AA;strokeColor=none;dashed=0;verticalLabelPosition=bottom;verticalAlign=top;align=center;html=1;fontSize=12;fontStyle=0;aspect=fixed;pointerEvents=1;shape=mxgraph.aws4.application_load_balancer;comic=0;enumerate=0;backgroundOutline=0;snapToPoint=0;" vertex="1" parent="1">
          <mxGeometry x="-1236.87" y="2071" width="55" height="55" as="geometry" />
        </mxCell>
        <mxCell id="9stf0OVaeOMll12Zxa0v-104" value="&lt;font color=&quot;#adadad&quot;&gt;EFS&lt;/font&gt;" style="sketch=0;points=[[0,0,0],[0.25,0,0],[0.5,0,0],[0.75,0,0],[1,0,0],[0,1,0],[0.25,1,0],[0.5,1,0],[0.75,1,0],[1,1,0],[0,0.25,0],[0,0.5,0],[0,0.75,0],[1,0.25,0],[1,0.5,0],[1,0.75,0]];outlineConnect=0;fontColor=#232F3E;gradientColor=#60A337;gradientDirection=north;fillColor=#277116;strokeColor=#ffffff;dashed=0;verticalLabelPosition=top;verticalAlign=bottom;align=center;html=1;fontSize=12;fontStyle=0;aspect=fixed;shape=mxgraph.aws4.resourceIcon;resIcon=mxgraph.aws4.efs_standard;labelPosition=center;" vertex="1" parent="1">
          <mxGeometry x="-817" y="1813" width="55" height="55" as="geometry" />
        </mxCell>
        <mxCell id="9stf0OVaeOMll12Zxa0v-105" value="&lt;font color=&quot;#adadad&quot;&gt;RDS &lt;br&gt;Aurora MySql &lt;br&gt;(Replica)&lt;/font&gt;" style="sketch=0;points=[[0,0,0],[0.25,0,0],[0.5,0,0],[0.75,0,0],[1,0,0],[0,1,0],[0.25,1,0],[0.5,1,0],[0.75,1,0],[1,1,0],[0,0.25,0],[0,0.5,0],[0,0.75,0],[1,0.25,0],[1,0.5,0],[1,0.75,0]];outlineConnect=0;fontColor=#232F3E;gradientColor=#4D72F3;gradientDirection=north;fillColor=#3334B9;strokeColor=#ffffff;dashed=0;verticalLabelPosition=bottom;verticalAlign=top;align=center;html=1;fontSize=12;fontStyle=0;aspect=fixed;shape=mxgraph.aws4.resourceIcon;resIcon=mxgraph.aws4.rds;" vertex="1" parent="1">
          <mxGeometry x="-763" y="2303" width="55" height="55" as="geometry" />
        </mxCell>
        <mxCell id="9stf0OVaeOMll12Zxa0v-149" value="&lt;font&gt;AWS Backup&lt;/font&gt;" style="sketch=0;outlineConnect=0;fontColor=#ADADAD;gradientColor=none;fillColor=#3F8624;strokeColor=none;dashed=0;verticalLabelPosition=bottom;verticalAlign=top;align=center;html=1;fontSize=12;fontStyle=0;aspect=fixed;pointerEvents=1;shape=mxgraph.aws4.backup_database;" vertex="1" parent="1">
          <mxGeometry x="-778" y="1685" width="37.48" height="37" as="geometry" />
        </mxCell>
        <mxCell id="xIR8cZMaL0KthYPbuobY-1" value="IAM" style="shape=image;verticalLabelPosition=bottom;labelBackgroundColor=none;verticalAlign=top;aspect=fixed;imageAspect=0;image=data:image/png,iVBORw0KGgoAAAANSUhEUgAAAUAAAAFACAYAAADNkKWqAAAACXBIWXMAADsMAAA7DAGzSGIKAAAgAElEQVR4nO29ffhmSVnfeT+nfz0v3dM9Iy/TMICCSADFFQgIiLpm48sIIRJlXTaYXMkmm2SjgDuwye5qrsRsdt0oKOBG98XddaNeYaPRDRFErstdUWBBMLoxgqAiZhgYZmDee6Znprtr/zjPeam6375Vp87z/H6/rrqu7t9TVXdV3ec+d31OnfPUuZ/NJ7/yBYGStNkQEW3S4plAWqvIenJmljWWRxF03WAZqyoq8MwxVG5Mma2kJ7QZ/tj2j1XKtKsrxwaIagKlNpF1le2WaKOfVFZkjGIdVlJoWDY5HkQ11ps+FQAlB5sBjjSK6bK8G1lX3oN+TLxLiATMGTzV8PmXnAFz2nAn6iTBEIgCMS7OBCipVWQ9OWMIobEsHnhNmJfoGV6ljCYMocp6KQRHNgx/bPvPR2WyZjYAckGsH4o2iZh2/IF6XzK1UU8q6iuxrhtNdKarf7bCKOeoTyGV06eCXpmOHIJmmFjWcUzP9vppTo5cd5kBFnp9VKHMPbljrSmTs/uJJVObiAAERl0FgtzhyiFYlBZCEPRbX9NMCG6kXjP5wbM2BMe/zszfkG8TxGaDnI5aGt3Fh6BRbxyvV5AFwQruSlQXgo5725UFEGS5HUAw1VUHIFH1lSCbXFC2HILsyqx4aJ2TMFW6IAxhlZUgYteQfLKb2RBEVoIjkJiRk3OAEgmEoJrGk4ivBGe9s+HSgloQ7NX0HMlUaKoBISj3yf1EhmU5BG1d6kMwzHQ1ATh0VAuCZkEGtVXxQJkOo6CjAgSRxzghOJOwAILe7XBctByC499sCHLZnFPnQXD4o/rJ9oNd7+shFWRDEJ0ymhojJ5dDEB1Tli2DIHpxQTrOhWAHOV1FCBrYYcZjfcLM5NqM/bGO14EgfPGuvBLcSLJq0+Rm0YSgTJ1pzHkDGYJyFQJBgRL27Br/FD8TDJQoHWTJwskarMpU7jA9E5x9lG27LgSjeax0nAPBTnNsQboaBM0CMwtCULEQ8t1aTQgSYRB0RQogiNg1xPhS5TxlUQiONUUQRPpJ+vNc24MgU23jwFTpD4Ggf2r3DEFeKnjPVLMiBIWmTA6FYDeK7xiCppzntYUQDLN/3EJBzlWAIJHju9tngkhXKASjycXVmRUFvZLVbHtWIMgz4tRQqhAIBlHOnKzMJrpCAF50OQWC3vVgDQh6nS37YiSu1L3naECwm+pxCHpnqjYEPeOqowQSHSZarcDHLBcgEAwB3tpVDYKz0cEBNrGM18xTwZn53G58LbF8rnOw6PASHx6ojXJuh6tD0Ek1nwn6g/V/ZPc+/BDs4noMgvvYJ8jnJAhBoSaQccKSnO68+RB0J3TG/XL9b4d96rH+FAaU3Q6H5G9abyhGBK8E9WeC0/j6xXSe2cjXT6EgGrMCBN0dBINsJQiKcy/JiraYV8otk4rdQ5B9C3zYb4eLIChYSIebcboXQnD8ZMlV3iKjFijwYsdvQlD2legCY8x8xK5EFgTliSjLWvVcIX8K6FOeq4U4KQ7Bvj44jgQMSDgE5T65n8hWObwQlN8EIb5jWunXGjUbguqhrwRBVmVcKmpBEL0dXmOLDO7cs0phyeQ7pmZKx/5Gp7Y/xrPLg+DwR/eT/oNdPy/yDDBJOaaAIYiij4hWXAnqzWpC0JiWTDYXgsY+QO9yuZUK/iREIWgWrATBQMZtkZYqQBD+phOSwSGIvDbXF22tEnQ5cQChr9gmOp5im6DPBIczKConyE5/Fm2RScZfbYuMd2odR+Ib0BE5Qda0Ka+s+UxQrjcKMiDY2eNgEKSKEIzNuRIEA9cmumVTJqtRRUxr8FLp3Q6bAjOFau8TFL8dLoAgEf7ucLxZWiZvzWeC2ClyIDiebPyZIMKkmhAcRHayWXprhOjilwoUQJD1peg6yoEQ7GwtevFdb5Y2C2pAUG5pTBhF84UQxPe7OYIFEMwwlFmJQFB2XHFq9H8dH0Ah6MwufyIiEOR0B/QIcXEFCKIBFLzOqgVQMEcrg6DfMerT0/nsZmVGOqbPBJWDGg/DuOTUgiCa1tgnmH07LMjERb5MbBN0IubcDicaARAcOFYMwSSD3A6HUVauT3u0ZJwuYpls2wuyiDqz+XOY3xjpjDnOOwYs7C2zcyBoFtSAoNwSemPE7jwPgvt4bY4oZyWYgIVdHHAI5myR4TIoBDdMzrjURe5SDMFIV/yNkY1ZPy/WbR8L+4607u0wl9NtC5GgGIJCUybXsZNq+iO2EtzHPkGgseGUfJTgZ3iVMhoCQTS1eIIoBFFfiXVt8QTTeq5FmpXBJvsJ7zLY9VGFMvfkjrWmUeoGERSCElg0MYem1SHIHa4cgkVpIQTRlaArkgnBFk9w0nWwhw1Bo944Xq8gC4IV3JWoLgQ9bJiVBRBkuYL5N9sGUxZPy0q1V4JsckHZcghGY7KM0t9CCBKRD8LKm6Vz7BqST3YzG4ItniAvqAXBXk3PkUyFphoQgnKf3E9kWJZD0NbFnn/JPsD6EKSKEDQLMq4wqnigTIdR0FEBgi2eYCzX4gkqUqqSGWqMnFwOQXRMWbYMgujFRcoKG6HrPxOsCUEDO8x4rE+YmVybsT/W8ToQ3McXIyNoYEO1eIImBEOcafEE44+H4dth5U2QdZ4JHpl9goojtHiCcbbFE5w+eF31qcUTTHP7jidovAlyuG+HTblMYKMQDLN/3DhBzlWAIJHju6HFE8QgGEQ5c7Iym+gKAXjR5RQIeteDNSDodbbsi5G4Uvee3UCwsyfhOhD0zlRtCHrGVUcJJDpMiycopRZPEIebIqkYqToEnVTzmaA/WP9nX/EEO6E9E64NwX3sE+RzEoSgUBOoxRNMsy2e4DS+fjGdZ1o8wXlWtMW8Um6ZVORDsIuyO4Qg7QGCPAtCUDCODjfjdC+E4PjJkqu8RUYtUODFjt+EoOwr0QXGmPmIXYksCMoTUZa16rlC/hTQpzxXC3FSHIJ9fXAcCRiQcAjKfXI/ka2yHgQ7fBKu8+2wd7nKgaB66CtBkFUZBqoFQfR2uMUTRCAoyAIQHP7oftJ/sOvnRZ4BJinHFDAEUfQR0YorQb1ZTQha3OrE0goQ9C+XW6ngT0IUgmbBShAM1OIJptm+qMUTxCDYj9/iCcZpV/EEu7SUOxxvjUKwxRPkcvo8zoPg+MmS80g5U6jFE0xKVNeddMVOUYsnmGZdu83msXBmiiDI+tpm2JsgVnZekQPBXW+WNgtqQFBuaUwYRfOFEMT3uzmCBRDMMJRZiUBQ9jVxavR/HR9AIejMLn8iIhBs8QTnWoCjlUFQqhf2AU5ms9vn3Q4fy2eCykGNh2EYqBYE0dTiCeZAMDhyM5kwcawYgkmmxROkaP6suVlaiQiNTsJ1ngnWgqBZUAOCcssWT1BtlBBUbGZDsMUTjAtaPEG1ZVIhQ9CICF0fgi2eYOx9rEoZDYEgmlo8QRSCqK/EurZ4gmk91yLNymCT/YR3Gez6qILPPScidH0ISmDRxByaVocgd7hyCBalhRBEV4KuSCYEWzzBSdfBHjYEjXrjeL2CLAhWcFeiuhD0sGFWFkCQSAqGsAMItniChtYLIUhEPggrb5bOsWtIPtnNbAi2eIK8oBYEezU9RzIVmmpACMp9cj+RYVkGwS7Oaq1xhWtDkCpC0CzIuMKo4oEyHUZBRwUItniCsVyLJ6hIqUpmqDFycjkE0TFl2XwIxq/Cmb1PZrOP9XBvkTGww4zH+oSZybWJ7KYYqCYE9/HFyAga2FAtnqAJwRBnWjzB+GONb4f5q3CGfvgkbPEEpZoWTzDOtniC0wevqz61eIJpbikEu3Qm7QOChz2AgtMYhmCY/ePGCXKuAgSJHN8NLZ4gBsEgypmTldlEVwjAiy6nQNC7HqwBQa+zZV+MxJW692AQnO0DPDoQ9M5UbQh6xlVHCSQ6TIsnKKUWTxCHmyKpGKk6BJ1U85mgP1j/p/Td4WQf4NGA4D72CfI5CUJQqAnU4gmm2RZPcBpfv5jOMy2e4Dwr2mJeKbdMtsEcIQjSHiDIsyAEBePocDNO90IIjp8sucpbZNQCBV7s+E0Iyr4SXWCMmY/YlciCoDwRZVmrnivkTwF9ynO1ECfFIdjXB8eRgAEJh6DcJ/cT2So6BJV9gMzNDIXWgeCxfHfYmh6OoWtBEL0dbvEEEQgKsgAEhz+6n/Qf7Pp5kWeAScoxBQxBFH1EtOJKUG+GQlD+VTgALGZBBQj6l8utVPAnIQpBs2AlCAZq8QTTbF/U4gliEOzHb/EE44Q+E+zscxW7mX0sIZarAMEWT5DL6fM4D4LjJ0vOI+VMoRZPMClRXXfSFTtFLZ5gmnXtNpvHwpmJCuU3QaIBfcdWCypBcNebpc2CGhCUWxoTRtF8IQTx/W6OYAEEMwxlViIQlH1NnBr9X8cHUAg6E8tie1LY4gmmWfnsmZecuGRbqL8JElUwNzN6n8xmT8IWT1A7qPEwDAPVgiCaWjzBHAgGR24mEyaOFUMwybR4ghTNH2uzdJe2UTsrgKDQlMnlQBCxsLfMzoGgWVADgnLLFk9QbZQQVGxmQ7DFE4wLrvR4gt3SeFp6w/oQbPEEY6uzKmU0BIJoavEEUQiivhLr2uIJpvVcizQrQ1D2k1R2+lW4Agiy3A4gKIFFE3NoWh2C3OHKIViUFkIQXQm6IpkQbPEEJ10He9gQNOqN4/UKsiBYwV2J6kLQw4aU4l+FK4SgPVB9CLZ4gmtchKZKF4SVN0vn2DUkn+xmNgRbPEFeUAuCvZqeI5kKTTUgBOU+uZ/MS/mvwhVAEDUu0nFtCFJFCJoFnteiEMxyGOUcVIBgiycYy7V4goqUqmSGGiMnl0MQHXOQFfYBrgvB0V6VILjrLTIGdpjdWJ8wM7k2kd0UA9WE4D6+GBlBAxuqxRM0IRjiTIsnGH/cEFG35k/OlU/CFk9QqmnxBONsiyc4ffC66lOLJ5jmxhXgUYbgYQ+g4DSGIRhm/7hxgpyrAEEix3dDiyeIQTCIcuZkZTbRFQLwosspEPSuB2tA0Ots2RcjceX4w+il8bSmiqMDQe9M1Yagd3FRRwkkOkyLJyilFk8Qh5siqRipOgSdVPOZoJfGgKj6XDp+ENzHPkFuXxCCQk2gFk8wzbZ4gtP4+sV0nmnxBImEH0aXQXj8IEh7gCDPghAUjKPDzTjdCyE4frLkKm+RUQsUeLHjNyEo+0p0gTFmPmJXIguCXDkPgtgpavEE/ab98QsBUbV25RC04bUOBI/lu8PW9HAMXQuC6O1wiyeIQFCQBSA4/NH9pP9g18+LPANMUo4pYAii6COiFVeCNPwqHO+85jNBud4oqABB/3K5lQr+JEQhaBasBMFALZ5gmu2LWjxBDIL9+FdqPEE5InRITn4qUABB1peiMHc4LodCsMUT5HL6PM6D4PjJkvNIOVOoxRNMSlTXnXTFTlGLJ5hm56Xxq3C2yeOSAgj6HWPUzoXgrjdLmwU1ICi3NM6eovlCCOL73RzBAghmGMqsRCAo+5o4K/q/jg+gEHQmlj8HEQhe4fEE5ZD4o1b9x31slh6HrwBBeLICwEYhGGNnBQj2XqMNL3BvHQiiqcUTzIFgcORmMmHiWDEEk8yVFE9QfhUuyfLTIsvWhqDQlMnlQBCxsLfMzoGgWVADgnLLFk9QbZQQVGxmQ7DFE4wLjno8QSUkfqKl/HGmjVEfVcRuZsOrPgRbPMHY6qxKGQ2BIJpaPEEUgqivxLq2eIJpPddinu3m9iv38TIIstwOICiBRRNzaFodgvwclEOwKC2EILoSdEUyIdjiCU66DvawIWjUG8frFWRBsIK7Ei2HYCeUJcLcarKdyiFo6BcV1IJgiye4xkVoqnRBWHmzdI5dQ/LJbmZDsMUT5AW1INir6TmSqdBUYygvvgmCploQRI2LdFwbglQRgmaB57UoBLMcRjkHFSDY4gnGci2eoCKlKpmhxsjJfAiKb4LIp5ArfNS/HW7xBGPZmhDcxxcjI2hgQ7V4giYEQ5w5jvEEO01h8wozy7V4glo36GXNdpgiCCrGafEE42yLJzh98Lrq0/GLJzj9KJIwonDdYZUhLo3ljggED3sABacxDMEw+8eNE+RcBQgSOb4bWjxBDIJ8RqJRZOS5HCsE4EWXUyDoXQ/WgKDX2byL5E0QqL0o1+IJTvW1IehdXNRRAokO0+IJSqnFE8ThpkgqRqoOQSflPBPkP4okZIXrDpPT59Lxg+A+9gmK5wC+ZvFRWjzBONviCU7j6xfTeeZ4xBPslsbTSuVkEB4/CNIeIMizIAQF4+hwE1GrdJ4HwfGTJVd5i4xaoMBL82ue3coZEIwbiLMC0nW3W2T6D/4UkGd63I/S20II9vXBcSRgQBreBAGdxThk1qwmBG14rQPBY/nusDU9HEPXgiB6O9ziCSIQFGQBCA5/dD/pP9j18yLPAJOUYwoYgij6iMhcCR7MhWLHjK5jLMtViSv1Z4KbsdLscqPWsoYnv+Qp9NhbXkenXvIi6k6fltu01FJLi1N48EG6+K9/mx7+yf+Vwm230TAZAwXaSHENC5gy9Ei0MSAxYMK+ovIN6AmnPvplXxmJ8L42YpYPKcupsmb9vMIA64bo5Jd8MT357T9NJ86e0XppqaWWKqfwwAN0/nteR+HTt7F56iGEUlQqANjMK427hn547Fu2TaIrC4dVElRwKjEX33FJwe2wVP/YW17X4NdSSztOm+uuo6v/+l878vEExXiA5RBMteo/rrlZ+tRLXmRp0VJLLa2UDp7/PPFh51GKJ6gGRF22EoyzQa5hJSUQbM/8WmppP2lz6lT/gX27cXTiCfJX4cy+Cm+HrZVerXiCLbXU0iFJ/ewU56iwEsz+dtgbOePd4a5WZFUXSF5ljWeCLbXU0v6SAgEPIbWfCeYk/VW4+cAgBIWWJJFNtlODYEstHa80zfRdQ7DHhL8SPBjkiIg2xt47dJ+g3oOs5CYtqbFPcJb+8Cuev/0Ufalu7r1BvqIfJZGD3bBehXpgUE8uY+uRMQrbUmDbQ9n+4MmZdtvA7w7TxrTsbBeFt49i+rKOyQpNxaNWm+lbOaYx5/XyJrNA/jY12W7ywLJFYl2v/9X3iFJDEmchCgEmNz0/3Bj9RFID31Q5O0VfgtS8HeYVfPlX89thP03XDrtpiycoaRPZTTGQbbdEznkk0uIJKn05c7B2PEE/He14gso+wDUgyEujk5/WwBDMSegkbPEEpRr0oq53ngdBIgyCrkgBBBG7XgnxBMGewDl6+OIJ6r8LXAmC6rUsuSgWQ9BLxZPw+ARQcBrDEAyzf9w4Qc5VgCCRM6lbPEFWUC2eoJdmCvktgi6nQNC7HiyFoLoRutZK0E1bOf3d4fwutTGkgn1A0DtTtSHoXVzUUQKJMylarcDHLBcgEGzxBD2ZYXwEglpnWRWCmPjwQO3msMQTNFaA9SAoXHeYnD6Xjh8EWzzBuACFYIsnKMgzGQSCwiURvH77ihyteIImAA2tphoQgooqTE4G4fGDIO0BgjwLQlAwjg4343K3EILjJ0uuxRNkBcvjCYJpppDfjzzT436U3hZCsK/vr6gQAPexWboWBNmYO4Jgiye4DgRbPEFFtgiCguzaEBSP1TPAJOWYAobgUNV5M5XH00LkBFkDLFLlvp4J2h3X/3a45u2wWbASBANp3+QbqQIE4W86IRkcgt5qZPLmrVWCLicOIPQV20SHYGwT9JngcAZF5dxkQw6BYD/+altknFPb9cb1j7jmFyPuxSgkJz8VKCAf60vRlTscl0MhuK/bYTa5oGwGBAPXJrplUyarUUVMa9dJtp8sOY+UM4Vq7xMUvx0ugCARdjs8yB2eZ4LTB3PI8WTjzwSR+YdCsBvqS+NpsZpiCMq4U2Xhs+M7tlpQCYK73ixtFtSAoNzSOHuK5gshiO93cwQLIJhhKLMSgaDsa/IMIvLnIArBHALaXRoQ3HM8wfhNEF2FScYblfwTAIA5mjfIZmmzH+5mqmpzs9mTMO92+Fg+E1QOajwMw0C1IIimNfYJZt8OCzJxkS8T2wSdgzm3w3a/UpOBY8UQTDK7jCfIvwTZ++0wl9NPC3iiCiEoNGVyORBE1PXsmgNBs6AGBOWW8Lvgeud5ENzHa3NEOSvBxIPZxQGHYM4WGS6DQjDzDJpzNNZDv5jG4/uw7AuWxhPkr8IRZcXTWg+CgcnZozlJgKANr/oQRG+H97FPEGhsOCUfJfgZXqWMhkAQTbVvh0VZ7+LiyvkQjOtlXfu5LJXOcj6RnBTrWrwSFMYXtWA2WxZP8ICVZKZ+W4J+1ciJIkNqL7xZUQrEosgwh1J0FZpGctFvYpm6BppHvMnRlU6epINzN1J35gxtrrmGNtde0zvchQsUHnqILt//AF383B1EFy8aw8n2Hz4SJbKJruKh2cbBU7H9e4kQ+kpvm4yr6eiTwi+dMZlIQ3UQw3UUOTYAk4ltIo8wfDFi2STnTRulh1HXwV10P2Ef43riFYZbRAWOKWKp7R8VgL1xB6wXxbaZakAIyn0SpVZzYemqaUyBHUAwUKCNA8GTT/0Suvo5X0FXPefL6epnP4sOnvwkOvG4x9LGORchBLp05+fp4m230SMf/X165KMfo4d/9/fo4q23EsVHoh4zu0QUQjA6TyxT+yI0ybpuu30eaNpyJQgSzW/wZBrkQDDOcMERltEcFC51IgTRVWCsa7BcdDyJZFmW6bkWBA8smqDX9H3GEyxKyUxCjavXTxXFEOw6uvbFX02nvuHr6dqveymdfNJNGQc0pc1mQwc3Pp4Obnw8XfO8547lj952Gz30G++nC+99H1340G9uTxpyTNtKFIKELidix6sNQXSztBlPsACCTNaEl74kqrkSlCHIZWuuBM2FykxX0bIweFK5fAi6t8A5K8Gat8P8FBKlVl20Li2E4Dh8JQge3PQkOvuqV9J1r3g5HZy70Tuc4nTySU+ik6/+Tjr76u+ki5/7HJ3/V++iB37hX9Klz94+VyiajxSpDkJQqJlfqDasY+UcLIQgejvs3x/SKhDs04aY0VUIErP/XAaBoKzLuhBMjlAY1oAg0ex4xkub0o9S4EDwAFl6Tbr61lkPglwWXQHWhqDQlHXsQfDk055KN/ynf5Wu+9Zvoc3B4kexWeng3Dm6/q//VTr7V/4Snf/lX6H7/rd/Shc/9SeirsziC54JZl+wKqwEkQntLjgKIOhNxGFKb2AI6sqiEBzld7gS9G+H+w+qZSPVhFthJiP0Z0DwIFo0VoKgOarYhQ5BYr0klWA6LBDsbriBHvP676Yz3/5ttOnAWBQrpc3BAV33ipfT6Zd/K53/xXfQPf/DT9Dle+51iFAOQbYS3KQ1G56rAEEix22HPYIVb4d7/f3VSN+fUsmPYlsgrwR5g/VXgsOTFHWxYs7lWFf0mSB22zxZ1roejG+CTMb1hvfTTuMJusoAXSa6eqoxWaPjedWZb38lPeWXfoHOvuov7B1+87TpOrruO15JN/3Ln6PTr3xFX2jaLWCnK5B0osfVSl8PKFhs/76yxRP0ZIbxY9lq8QS9ORim8fX6tEgsFAssU3SiqGNcdy/VIFsJgtwfcugY/BMwVqwDwc3Zs3TuR3+IHv8D308nrj/rKby31J09S4/9+99Hj3vTD1J39iyzGzsH8DWLnz19raOMWQGCLZ6gIM9kylYe+rvDsa4cs6kiu40neBCLYrfDkcJ73yKDpEAlvzbH5IyCpOmYTj79S+mJP/E2OnnTEzP01dOle+6hi7d/jsL5B+nyhQu0IaLNtddQd/o0nXjCOTpx/fWLxzj1Z/8MXfXsZ9Gdr72FHv3kH6/yTHA4e/z2JKqJ+yywvyjLfG4uVneLjFog6DrNPyLNWeMjJmZ/1kQ3XsoTS3kscXeI+9vWW+1zb4fVh3uRzXTbs6fvKARzTLSzzdK2FsUQjMbMmITXfvUL6dxbf5hOnDlTpPGlu++hhz74Ibrwr3+HHvnY79Mjf/CHFB66EMn0dpsU2lx7LV31jC+jq579TLrm+c+ja178Qjpxww3ZYx/c9EQ691P/C935hr9LD3/4t1aBIKuKDoUDswYEQ9jfFhn84j6r3HA5hFcoBMfSRRCcyQIQXPRMUDxWQVI4HumZ4OZ3n/bl4lJqJmraoZ9/vqEmEV3W+81TSZ1nfvz/M8f9xLOem5TEZ0fVJgWLo1piMbr2RS+kJ/zEW6m7+mpTvzRduu9+Ov/Lv0IPvPPd9PDv/BuCVrob0ifhZkNXP++r6LqX3Uynv+WbqDubB+PwyCN0x2tvoYd/8yPa6ZgrYdTPC1nLyV83TFjOGSdEGEKUdd12E59TpZvtR2+SzI/TNxT7dliQY97pzlNjwKEmkgn0Rb/2q3qnRHTPn/lGsT/dtpOuwhEyMdWyzBmUC5HgJ/Oize8+9cuDZo/aEJzE6kHQA+DHn/Vc6fQUQZDlFF2v/ve+kp70kz9O3elTpm7z9OhnPkv3/tRP0/3/1zuiVV7NH1/vrrmGrnvln6ezf/k1dJBxS375oYfojr/1Wnrk3/zbOhAkYidaP+3i2fMaQRDcbJzb4UHSFRh7BGRyIChUFkBQ9lnZrv3t/1SGAVAfWLbIRvqjipkQFK6cyGJlKOq/BFEWGWFeaSxEAtEhiCeYM1qICtW+gjOSoOuJxz2Onvhjb4bhd/n+B+gLP/wWuvXPfTvd98/+ObvFrRlP8PKFC3T/2/853fZtr6K73vxWunz/A5CO3bXX0uN/9IfoxOMfp52OuRJGvdlSkeU1gX3gBd6pI9SuRC2eIJS8gYUKbw7OdFXrN0wY0GMiW2fYIxG1xwCqexlvQJJOwDIIDhcK1kkBBE3VTpygJ/zID9LB4x4L6XX+ve+jW7/tP6R7/4+fIXrkUUOycjzBRx+l+3/6Z+kz3/Ef0YO//j5I1xOPeQw99h//I6ITJ+pAsL9qamoK3FsHgmi6suMJoikkf61+Jl0HjhVDMMnkxBPsNoZQ2hK54lIAACAASURBVO34xzLOjuMJ+oNJp0XuZCkEb/jLr6Fr//TzfZUuXaLPv+ktdPt3v54u3nEnoMC2EjjmnHiCl+64k+583S1094+8jcKlS27f1zzvuXT2L/1FUdciCMotoTt+u/M8CLZ4gr6ueOJnENkio89RinTVL6bx+D4s+4JuaTwtUZcdxxOElNKaJGcnB4Jz2YNz5+gxf/tvuqpcfvhhuv21t9C9P/XTY0/CRUxRYZ14gvf905+hO17/Rrp84YLaZEhn/8ZfoxNPOOfqCkNQ8AHmj3LG8ds8CKLpSosn6CU4nqA9scY/xStBYXxBC1bQzUuzIFh0dRD6XApBeCCnsgCC89xjXve3qTt1ra3CI4/Q7f/Z64XbzvqRpd1Zn3Rz4X3vpzteewuFRx4xu+2uvYZu+O6/lYwzfWTWKYRgUVoIQXQl6IpkQhBZCXr84FkbguNfb9IDCX+W6qA2TPawIWjUG8crFXRpaS0I9sYFPcrpbBkEudVkO5VD8MS5G+nMy292Nfnc9/8APfShD6sdoxBEf20udyX48Ic/Qp//e//QXeWcuvmbplWgoGstCEbniWWU/hZCkAhw2xBWWQkiEAzJJ7uZDUF0JYiknJUgAkF9oKlfX9vYYtJwnVSaDUFTzk9VngkWpFoQvP41r6bNyZPmWPe+/efogXe+2+24NgQpE4IP/sp76P7/8+fNLjcHB3TmP/5O1g88iCYeKPOCqaCjAgT39ePr2E9uCpWFEBz/rgZBSdCH4PBHv1j2H+x6X4/OcharM4WrstyungmaWnCr1vp2+My3frM5+qOfvZ0+/6YfjYevBMFaW2Tmtfe85W108TOfNbs89c3fyJVL7BbSSsy1pJax3RQD1YTgPr4YCTT4JGqoxINNCMrUmcacN8iBYHKu9Cub1YxXmHOUIl39IcNWjksq+wCxSRhB0D+/K0EwJ/GJtRSCV3/Fs93ozXf9k/9pu78PnYTrPBNEIRguPEz3/MT/bHZ38IRzdNVzvoIrZ2ZBCCrGQb4drglBIszfXJECCCJ2nd5xRSCoK7sbCAqtAAgCp4hMy0YV/NvhThacOvXssQYEvc5yICjCbfgzn/SSHADBa1/4AnP8S3fdTff/q3eKGtWC4Bq3w+ff9W669IUvmN1dPW75Qa/uySCWuGCcMPvHjRPkXAUIEjk+t30miHSVs08QMdTUnzFfok+yr8i+VhuCQZSTRwnsj+4n/Qdf28DkOlYvFFSHoJPKngkWpm0/8urCh+DVX/5Ms/v73/luokcvJqX7haB3kgIR0aVLdP6X32N2ddWz58euT1bv4qJqFEg80dFqBT5muQCB4JUdTxBN/F7qKMQT7HzD2PG04mIMguvFEzTGZCVxVp9LNgSvfsaXmWM/9JsflhvuEYLot8MXPvwRs5+TT3+6a9f5RyaLzm1hFPWCleR0v82H4JUbT9BQlRkYgaBwSVRdN9ZVfyY4ja9fTOeZ/nZYDktceBVCIdjXIx7lDLioaeIwQSydKhUInvgiO9TUwx/7uKHL/iBIAAQf/vgnzC5O3HC9wDF0Eo5KWOKzQhRuxuVuIQTHT5Zc5S0yaoECL82veXYrZ0AQTo6uu90i03/wp0A/fqeKCwdlX1HnxT4Ec5Dmvt7ldjD9AX0chmDnxPq7ePfdDrzWgWCNd4cv33WP2bw7c93YT2zb3UCQVRkGqgVB/Lcy6m+RwQyVVApLJo+tbteSbBEEBVkAgsMf3U/6D3Z9n7qB9zkx9vX6eTEIQWemxtXLIShX8Er0meDmmmvsYR8SXi8rtGsOBP3L5VYq6JMwPPyw2XYzj3WYeUy1IDisVrI8owIEcx6/+DI4BLMDKARdThxA79pMgVKboM8EhzOIDBzrWiOAQjedcTzGPjIJa0JwEKm5EjRlwuRIXBYDi9It0yUtGOUqQLDa7TCaQnqcK0EwsJbxWw1hnkmaqp3nQXD8ZMl5pJwpVHufoPjtcAEEc9KGaKfPBLFTZEOwWxpPy2qaA8Fa8QRdWVUdGXeqLKxCvl39pnvYLI2mzGMqgqDc0jh7XFbuPA+CV0o8QTSNyHN8AIWg5f9pvd2lDsHkTZCgizN714UgUN3LeAMiPSPqzOYNslnaHpq5mara3GL2JMy7Ha4STxBNIcXOChDsr5ra8AL31oEgmo56PMHcVH47nGgEQHC4KJRAcHoTJPIIPJ7WYY0nqGmRZkWwJVl+WhRZc+h8CApNmVwOBBF1F9tVLV4BgnLLFk9QbaTPwXIIIrrKMwh9JrhmPEHl17mn64vvx/uOJ5iTciAYmJwsmzN07GY2vOpDsFo8QaFnrZjjyW+mNDacm48S/Izjt3kQRNNRjydoKiSUlt8Oo74S65q7EuRvggitPQgyvCEQLCZJXkKDqiqHrjYrU4Z3tGsISmDRxPIOejkE+Tkoh2BRWgjBYxlP0EvOpI+/GFG6QIdSXXcyxmAPG4LTR2UFOBdL4CZ0Ni+oBcHe4UCPchIKQVkLbjUXlqYy5oA7gWDOGyOujJGbF8c2y1yxFEIwGpNllP4WQpAIcNujFk/QS8akH4HEjJycA/WkcuUQCNq69v0Gkl6Fm/XlploQNOXqpJyVINxnsTJxa/Ti4g+8whYZL7Fu0JOJHpM4iA7BFk9QrJeLEAj6KbYJCkEuu494gp1qXuHyudpmaSP1xvUuqVgqh2AgyarZ4ZlYRT4Ex+ErQbBKUIkMCBrYYfOR9QlPUq5NZDfFQDUheLziCdpDI6G09CoEggLK7IkVzVELguNvgnj9Dd3ZRJ0KkEkYQdA/v3uGIC/NuGAZFfkQFJoyORSCxuU0L2VA0CwwsyAEFeO0eIJxFokniCQUgmNNEQSRfpL+PNcO0T7Asnha6ZjzgojbRxSC6rVMrtTHNCv2C8F93A6bcpnARiEYZv+4cYKcqwBBIsdtD3k8QSTJvqbOHtfRdxVP8GCs3QyL5w2/Uk6XlVmRIMnk+oKxWOiHSSkyRvOixF9qT3oHB9t4D3tm/ahdBiLaxNduS7X0Or8xOo7OkmnbQJuwWW7gQBR3o590U86029T4Kb/1/y5UeLfp9hd/nVlvut04RaazeuMH3mv2d8dL//14nqoDJDKkyfkp9kl5QO63GyYLx2G0J5bpS7OI0NOVwIfvhCxkxbKveIJeZ+UrwczxQ5RTxdjqwhwSXYkcj5WgeA5q6HqYUq14glojI4vEE0RHKrsdlleia8cTVCJC47fD1phqbwsh2NcHzGGczqptkfHGbxAskzOzR5OAO9kiozVSslNRjl/r/SA/ualXoRDkx+RBMK3n+wA9CIoHrFqTSXkXBRSCWafepkO9zdK2FsUQtOG1DgTxRbZ9knIgqKJ/+cLk0KTa8QShMbVG9QeQi5xJL/stAkFBFoDg8CeQuw8QgWDP+73FE3QSGk+wfCWYk8ogKNcbBRUgaHhSLBWclUgGBM2CYwPB+vEEkQ7CmPXt2hehURb1eRpm/xAI7iOeoP4mCArB8ej2E08QTUgAhd1sli6DILOtoit3OC6HQhC+xaoIwfg4jy8Ex0/WQSDxBDOGG1CRF08wcwAhIbfDg9yu4wl2SbHSrwHBQxBPMD8dTQj6HaOEyFkJgqkiBM2Co0u9JFWMJ4gNN/7JjyfodkvWxJB9TZwV/V/HB2rGE+wGx6wRXnpClq/MGvEEkYTEE6wNwaU/vm6siXayEoQTAOw1VoJHN+EH4j4TzBgujP9su2YuMOMBFJnYRdA5uF48wXEfYLD2qo2Fxj5Bomjfj93PVIDsUYp6jMYqS4NRNvoGumr7BG3bxiVql4H2vk8QTb3djI629kD2CZoHuc3+u+e/eCyKe+F7GvXtb6wlkrGqogJhiFkKFLYO4n45InyD8rmXfL04rDBLh+FmMkmBkEUT806hn/lCy9snGHca0oI+x80h9he2RdJuxC6ldvFKkAnvJ55gTqr1TNAfyGiSPKzIWQnaK7jkurzDlWDNL0ZMOVNX1tjwaz5K8DOO36L2dytjyT3EE0RTSD8J/UR4ciZ9IH8OLn13uItqQ0xpsV+rP5F4PgQZ3hAIVmLhYgjCAzmVBRBkuUMEQXfWrwBB7n7lECxKCyF4mOMJosqgEBz/OpM+/mJEUQHUVfpiZPYtcAxBvZfhv7zN0nuD4C42S6P9ztTmPZRD0FZtfxCsvRJkkwvKlkMwGpNllP4WQpCIDm08Qa8fnrUhiG6W5hAULnXqSeXKzUs6Vpv80Z2l/2DXO6kGBCukKltkSsaVSgogiF5ckI5rQ5AqQtAs8MCCQrDFE/QHNvrhWRuC499sCHLZkniCwj7AWOFF3w4nl8/DHk9wPQjOjDH7eCS+HXYSFvOuHgQN7DC7sT5hZnJtIrsptKsJwUMVTxAZIPkYZ7dGU6Y/8u6wXoVAkHvDkDV+FIk0nUWt7Ik6pDXiCfppUnMNCOYkPrH2AUGhKZPDD9NzkrlYHQiaBWYWhKBiHDQwid55HgSJMH9zRQogiM+uxIM9+y6A4FhTBEG5n25pPC0IgpFw3XiCaMqBoDdgDgTVa1lyUTzKEIQDKFSEoCnngaUQgmH2j5MuyLkKECRyfG5X8QTFJroHE6tJnF6UIct4kF2JNHtxis3iAWoN7HhaU+GweN59PEE0oc0PvvgpdO6N30unv/Zr6MSZ68oHJKJnfuy384g5pKW7/6vEuvfT037rA4YKgcID5+mhD32Y7v6xH6eLt31mexKMMxFop/EEzVEGQiUP5KK9bEOBlRS/Hj+ZjtnvE4Ti4klDCZXKLAU6sFJiTKHI3ruaVDmTntttw2SRwBMHc2Fts+AcgnyY+Wi9fM5m6bEoGW5esKkMQQpBDWR68oufTF/6L/4Znbjh+vJBZmnTOT+8d8TT5qqr9Doioquvpute9i107de8iD7zF/8KXfz0bVtfsyfhGhAkSmQRCAo1OXLjmBUgSORMaGTGZ0AQvYQOq8WthqwfnuULq1QGgSDR/JDnK1F8szSLBygfdHDqYzFnoT0TVqRCmmUFy5PylPnGW15fDX4tTenEDTfQY773e6aC4HgJ8zXdV0w5M8sdWr1zEkaRb8e4X8tycYEwhC5ryVXeIpOTwvh/SAuF7FZOGCdCmG48yK5Emr368eON0KTqRDOrzZrrYqp5xQNWrCBIGfbISlrz0y99sVLT0tJ07UsS23qzPhOCQZNbCYKsioFQyC2EYO14grUhyBoL3/I5vOJFzqSX7YZAkIZX4YR1qD6UdWxJ+/3EE0RlesPFAifOngE6bakkbU6fYmWHI57gspWgOg+0VAGCNeMJLgqzINitL9paJehy0Sdl+o/9ARAsCaDAV4AzYW8liFxhXAiOR1cYTxBJmRBsacepIgR3shIMXJvolk2ZrEYVMa2xybU8niCyEvSSCC+BfAUQJMLfHY43S8vkTc3BX4WTNZQr9GNLCleOJ2gm27hDVci5rLZUPx2llaDc0lqbyC0rrASRtM5vjMh95FaiK0GeERZtw1/HB+b18qtw0BUmXgnWux1WJJlj5uDPhyBQ3dLayZv1h3wlGMkz7q0DQTRVeSboDsKzfdGMDubU9mVimxhgjar02+EDYilalk3CzhaZfcUTRFLUYzRWfvroM59LdPly38Vm25HyVJoXb8Qs35Ijywk1/SCz9uphbeLaTVpn6GqbahPp/6W/vex3enPjCX7J73xo0XhL06df8BLCtsgYadbopt98fx3Ftin6HWLvG5RxihhbZLRGSnYqjAbo08pbZCiS4bIhEB3o+2RUDeVRZpAsgqAwvrCzqNDDTKxmdhTGy8c4WYPcZyAMgrpWnHyy7Mapn/cxuRnTRtF17FP1s4zp4szBQSZvn+AeUzwbxyKi0d21jHTdXz0FYw/sqFQmBJmsycRZTpXzIRhnZOMNq0UrsHFHpK7keYf87mA+1Hj34N8OW7cVZjOjsZ/C7P8lK/2oT+c+JSe8fvndTvBtO1YEXqQ2TG5OjI5xc6pOJAxtCILd7CR5umb1s35yhxl90lcohpY+iO2TUlafp/P13FQvjxB/McLT9KNIKJFACKpp1Lp2PEEsrQFBr7PyyNKJ/U1YlkPQ1qU+BNF3h5EtMocmKReXoGaSprtMGZuloe60RkI2JJ/sZjYEkW+HxwUZu9L3BdGXICXxtPhw8R+Vq9sPdr2vR0liEFzogVXiCRYwuRYE/YtL4eXcSNUCKBymFChvElnnYAepyo+vJ36L/eSmUFkIwfFvNgT7mi5tsDTGfqrwom+Hk8tn0URQmgSrsjCtB8EQV5q2XReC4/AVTBcI3MpxlCBIRNIKL7IbW41IrXaUamz9mrlm75MoKxIPNiEoXzCnMecN5BkkVYkboXOeCSo14x/sCrMwnqCXEAhW8r51V4J8Yu0DgkLTBelorwT1izuv2ceXNlXiCUIDTX/QZ4JB8mCPnQsgONbMqtSN0OhK8NDEEzRaxB+k+gwIbrfAZIzMazIgqF7LkoviUYbgUb8dRiHIVoKsZr20OJ4gNMj0J5pXSX1cpHswb5Y4vdZ1xkpwtg+Qb2BBX7xOmvGKWb0oGoiqxBP01FP07IvVg8hOg7Pt6neHZ7tgeOVsv4h9muJrt731KJGtYLpAgTbI3pZkwE991VdzGdaN0qknx3chqY1VvyY+iaK9bEnnt73wpfKYxnYqa4sSEdWLJ1jQgbdFZkqJjFCEboeLXUQWHGSEFSC6EkxKwJWg/kxwGt9ffE7I8lOIx0RWgmZv5H+DNsg6S6TylSCX09cQh2wlaMjV/HbYtBcql9iNyfoLHLHGuCyynO63OfYHAyjUehU0nvLkGao/TsGD1SwbIKrJuR3uEMDtdotM/wFEkSsl9mZCEExZ7w4vh6DcJyebbJVDAsEwU1JVAYMg7QGCPAtCUDCODjfjcrcQguMnSw7ZIoOkAr8O4/+6s8ZHLPtKdIExIBjI3AiNQFCQBSA4/LGHXbhFRmhoX1G3CbxXyFFjH5ula0KQzU9l0LwLiFWFfzvsdJQFQfVIVoIgqzIMXQuC1eIJTj1alZKGrN5sLNwy+hdmzZRcMAqJv2EPHSKWuuGlraKoYvuHj5C2x58JYilpWNzPrLnjUXwDZvkzwYMnPZHOvvxmOv3ir6arnvF0OviixxAR0cW776JH/uCP6MEPfpjue9e76eJnPlv8TPAZH/tt9VhqJHZ1Vk0X66pK9SdBfx7MulEGZcW2ryQzg+mq+zVrqc8DLRm6CkOwxlB4/YyEhtcXn/ILdiWirczWropc9MRawdCQtGeCB6wFWzuWQTAngIKYakFQcJaovx1AkGgCYckXIwdPOEeP/y++l86+/GbxN0ZOnjtHJ8+do9Nf+zX0uFteS/e/891055vfShdv/1w/Zqox8sXIagm3f84XI6Hib4wQJZNLaVYMQYpPtDjthMlqVEUFCARHWct10T00m7oQpFEmqSyAIFFi28R48ZsgpB1zXIh+MaIvcdnaWBadLV3RIa3h0gJjZZyVersFzGGcAdMuTn/D19HT3vWLdP0rXgb9wNKm6+jsK15GT/ulX6DT3/B1ymjBt/2qCfvd50GyymbpwLxYlTMLzCwbxDrTLCfL8hrdb0P8ybQbHk/QTeN0tu0//NnMC5J6s7FZw5kitk6MJ84obhh+I25DMDhyM5kwvzIYXdrm9ROzd10Iol3wiLW6zA3f9Wp68v/4Njpx3elsXbrrTtOTfvytdMNrXq3Y9uhAEJ6s3qzPgGCMnRUgqK82psMwDFQLgtVSJgSDJCtk+6KZB5uA82Vimwivwo1VovFRCPLbYeNURz6zSwgSBX4XgfRhyQEzFXl3+PQ3fD2d+/7/ctHPam66jm78vr9Dp6yVoJrbRcqDIKKgZ9ccCJoFNSAot8x/JLEQgtWCoWdAkChnJZjQQZiDKARHlG7r1d8EIbIAh8igHhArXHsl6PuxuAOpOPUXdsyjtMl68IRzdNOP/OMqvym86Tq66U3/PR084dyoH1Ni9+SbKwBDEL0d3sc+QaCx4dd8lOBneJUyGgLBaikDghPWMi8urpwPwSHTGRY0iyMR0H6rxxPUxgULsD5145YkCYI3/p3/vOi2V0vddafp8W94vaXFkYEgrKs361eAIL+QlkOwKC2E4D5WghOQciCIyNkQHP52sRCXlg0nnGr1zHINEQiqaVSo6FdB2HBGgd+bd34Lvhg5uKnf6lI7nXn5zXTwxCeOI4lnehcQNDwZheC+3hhhkwvKlkMwGpNllP4WQpAo023trmAIpp+0bEg+2c1sCG5ouw0mkL5PhtdL3WxzAdxbFEjZ4rXtb/aHzGEXniV2TDgEkd8YEU0m9bftY7MJdP2f+1b31veRP/4U3fHmt9KD7/8gERGdeulL6MY3vI6uetpT1TabrqOzL7+Z7vrJ/93QL9AnnvW8qFDVfxPX9tkNfdnv/ZapuzLwWHGYt8ho2048XSWHV6cTZUwiorGXqD9DV30ux7JV3h0ep0jtLTLCUaunIxkg6aebBqbJpvL64JA+E0RSPz724+t4j0jj3q7YJTUEolMvFl7un6VH/vhT9KlXvYYeeM+v0uXz5+ny+Qfpgff8Kn3qVd9Fj/zxp8y2p178wuhULPp2OFlOoGYchzc6tlc0seSut8jEnqz7NPd4NoihEdcmsptiINtuiZxpt4zbYTCydM7t8C7jCXbxwPNWuhN4hbuPJ4jKKAEUakDQP7+QYa5+xtPN+jt++C10+f77We+X77+f7njz28y2VyV9R+c9rSmBYMarBbUg6DvJXKwOBM0CMwtCUDFOzrpQ7jwPgmhyJQsgiNi1RjzBTiw3IBhIm8cIBIXrouq/gf0p5BQbfxEEkwOrDcGDxzzGrD//gQ+q7w4/+H77Jyn7V+digw5d1YKgn9BJWP+ZYE0ImnKZwEYhGGb/uHGCnNsFBJF4gpkQjOaVoc7SeILC7wJvKTyieGJyJBPSRxUbJruzeIIF/YvPJQoJ23fPdQXU4DKXLtKGTvpjMtv6vYdLF1Wl5JaB8uIJoim+zuvPpPxngl/6ux/JGPfop0+/4GummTaYHHgOWv5MMC+ZXY1TxH8mOGXXjSfInrYPgvHVQb8S8gy6EkxKwJWg+kzQS+yyuEmumxn9qMXYStAKN3Tp7nvM4U+/9CVTX0k3p176IrPtpbvunmkRK6Xb4uisBK+UpENGXjEKVYTbP0cxoJPMlWD6ScuWxhPsJD0iAxsQ7Cczb49DUJ6Ian9qfUlSpjwUK8gq9iHY1wfRMBd+/xNms8e/8fXUnTkTdUNE1J05Qzeae/2IHv7EHyTacrLJVsmBoJHY8TYIliYdbvwM7hqC6E9u5v3kqQ23qUj2a57t5TpJiBU5K8FDFU/QS+Kx4j05pshaCUrp/Ic+bI5/9dOeSk/9Fz9LZ77pP6Du9CnqTp+i677pz9JTf/5nzW0wREQPfugj9pGakAMh6KXiSdggqKXRboaBdgpBourPBNNPUlasFG4Z59mDcb0XLfu44HrPBJWBgWeCxY8X2RJ3Qzm/MeLpOfQIPRNMjHLfO95J5974etqc1J8DXv20p9KTf/wteao++ijd+0vvUrQgpuSiZ4KuMmnDpMA4/+yZ4BWXkjlF0kzL6iIq6H0yp7PMoUSZ/cUTjN8FVhwKuR3mxUEqrPpMEPN/51vf8bKH/8YIshLJWgnOjHLxzs/Tve94J6RJTrr3He+iS3d83lNnXEmE6SMXWHElOI6JrgSvtBSITSJ2PVfmqVEVFeSsBL3w+qbATKHa+wTFb4eFZh1bXoqdSRlxauwtnqCdDAgWLScivFWB4DyAwud+6C106b77MvSx06X77qM73/SWSA/l7Kn6sRLJr3JDDBuTUBl4rLiiIUhEJtycmtoQ9FLNZ4LTlEV9xa7s4mofgrFhFJOzYn4jXi2eoJdmuvrcxc84Gk8QheC8+tIXvkC3veG/ogD/BrHR5+XL9Jk3/td06Qt3sYGQlSDRws3SQrdIQVsJOklfbUx2M3wbhmCltMY+wRrxBA/mwsi7c9EeJPiZ4Bxs+c8E7fD6QJrpqobXJzYs1DGyR6kvntnVGmtrlAf+n1+nz37fP6An/qO/T5sTJ3IV67u6dIlu/3v/kM7/2q/zQZXT/MyP/07RWFl6JWNaBbGv8Z7+6DkviKuMc7gBHxz3Pml2BD0xdeXMLNdV3/rCnwlmJf+EmI3h3xjxNgaPPontE9ykBUJ2KowGGDtgIfGjT8pKEH0muJt3h8HkrQSz+5l6i7RFVoJO98Pt8D0/94t06994LV2cr97AdPELd9Gtf/O1dO/P/yLTIs3uYyXlLFCIeSO6EjQXEC2eYGpXZCXoJ1y29u2wKGtmQ/SR7QNEITj+xWa+mZbHEwRTED86hYhcgjcEguBYD7z3N+iPvuXP010/83a6fOGCK3/5wgW662feTp+8+dvo/Hvfp742l2aFS85KyUDCDiAogUUTc2haHYL8HJRDsCgthCAaQMEVyYQg8kxQ60ncB4hCEN0sLRs2OdXqmeXKLYdg328tmM4LakGwV7P3qEv33Eu3/4P/lv7ga7/RVesPv/6b6XM/8N/RpXvunfoCIbiTBIBFK6gFwRZPMOcilJO23u2BsPJm6Ry7huRTZwkrozCZ2PYoBHlhTuzQDFGj8JBA0JSb0hxqWtJepTvMEPQXHqiuhzuAgllg6pIBwawAvMo5qDApqvz4egEEsS0y06f4R5FMCMoOEwh7d1g/NwgEBUqAJ0l9d3hlCOr182J/5N6u3iUVGJCOBwRHT6gEwRZPcB0IHpV4gh1DhNd2AQT1YgSCQitADrnC5EAQUJ/3h0DQP7/QAXu/iuZCcJepEIJCUyaHT2b5wi6L1YGgWWBmQQgqxkHfnLI7R9PWu5fO0ZnAGvEEu6XxtMT+DQgG0oyCQJBfF900M4w9LP4bIzkQxK4HGRCEU4MgOplbPMF4dmTNMmyFAT0TRLqqHU9wFg9QfKEuKkK3CgVa893hgjTrVtQm0HYgHARqPEHBp+SN3QAAHcdJREFUSI4pYinHrpBuW8GN8VKnFk/w9//UV01F0X6reeIb1DZERCdO0J9CfhOEKUPRZj/f1xJZ9TDX+Y0R82XZQPBvjJhyps+yxrpfE59E0V7eoaAweeYg6vcJ7vo3Rmajm3t1xzdBSuNpaePHVxlz+ZNkkqsWttwyUqyr/kwwt08lnqBQEI1pmkK3a0lafDvMrqi6HLpqUGUSXRG7Kk2ZnOhmmiRwEPvYJyieA3+BI9YYl0WwP6GVKQw+E9xDPEFhI3RiahOCssNEBjZmfiAMcMtvhyeLOOcpIxnjM5thnroGBL3Oyr8Ysf3EGuw4QJD2AEGeBSEoGCc6e8w4+c6HQHD8ZMntOJ6g8fuLWwlhyeQ7pmBTTZCWQDAnBfZH6nLjrdXFY/UMMEk5plgFguutBO1mRaICBG14rQNB9Nthp6MsCKroXwmCrAo1kDIaAkH0sdau4gkeUCDl8d+WfE48rfFTUp8OdzieCca68hHyuplncp4J6vVxj5Jdf+/pz4lkN0SmUeKJrB+t+xsjatPJY6A068fs0nnOVmJXSs+SefK3vu9dD7e67vp3h5OZwXQVRxHsOuSK5oEwmnfqegj2lWjwdf+xbHk8QSMidBg/RZ2RlLVXLMjtMC8WxidptZKbJl0XdRWpNyHLW0yhK5Ewr/QucuD2mJorwfIUG17tK9HVX6CEWM7oGF3o7Ot22Fqx6FmuqzhKIHai2fXcm6diSrQ2m85kLbkdxBNU3wQRezBr9NkhOxwXFM6NKFv7dljWBuyG010dLi3ArgcYBIPnLLZCU00xBEX86+MXQFCuNwoqQXDXm6XNghoQlFsuvLDFfSIQxPf7OoIFEBwKOklonu2LZg8CTcD5MrFhZIXL4wkifSVjh/mVoSAJMwl5JrhmPEFTBri6F0Mw6/lEGQQ91eYWsydh3mbpY/lMMCueoJKME4JAEE1rxRPscGsJPYjNbAiiW2T4sysuuzyKTAxBqC+tMDoeJby+4CzssY/aTLd9LOwfyaG6HdZHSCryISg0ZXI5EEQO1rNrDgTNghoQlFuWPRNXChAI7uO1OaL+ODuxgWdcV86HYFyPQNCWdZM9uzK6Rd4YCaOc78frxRN0ZfcAQd5lPFlzIGjDqz4Er8h4gk7S/TYPgmiqfTvcTUDKgSAiZ0Nw/IvN/CoJWQnCfWmFxvF6BVkQrGSXnW2RsbUogiDL7QCCElg0MYem1SHIz0E5BIvSQgjuI56g/JsgRjYkn+xmNgTRzdKyYbOvUWPWhCDUXT++3yK2mD1cXQj2aoIe5XRWO4qMfPbKIWjrUh+CV1I8QSTVuQhNlbuMJ9hNgkoDBV6sshCC499sCKqFfqoCwf7DIrVqQdCUA9QYHW53EJSblEEQvbggHdeGIFWEoFnggQWFYOEWi9oQ3NVm6S4W5Ptk5vU8Jd+dmhCUHWYac95AhmD59heBEsV9pe0NCIY4g74xYtfPi/2D6O3qXVK3sruA4Mwu8jfv60JwHL4SBK+EeIJ2UrRZCMFdfTHC9gEOQPKsNUxpHIJaAQ5Bq7gkLd5P6EEwkiHK+XYYmYQRBO35tf2wAwhmJMF7ppoVISg0ZXIoBLULuyxWB4JmgZkFIegTSk01IUiEzVFXxIDgARPcTB3OAjlF9XGTMAOmHmMigqrwihEznPLa3GC4slfipiMbS7ZDwN0dHPCzMrzaFZR+2LFqL+6k7rqJm5tvUG0MBeYmRY1nnE/WRY4RYydT3rTsS2Z+omoTiI5SKK1Q6bU5NJQW0FgWH42DpHheRbli+yeyltsOt8Ib1bIzt4vtf6AJTlnst2+ZRYUi2zGTKgOCRBnzGEnmSYjTV33y31YatCUicth5PCF4tOIJOgmZOwshuGY8QTkaTIj+ELOEkN1/PEFFRF/jM7myRX9L+Yk7huA9caXcMqlQPdYsCGL9VMvuTixJ0CePVjxBNHFt9CmM2r+vXCueoB4Oy/MgBV7M1CYEZYeJKG5AEF6gqxCs7gEtWYmRhPuJDMLjB0HaAwR5thIErfM6zy2E4PjJksvcItN5J0FQU9JJbyw85fYdU7CpP6CZbJs08u0qoaehJgRteK0DwWP37rCRxsMwDFRzJVhzi4z8KpwgGMasb9y+aEu+oMuJAwh9xYapDcFA86cGl+5/oLj/lux0+fx5oVRe8+nPBOOWmpgHFrOgAgQlsIhSFVeCZsFKEBxmT9asrABBOA6AUz/bCI1BEN0nuJd4gmJKTrUKwT7d997fyOi7pZx0/gMfJCJgFThb0ex6JcgvuFwuZyUIuWpFCO5jJRgtISIFuNa1VoLjJ0sOiCeYbITGIZhnLb0SXQnyzDoQ/MwPvpku3n13Rt8tIenSPffSnT/yY8ZplnGnyh6RleBRjyeIJvvsKZpXWAlCuhmC0zaYLdnQ8NJDgbVFZpAbw+sPjYU9gNEGBkMmULpFBkmz8Yf+gvQsIdAjf3Irffxl30FP/Lu30JmvfQmdOHuGNp3x0ynmsAv36ey5vfv7KEC69MADdP59H6A73/Q2evTWT/eF+mme0uQ8wtnbCqy4RWYc3ug4J7w+tJUj0VWqz9kiQ6QctZllg2Sn8TAmBaRRqu4TdHXaTvhUWtkIjf3uJmLcqTAaYN5B0iwXgkhKxh9yGgRvvY3+5HveEBerPhEZI/0oFBqbNTfxB7sfpTelc9ajJQeCrxfTZXk3/ISLYEvkzM3SPg6KISg0ZR2v8Rsj1u8550DQPMhqEATPAd4F4fbvJeDfGBEmPF/ahLFbW+HpD5f1ltmuXBDrhyL+TDAnJdqIfQgLenWsWNeNJjpb9/tqh1GOyTK1jmM8weTIdZehFk/QGNSTM3VhjVUxaZTgZxy/Re3vVsaSyQlwNkJjEESeCXr84Fkbgmaf0MAzEdB+aGRpH4JGvXG8XkEWBIsuHkKfFSFY7uNlEGS5HUBwCVjsbpZDkJ8DdGJkyLr9yAUIBEviCboboWvuE5wMnJi6EILIUls2nHCqUSKBEPQVavEE/aayn8iwLIegrUt9CB6teIJgUi4uQc0o4y2EIBHgtrPN0h3QXxYE9xFP0Eu64RAIys08CA5/7GFbPME0mzP5akEQvbggHdeGIFWEoFlQRD2hy6wLpnIOKkAQ3Szd1fyhkUDD7R9q3ORm0YQg6DCGish7wYfmmaBw+bxS4gmKYBOALdt2XQiOw1eC4NGJJ5iTuDaR3RQD1YQgevOShMRX+xu6BWTwZ4K14glmpWIICq0ACAIXKzItG1VcAfEETXX4xNoHBIWmTA6FoO8kc7E6EDQLMueX7o+8Bn5kpXaeB0Ei32W7QWqN391EjCu+MSJ3O/W8AIKBNKMgEOTXRfSHltQrKgLBZPwcCAa1fl5cF4JeZ8u+GIkrde85OhA87AEUALWUQj5KEKviM237bT4EiXS3ZV+C1ILglEWNm2xK8prBJ0nBEyvma4nlc52DRXcW8eGB2ijndrg6BJ20098Y2crJq4vjCUHvJB0qCAqTaJxp8hUO6DwPglYAhRiABfG0bJmkwMjWiidoKmQWB6mwQjzBWFf9meA0vu5M88xG9h+hIBqzAgTdcEODbCUI8uPkcvpcOn4QPBz7BMXuoJreezE53W/zISi5rbAROi+eliejFghNp0moe2x82DiwRWgRBrjdbpHpP/hHZhw/UwtzbBSCfb3iUYhCSTemrEks7ieyVY4fBGlXEAT0cFsLxtHhZlzuFkJw/DSTU/cB1n4mmH6SsmKlsGTKPEUmBImWQFCQBSA4/LGHrX87bF9R58U+BHPOwT42S9eEoA2vdSB4qOIJekoUQpBVGQaqBcH0dpj/JojQvf8ONxZAYSPJJgMM+o8BFJQXQRG9iIj+9Gf/EJBqqaWWytN2niIhAZIXeycuZL7aX+nd4W5pPK3clSC6TzAvnmBLLbW035SxEkyYEvHKuE2x72DyVoJDguI81XwmGLNa1Elv3FJLLR2qxBAFT2sDbk5NzdthONDdGvsEs8PrCzIttdTSflMRBIWVYCS/o2eC3UBC7KFrvZUgUc5KMLkdnhnn0gPtNzxaamkfaf4bLzVXgkXxBJUCD4Kd0oM+VuXbYVHWzMbPBO/79ffb+rTUUkurpAsf+rBRm7ES9J71yZkqzwRnt8Bl8bQsgV3EE7z1v/khunjvfZ5GLbXUUsV0+f776Z63/pN0PVJ+O1zj2VYBBJNngL1ETjwtT5m14wk+/MlP0Udv/gt097t+pd0Ot9TSyuny+fP04P/9a3T7d/0ndPHf3doXendsq6wElf4yIbh5/xc9RdAH+AGXUdT4jYu+q6FHQGZYEfq/c7GRKtVm/Hc75jXjKjT5TQ7WF/AjHbLd5IFli3Bd7S4Vy254BlMtkVVOG+vRktvFb4zMssrZs5rEJf5hMYfwVEPtys6nOW3A3+3Y+PNvkxaUyJl247rqJjBGMQydJbfNKt8C7+eLkQFEu4wnOI1J6hVm7MH8gmabU2XQY4qXxfq7w9MHf8iwlVMMYBUoegarMpVr8QRpbjH7MI9rPEFwJSjUBErsphioZCVobIPZnjDAwK5IAQSx2+EIX6qcpywKQb0YgaDQCoCg2ZUHQaZaiyeY5vYBQaEpk0Mh6DvJXKwOBM0CMwtCUDEOstjNhWAHzjDomSDS1WGNJygbTpwaLZ4ga1YXgl5nLZ6gILljCJpymcBGIRhm/7hx2CxXOo/lOvsk9JVWPC29e73ysMcTjG2i4IkV87VEiyfoqiHLBaq2EvQH6//I7n08IeidpNoQ9C4u6iiBxEkU3a3BxywXTCHxAQi6E/oYxBMMVHo7HKTCFk9QUqPFE+SyO4TgPuIJiucAvmbxUdQLVpLT/bYv6KKsA8HxkyV31OIJGhCMG4jXsRZPkBX7EOzrg+NIwICEQ1Duk/uJbJXjB0HaAwR5FoSgYBwdbsblTrB/h5+EvhK9HT5S8QRVmKYZBU/FEBRkAQgOf+xhWzzBNGsgnzWrCUEbXutA8FDFE1wJgqzKMJDmt+xVOBSC8DedkAwOwewACkGXEwcQ+optgkIQfSYYiC3o7dllsT1pj0CwH3+1LTLeqXUcKTBdETlB1rQpr6z5TFCuNwoqQNC4ksZSwZ9/KATNgpUgOMyenAvqXLiTShEIjp8suSMTT9CerMjtMC+WyVvzmSB2ihwIjicbfyaITMKaEBxE1t0iM5MJycUvFSiAIOtL0XWUqwDBfd0Os3kFZTMgWDGeoPgq3PjJ8RR8v5sjWABBzFp+JQJB2eHEqbHwmaBfFFV4ExGBIKc7oEeIiytAMOz4maBy9sDRyiDod4z69OHeLG0W1ICg3NI4e4rmQdwHmAdBNB3meII5EIxtopicFefcDicaARAcOFYMwSSD3A6HUVauT3u0ZJwuYhlvQJJshkIwkdkKHPU3RigDgh6wUQjG2FkBgv1VUxte4J6seSePkAfBoxxPkDezIYhukZGfXaEQ3DA541RHPlMMweh48DdGNmb9vFi3fSzsO9K6t8NcTrcthINiCApNmVwOBJErjGfXHAiaBTUgKLeE3hgZUqfP4zwIoumwxROUa3wIxvUIBBVtfCJZQ1Cqa/FKUBhfZBVTq+DbYW/kw/TuMKkfp0Gs+qgi9jAbXvUhiN4O72OfINDY8Gs+SvAzFIj9MLrYuzYOkz2K8QRLITj+xWa+mXLeHVZQO/4Z7OGxF+WuKKsUZEEQv2aaaR9bZMTKAgiy3A4gKIFFE3NoWh2C/ByUQxBN05sg6gh5ECSiIxVP0G5mQxDdLC3bNDnVKJFACKppVChvs/SuIdirCV5Rnc4O82ZpuV4uqAXBfb0xkjNPjUFgCEZjskyfOl4kjZAPwX1tlsa2yAiVhRAc/2ZDkBfmzHUPgsMfe1h8s7Q1XFqQDUFTDlBj5ORyCKJjyrJlEEQvLkjHtSFIFSFoFnggQCGYdcGU3gRRR8iD4D6+GAnU4gmmM7nFE0zrDeVUCIa40rTtuhAch68EwV1vkYk9WfcV7vEgBIWaQIndZtUsHmBNCBJhEHRFCiDoWWuY0i2eYP/B66pPLZ5gmmvxBLVuUP/356kxiOGPvEa6KZ29ChcbV5/H+RAkcnw3tHiCGASF66Lqv4H9sYdt8QTTrGyzuFL3nqMDwcMeQMFpDEMwzP4NVU5AVG2EPAiiARSAroYe4Q5aPMG4XneWFk+wbLD+T4snONXXhqB3cVFHCSROovndmvoq3NheHSEfgu6EzrhfbvEEkxLVf2NdWzzBtJ5rkWb5cXI50RbzSrllUnE0ILiPfYLiOYCvWXyU4YIlvAlinO6FEBw/WXKVt8ioBQq82PGbEJQdZm5ga+YrFygmu9stMv0Hfx7oU56rhXkqCsG+PjiOBAxIOATlPrmfyFY5fhCkPUCQZ0EICsYZzlMcEdqwUi0IorfDLZ4gAkFBFoDg8McetsUTTLMG8lmzmhC04bUOBI/lu8NCTRdoWTyttACFIPxNJySDQ7DFE5z+tHiCmpwga9qUV7Z4glo35knXC1aC4LgCLI2nJQ2JQHD8ZMl5pJwp1OIJJiWq/066YqeoxRNMs67dQnLxSwUKIMj6UnQd5SpA8EqIJxi9CaJPGEX9hRDE97s5ggUQxKzlVyIQlB1OnBoLnwn6RVGFNxERCLZ4gnMtwNHKIOh3jPr04d4sbRbUgOCsRvxh9NHuhpVqQRBNLZ5gDgSDIzeTCRPHiiGYZFo8QYrmz1F/Y4QyIOgBG4VgjJ8VINhfNeNX4YbynHha8gh5ENzHa3NELZ5gCkFVGwSC0fG0eILzrG5bCAfFEBSaMrkcCCJXGM+uORA0C2pAkMaN0Fyl4Gd4lTIkAkE0tXiCKARBD0h0bfEE03quRZqVwSb7Ce8y2PVRhTL35I61pkwOheBxjCc42weIQ8gaUytAIIiuBF2RTAi2eIKTroM9PPai3BVllYIsCFZwV6K6ECy/xpdBkOV2AEEJLJqYQ9PqEOTnwIdgF9fwoYKaUTpdCEEi8kFYebM0g5aRDcknu5kNwRZPkBfUgmCvpudIpkJTDQhBuU/uJzIsyyFo61IfgscpniCPCJ0ZT0sctAIEWzzBRE4F3CyXceo8CA5/7GFbPME0i44py5ZBEL24IB3XhiBVhKBZ4IFAERe/BZZUGv2MOdw6ENzHFyOBWjzBdCa3eIJpvaGcCsEQV5q2XReC0TxWOs6B4K63yMSerPsK93gZgp04lGIh5NvhmhAkwiDoihRA0JuIw5Ru8QT7D15XfWrxBNNciyeodYP6vz9PjUGE3wSJWnKV5CsI57I+j/MhSOT4bmjxBDEICtdF1X8D+2MP2+IJplnZZnGl7j1HB4KHPYCC1Vj+TZB5oRNPCz1wrQCBIBpAAehq6BHuoMUTjOt1eLV4gmWD9X9aPMGpvjYErYtLlxTrWiU59YQlOd158yHoTuiM++UWTzApUf031rXFE0zruRZplh8nlxNtMa+UWyYVRwOC+9gnKJ6DIESE1ucLCjfjdC+E4PjJkqu8RUYtUODFjt+EoOww0QXGmPn9ZObtcQjKE1Htz/Pvma7+PNCnPFcLcVIcgn19cBwJGJBwCMp9cj+RrXL8IEh7gCDPDq/CFUKQVRlWqgVB9Ha4xRNEICjIAhAc/tjDtniCadZAPmtWE4I2vNaB4FF5d3j6UaRCCAZq8QTTbF/U4gliEOzHb/EE49TiCWrdmCddL1CyXVSEQjBwlVo8wbRIIF8BBIlaPMG0AJmENSE4iOxks/TWCNHFLxUogCDrS9F1lKsAwaMQT7BjHaMXAwtuTk0tCOL73RzBAghmGMqsRCAoO5w4NRY+E/SLogpvIiIQbPEE51qAo5VB0O8Y9enDvVnaLEiywj5AEIL6bJvsblipFgTR1OIJ5kAwOHIzmTBxrBiCSabFE6Ro/hz1N0YoA4IesFEIxvjR56myDxCEoNyyxRNUGyUEFZvZEGzxBOOCFk9QbZlU5ENQaMrkciCIXGE8u+ZA0CzYZpV3gcWRDKfkKgU/w6uU0RAIoqnFE0QhiF4BY11bPMG0nmuRZmWwyX7Cuwx2fVShzD25Y60pk0MheBjjCXap8ViDQggWpYUQRFeCrkgmBFs8wUnXwR4ee1HuirJKQRYEK7grUV0IOu5tVxZAkOV2AEGJKZqYQ9MqEBR+GL0eBNmVWfHQOidhqnRBWHmzNIOWkQ3JJ7uZDcEWT5AX1IJgr6bnSKZCUw0IQblP7icyLMshaOtSH4KHKZ5gJ5QhI+kQzHIYBR0VINjiCSZy+lVrymWcOg+Cwx972BZPMM2iY8qyZRBELy5Ix7UhSBUhKBXwgKizj6xj1A6CSmN/rON1ILiPL0YCtXiC6Uxu8QTTekM5FYIhrjRtuy4Eo3msdJwDwV1vkYk9WfhVODsLQlCxUIsnGGdbPMHpg9dVn1o8wTTX4glq3WD+34mlmQqjEAyzf9xCQc5VgCCR47uhxRPEIBhEOXOyMptow7Z4gmlWtllcqXvP0YHgPgMoxK/CKW0946pDKbOtxROUUosniMNNkVSMVB2CTqr5TNAfrP/T4glO9TkQ5K/CKVk+J0EICjWBWjzBNNviCU7j6xfTeabFE5xnRVvMK+WWScXRgGDNb4c7V9jMghAULKTDzTjdCyE4frLkKm+RUQsUeLHjNyEoO0x0gTFmfj+ZeXscgvJEVPvz/Humqz8P9CnP1UKcFIdgXx8cRwIGJByCcp/cT2SrHD8IUiUIjvsAY8PtBoKsyrBSLQiit8MtniACQUEWgODwxx62xRNMswbyWbOaELThtQ4Ed/XusLEPcDcQDNTiCabZvqjFE8Qg2I/f4gnGqcUT1LqJc2wfYGzOlSAYuEotnmBaJJCvAIJELZ5gWoBMwpoQHER2sll6a4To4pcKFECQ9aXoOspVgOAubod5MIRMuhdBUG5pTBhF/YUQxPe7OYIFEMwwlFmJQFB2OHFqLHwm6BdFFd5ERCDY4gnOtQBHK4Og3zHq04dns7QcDSak5lwBgvpsm+xuWKkWBNHU4gnmQDA4cjOZMHGsGIJJpsUTpGj+HPU3RigDgh6wU4rwN0FUhVaAoNyyxRNUGyUEFZvZEGzxBOOCFk9QbZlU5ENQaMrkciCIXGE8u6bdyG+CqGPCVJMaG07JRwl+hlcpoyEQRFOLJ4hCEPWVWNcWTzCt51qkWRlssp/wLoNdH1Uoc0/uWGvK5FAIrhFPUH8TRBAW5RLjMdlCCBalhRBEV4KuSCYEWzzBSdfBHh57Ue6KskpBFgQruCtRXQg67m1XFkCQ5XYAQYkpmphDUwrkvQmSCLPJBWXLIRiNyTJKfwshSEQ+CCtvls6xa0g+2c1sCLZ4grygFgR7NT1HMhWaakAIyn1yP5FhWQ5BW5f6EKz5xoj/JohajJ6EbSUKwSyHUdBRAYItnmAip1+1plzGqfMgOPyxh23xBNMsOqYsWwZB9OKCdFwbguRAMHoTxB05mNhhxmN9wszk2oz9sY7XgeA+vhgJ1OIJpjO5xRNM6w3lVAiGuNK07boQjOax0nEOBJdukeliIWDkTIcpgqBioRZPMM62eILTB6+rPrV4gmnuSo8nKL4J4o7syWUqjEIwzP5xCwU5VwGCRI7vhhZPEINgEOXMycpsog3b4gmmWdlmcaXuPUcHgktuh8U3QWpD0DOuOooy21o8QSm1eII43BRJxUjVIeikms8E/cH6P1dqPEHzTRB35EwIMln4nPFRWjzBONviCU7j6xfTeabFE5xnRVvMK+WWScXRgOD822H9h9FXgCDPghAULKTDzTjdCyE4frLkKm+RUQsUeLHjNyEoO0x0gTFmfj+ZeXscgvJEVPvz/Humqz8P9CnP1UKcFIdgXx8cRwIGJByCcp/cT2SrHD8I0haC+qtwoxAwMruC7AaCrMqwUi0IorfDLZ4gAkFBFoDg8McetsUTTLMG8lmzmhC04bUOBNFvh7ul8bT04t1AMFCLJ5hm+6IWTxCDYD9+iycYpyslnuBsH2AdCMbmXAmCgWvT4gmmRQL5CiBI1OIJpgXIJKwJwUFkJ5ult0aILn6pQAEEWV+KrqNcBQgit8PJPsA6EDQLakBQbmlMGEXzhRDE97s5ggUQzDCUWYlAUHY4cWosfCboF0UV3kREINjiCc61AEcrg6DfMerT9W6H2T5AT2EUgrE5V4CgPtumwzCsVAuCaGrxBHMgGBy5mUyYOFYMwSTT4glSNH+O+hsjZEDw/wc069OxnKtfBgAAAABJRU5ErkJggg==;fontColor=#ADADAD;" vertex="1" parent="1">
          <mxGeometry x="-1562.8571428571427" y="1183.857142857143" width="55" height="55" as="geometry" />
        </mxCell>
      </root>
    </mxGraphModel>
  </diagram>
</mxfile>
